<svg xmlns="http://www.w3.org/2000/svg" viewBox="0 0 257.4 132.64"><defs><style>.cls-1,.cls-2{fill:none;stroke:#000;stroke-width:0.99px;}.cls-1{stroke-miterlimit:10;}.cls-2{stroke-linecap:round;stroke-linejoin:round;}</style></defs><g id="Calque_2" data-name="Calque 2"><g id="Abdos"><g id="Abdos-2" data-name="Abdos"><path class="cls-1" d="M192.4,74.34c-3.29,3.72-7.7,5.53-11.5,4.5-4.66-1.26-6.56-6.31-7.2-8-4.9-13,9.88-28.7,11.3-30.17"/><path class="cls-2" d="M176.8,3.64a9,9,0,0,0-4.6.6c-1.7.8-2.6,2.2-4.2,4.3-2.8,3.5-4.8,7.6-5,11.4-.1,3.1,3,4,3.8,8.5a13.22,13.22,0,0,1,.2,2.7,2.9,2.9,0,0,0,1,2.3,6.53,6.53,0,0,1,1.1,1.2,6,6,0,0,1,.9,1.5,2.78,2.78,0,0,0,1.9,1.6h0c1.9.4,3.6-.8,5.4-2a49.77,49.77,0,0,1,6.8-3.6"/><path class="cls-1" d="M182.7,22.94c-5.4-4.2-10.7-8.4-16.1-12.6"/><path class="cls-2" d="M143.1,100.24a56.51,56.51,0,0,1-13.7-6.6c-9-5.9-10.9-11-22.7-23.6-15.5-16.5-20.6-16.6-23.1-15.8s-3.9,2.6-5.1,4.3c-10.7,15-14.1,28.4-21.3,39.9A68.39,68.39,0,0,1,43.8,114c3.6,1.2,7.1,2.4,10.7,3.7,12.5-7.6,18.7-15.9,22.1-21.9,4.9-8.8,6.4-17.5,10.1-17.6,2.4,0,3.4,3.4,8.4,10.6,2.52,3.63,5.5,6.92,11.3,13.6,2.57,3,6,6.86,10.3,11.37a37.23,37.23,0,0,0,11.1,9.93,29.82,29.82,0,0,0,15.1,4.7,27.33,27.33,0,0,0,9.5-1.6c-1.9-5.7-3.9-11.4-5.9-17.2-1.2-3.2-2.3-6.3-3.4-9.4,15.54-12.51,18.19-21.47,17.6-27.43-.44-4.48-3-9.93,0-15,2-3.34,6.33-6.51,7-7a35.35,35.35,0,0,1,5-3c2.31-1.12,3.42-1.34,5-2a21.5,21.5,0,0,0,7.4-5.27c-1.4-17.3-4.3-27.1-6.9-32.9-.6-1.4-2.3-5.6-.8-6.8s5.2,1.3,12.8,4.3a93.5,93.5,0,0,0,9.8,3.3c.4-.1,5.1-1.5,7.8,1.1,2.86,2.75,2.45,8.27,0,11.2a5.69,5.69,0,0,1-3.1,2.07c-1.69.37-3.3-.29-5-1a15.12,15.12,0,0,1-2-1A17.71,17.71,0,0,1,194.1,18c1.2,6.7,2.4,13.3,3.6,20a97,97,0,0,1-6.6,40c-6.8,17.2-17.6,28.4-25.1,36.2a152.78,152.78,0,0,1-13.5,12.5"/><path class="cls-1" d="M43.7,114.14a18.93,18.93,0,0,1-5,6.2,14.6,14.6,0,0,1-6.6,3.5c-3.2.6-5.5-.3-6.4,1a2.75,2.75,0,0,0,0,2.5h5.2c4.1.1,6,.2,8.6.2,2.1,0,5.3,0,9.2-.3a6.15,6.15,0,0,0,1.1-1.4,10.34,10.34,0,0,0,1.2-3.7,8,8,0,0,1,3.3-4.4"/><path class="cls-1" d="M255.4,132.14H2.7a2,2,0,0,1-2.2-1.7,2,2,0,0,1,2.2-2H255.4a2,2,0,0,1,1.5,2A1.8,1.8,0,0,1,255.4,132.14Z"/><path class="cls-2" d="M216.5,5.54a17.84,17.84,0,0,1,10.1,8,17.47,17.47,0,0,1,1.8,11.6,19.87,19.87,0,0,1-1.2,4.2"/><path class="cls-2" d="M221.8,20.44a12.53,12.53,0,0,1-.9,11c-2.9,5-8.2,7.8-10.2,8.7"/><path class="cls-2" d="M179.8,11.74c-2.9-2.3-5.7-4.6-8.6-6.9"/></g></g></g></svg>