<svg xmlns="http://www.w3.org/2000/svg" viewBox="0 0 281.31 119.02"><defs><style>.cls-1,.cls-2{fill:none;stroke:#000;stroke-miterlimit:10;stroke-width:0.28px;}.cls-2{stroke-linecap:round;}</style></defs><g id="Calque_2" data-name="Calque 2"><g id="Planche_ballon" data-name="Planche ballon"><path class="cls-1" d="M238.84,33.53a7.58,7.58,0,0,1,3.15,9c-2,6-6,33-6,33s-1,6-1,8-4,27-4,27h0l1,2a7.62,7.62,0,0,0,1,1c2.81,2.32,5.75,1.2,10,3,.78.33,3.14,1.33,3,2-.18,1-5.05-.39-14,0-2.54.11-4.5.33-6-1-.67-.59-1.25-1.5-2-5a41.38,41.38,0,0,1-1-7c-.14-7.83,1-25,1-25h0l-1-20-2-19a10.89,10.89,0,0,1,3.82-8,11.12,11.12,0,0,1,8.18-2A13.51,13.51,0,0,1,238.84,33.53Z"/><path class="cls-1" d="M281,26.53a15.2,15.2,0,0,0-1-8,18.37,18.37,0,0,0-5-7c-1.71-1.62-3.52-3.28-6.36-3.88a9.8,9.8,0,0,0-1.57-.27,8,8,0,0,0-2.07.15,33.11,33.11,0,0,0-9,3c-.45.25-8.61,4.92-10,11-.12.56-.41,1.9.22,2.43,1,.81,3.4-.61,3.71-.8,1.19-.69,1.14-1.16,2.07-1.63,4-2,6-1,6,0,0,1.17-1.62,2.51-1,4a2.1,2.1,0,0,0,1,1l5.42,3s1.31,1,4.45,0a51.64,51.64,0,0,0,5.13-2A5.28,5.28,0,0,1,274.87,30c.49,1.38.14,2.59,1,3.23a1.75,1.75,0,0,0,1.13.32C278.94,33.41,280.53,29.45,281,26.53Z"/><path class="cls-1" d="M246,23.53a7.25,7.25,0,0,1-4.39,3.17,7,7,0,0,1-3.61-.17,45,45,0,0,0-31,6s-26,6-27,4a12.35,12.35,0,0,0-2.5,3c-1.9,3.26-1.67,6.52-1.5,9a24.42,24.42,0,0,0,3,10,54.32,54.32,0,0,1,44,5"/><path class="cls-2" d="M276,33.53a7.61,7.61,0,0,1-3.19,3.39,8.27,8.27,0,0,1-3.92.92,7.67,7.67,0,0,1-1.89-.31,11.68,11.68,0,0,0-3,1c-2,1.12-2.06,3.08-3,3s-.83-1.64-2-2c-1-.29-1.43.73-3,1a5.32,5.32,0,0,1-4-1c-1.45-1.13-1.54-2.72-3-3a2.44,2.44,0,0,0-.81,0,14.88,14.88,0,0,0-5.19,2l-.59.23"/><path class="cls-1" d="M180,36.53a25,25,0,0,0-7.62-6.16A26.45,26.45,0,0,0,160,27.53c-12.4-.2-22.17,7.42-25,9.78l-32.78,6.95c-22-4.58-33.5-2.73-39.91,0-2.17.92-9.11,4.2-13.31,1.27-2.7-1.89-3.31-5.71-6-6-1.62-.17-3.07,1-4,2q-3.5,5-7,10t-7,10q-2,4.39-1,5.26,1.62,1.39,11-6.26l4-3a24,24,0,0,1,6-2,24.76,24.76,0,0,1,9,0c5.08.87,19.1,1.55,45,2a28.5,28.5,0,0,0,11,2c6.9-.05,14.2,1.93,31,2,7.88,0,19.82.88,38-3"/><path class="cls-1" d="M49,45.53c-.77-1.23-1.46-2.24-2-3-2.28-3.22-3.13-3.77-4-4a4.42,4.42,0,0,0-2,0,5.7,5.7,0,0,0-3,2,60.68,60.68,0,0,0-5,7c-1.66,2.58-2.58,4-4,6a31.83,31.83,0,0,0-2,3,21,21,0,0,0-2,5"/><path class="cls-1" d="M116.05,59.88a34.36,34.36,0,0,1,7.23,11.54,35.19,35.19,0,0,1-4.41,32.73,34.33,34.33,0,0,1-13.23,10.58,35.1,35.1,0,0,1-36.17-2.64,33.71,33.71,0,0,1-15-28.24A32.8,32.8,0,0,1,57.08,72,38.09,38.09,0,0,1,68.49,56.68"/><path class="cls-1" d="M268.3,7.53s2.69-5-7.31-7a21.48,21.48,0,0,0-17,4,17.86,17.86,0,0,0-2,2,17.79,17.79,0,0,0-3,6c-1.71,6.28,1.69,13.53,2,14.19"/><path class="cls-1" d="M243.79,38.09l.2.44c.84,2,4.45,10.44,6,10s.35-8.65,0-11l0-.49"/><path class="cls-1" d="M250.23,14.84A13.89,13.89,0,0,1,252,11.53a13.71,13.71,0,0,1,3-3c3.37-2.4,8.24-3.28,9-2a1.1,1.1,0,0,1,0,1l-.21.26"/><path class="cls-1" d="M10,64.53s-8.83-12.34-3-24c4-8,6-8,6-8"/><path class="cls-1" d="M19.13,91.07S4.41,87.4,1.29,74.74c-2.15-8.68-.62-10-.62-10"/></g></g></svg>