<svg xmlns="http://www.w3.org/2000/svg" viewBox="0 0 282.02 119.73"><defs><style>.cls-1,.cls-2{fill:none;stroke:#000;stroke-miterlimit:10;stroke-width:0.99px;}.cls-2{stroke-linecap:round;}</style></defs><g id="Calque_2" data-name="Calque 2"><g id="Planche_ballon" data-name="Planche ballon"><path class="cls-1" d="M239.19,33.89a7.58,7.58,0,0,1,3.16,9c-2,6-6,33-6,33s-1,6-1,8-4,27-4,27h0l1,2a7,7,0,0,0,1,1c2.8,2.31,5.74,1.2,10,3,.78.33,3.13,1.32,3,2-.19,1-5-.4-14,0-2.54.11-4.5.32-6-1-.68-.6-1.26-1.5-2-5a40.22,40.22,0,0,1-1-7c-.15-7.84,1-25,1-25h0l-1-20-2-19a10.84,10.84,0,0,1,3.82-8,11,11,0,0,1,8.18-2A13.25,13.25,0,0,1,239.19,33.89Z"/><path class="cls-1" d="M281.35,26.89a15.28,15.28,0,0,0-1-8,18.48,18.48,0,0,0-5-7C273.63,10.27,271.83,8.6,269,8a9.76,9.76,0,0,0-1.57-.26,7.49,7.49,0,0,0-2.06.15,33.11,33.11,0,0,0-9,3c-.45.25-8.61,4.92-10,11-.13.55-.41,1.89.22,2.43,1,.8,3.39-.62,3.71-.8,1.19-.69,1.13-1.17,2.07-1.63,4-2,6-1,6,0,0,1.16-1.62,2.5-1,4a2.11,2.11,0,0,0,1,1l5.42,3s1.31,1,4.44,0c2.4-.77,5.13-2,5.14-2a5.3,5.3,0,0,1,1.87,2.44c.49,1.39.14,2.6,1,3.24a1.85,1.85,0,0,0,1.14.32C279.29,33.77,280.88,29.81,281.35,26.89Z"/><path class="cls-1" d="M246.35,23.89a7.25,7.25,0,0,1-4.4,3.17,6.92,6.92,0,0,1-3.6-.17,45,45,0,0,0-31,6s-26,6-27,4a11.76,11.76,0,0,0-2.5,3c-1.91,3.26-1.68,6.52-1.5,9a24.22,24.22,0,0,0,3,10,54.32,54.32,0,0,1,44,5"/><path class="cls-2" d="M276.35,33.89a7.72,7.72,0,0,1-3.2,3.39,8.21,8.21,0,0,1-3.91.92,7.54,7.54,0,0,1-1.89-.31,11,11,0,0,0-3,1c-2,1.12-2.07,3.07-3,3s-.83-1.65-2-2c-1-.3-1.44.72-3,1a5.34,5.34,0,0,1-4-1c-1.45-1.14-1.55-2.73-3-3a2.44,2.44,0,0,0-.81,0,14.42,14.42,0,0,0-5.19,2l-.6.22"/><path class="cls-1" d="M180.35,36.89a25.21,25.21,0,0,0-7.63-6.16,26.32,26.32,0,0,0-12.37-2.84c-12.41-.21-22.17,7.41-25,9.77l-32.79,7c-22-4.58-33.49-2.72-39.91,0-2.17.92-9.11,4.21-13.3,1.28-2.71-1.9-3.32-5.71-6-6-1.62-.18-3.08,1-4,2q-3.51,5-7,10t-7,10c-1.34,2.92-1.68,4.68-1,5.26q1.62,1.38,11-6.26l4-3a23.82,23.82,0,0,1,6-2,24.3,24.3,0,0,1,9,0c5.07.86,19.09,1.54,45,2a29.26,29.26,0,0,0,3,1,28.94,28.94,0,0,0,8,1c6.9,0,14.19,1.92,31,2,7.87,0,19.81.87,38-3"/><path class="cls-1" d="M49.35,45.89c-.77-1.24-1.47-2.25-2-3-2.29-3.23-3.13-3.78-4-4a4.14,4.14,0,0,0-2,0,5.55,5.55,0,0,0-3,2,59.48,59.48,0,0,0-5,7c-1.66,2.58-2.59,4-4,6a27.86,27.86,0,0,0-2,3,21,21,0,0,0-2,5"/><path class="cls-1" d="M116.4,60.23a34.31,34.31,0,0,1,7.24,11.55,35.17,35.17,0,0,1-4.41,32.72A34.57,34.57,0,0,1,106,115.09a35.07,35.07,0,0,1-36.17-2.65,33.69,33.69,0,0,1-15-28.23,33.37,33.37,0,0,1,2.61-11.83A38.33,38.33,0,0,1,68.84,57"/><path class="cls-1" d="M268.65,7.89s2.7-5-7.3-7a21.45,21.45,0,0,0-17,4,16.08,16.08,0,0,0-2,2,17.67,17.67,0,0,0-3,6c-1.71,6.27,1.68,13.52,2,14.18"/><path class="cls-1" d="M244.14,38.44l.21.45c.84,2,4.44,10.43,6,10s.35-8.66,0-11l0-.5"/><path class="cls-1" d="M250.58,15.19a13.59,13.59,0,0,1,1.77-3.3,13.05,13.05,0,0,1,3-3c3.36-2.4,8.23-3.29,9-2a1.16,1.16,0,0,1,0,1l-.22.25"/><path class="cls-1" d="M10.35,64.89s-8.83-12.34-3-24c4-8,6-8,6-8"/><path class="cls-1" d="M19.48,91.42S4.76,87.76,1.64,75.1c-2.14-8.69-.62-10-.62-10"/></g></g></svg>