<svg xmlns="http://www.w3.org/2000/svg" viewBox="0 0 193.25 299.04"><defs><style>.cls-1,.cls-2{fill:none;stroke:#000;stroke-miterlimit:10;stroke-width:0.28px;}.cls-1{stroke-linecap:round;}</style></defs><g id="Calque_2" data-name="Calque 2"><g id="Corde_à_sauter" data-name="Corde à sauter"><path class="cls-1" d="M79.34,277.58a16.26,16.26,0,0,0-.85,12.73A5,5,0,0,0,81,292.85c2.48,1,4.81-.64,5.09-.84.58-.44,1.75-1.49,2.55-5.1a24.29,24.29,0,0,0,0-10.18"/><path class="cls-1" d="M110.37,275.88a16.26,16.26,0,0,1,.85,12.73,5.06,5.06,0,0,1-2.55,2.55,5.49,5.49,0,0,1-5.09-.85c-1.57-1.17-2-2.85-2.55-5.1a23.87,23.87,0,0,1-.47-8.48"/><path class="cls-2" d="M90.37,55.2a25.05,25.05,0,0,1-11,.85A26.14,26.14,0,0,1,82.73,51a20.54,20.54,0,0,1,6-5.09c5.16-2.71,8.31-.3,10.18-2.54,2.24-2.69-2-6.53,0-11s6.88-2.78,9.34-7.64c1.88-3.73,1.23-9.19,0-12.73-.57-1.64-1.09-2.36-.85-2.54.92-.74,12.72,7,12.73,15.27,0,9.08-14.1,12-13.58,21.22.3,5.25,5,7.49,4.24,13.58a14.06,14.06,0,0,1-3.82,7.61C102,55.85,98.17,53.46,95.47,53.5,93.92,53.52,93.1,54.34,90.37,55.2Z"/><path class="cls-2" d="M79.33,56.05c0,21.22,8.5,27.16,8.5,27.16.29.12.73.29,1.26.48a22.3,22.3,0,0,0,2.92.79c2.33.41,5.14-1,5.69-1.27,3.42-1.72,7-7,8.8-14.43l.42-1.73"/><path class="cls-2" d="M87.83,83.21c.71,1.87,1.33,4.51.23,6.85-1.74,3.68-6.79,4.59-8.72,5-5.49,1.27-13.27,5.15-22.92,17-5,6.14-20,18.19-26.87,25.67,0,0-5.35,5.82-10.47,7.43-1,.31-1.89.63-1.89.63a11.57,11.57,0,0,1-1.51.22c-1.27.15-3.6.86-4.24,2.54a2.06,2.06,0,0,0,0,1.7c.21.35.66.67,3.39.85a11.62,11.62,0,0,0,3.4,0c1.32-.49,1.39-1.34,3.39-2.55a14.9,14.9,0,0,1,1.7-.85c6.75-2.92,10.19-4.22,12.06-5.09a68.38,68.38,0,0,0,18.89-12.73c4.55-4.39,7.75-8.81,14.88-13.58a59.39,59.39,0,0,1,9.34-5.09,46.54,46.54,0,0,1,2.55,17,60,60,0,0,1-1.7,11,208.16,208.16,0,0,1-5.09,20.37c-6.47,20.94-2.69,62.24-1.7,73a393.07,393.07,0,0,0,6.79,45l9.34-.85c-.23-19-.33-37.06-.54-55.3,0,0-.17-15.06,4.78-39.76.72-3.58,2-9.38,3.39-9.34s2.11,4.78,2.55,7.64c3.92,25.53,1.7,43.28,1.7,43.28-1.54,12.25-2.53,29.91,0,53.48l10.18-.85c2.74-15.88,4.65-29.2,6-39,2-15.48,2.86-24.66,3.39-32.26,0,0,1.69-24.43-.85-36.5-1.36-6.46-3.39-13.57-3.39-13.57h0c-2.63-7.93-4.7-10.61-5.94-17.82-.69-4,0-2.92-.85-9.34-1.11-8.45-2.8-14.36-.85-15.27l.13-.06c.67-.19,2.85.11,13.45,9.39,8.41,7.37,7.49,7.57,11.88,11,6.77,5.34,22.92,12.73,22.92,12.73,1.81.83,4.44,2,7.64,3.39a8.75,8.75,0,0,0,5.09,2.55c2.63.32,5.84-.59,5.94-1.7.08-.85-1.66-2.17-9.34-4.24-1.24-1.27-3.32-3.39-5.94-5.94-18.65-18.22-23.93-16.54-30.55-28-1.5-2.59-4.95-9.14-12.32-14A35.59,35.59,0,0,0,104,92a7.23,7.23,0,0,1-6.25-4.46,6.84,6.84,0,0,1,0-4.33"/><path class="cls-2" d="M96.78,44.35s9.33,1.22,10,3.06"/><path class="cls-2" d="M99.67,40.39s7.29,1,7.06,2"/><polyline class="cls-2" points="17.05 145.84 13.98 140.08 12.29 140.92 14.91 146.16"/><path class="cls-2" d="M170.27,146.47l2.95-5.55,1.7.85L172.29,147l-.12.16"/><path class="cls-2" d="M17.44,151.22l.79,1.59,1.7-.85-.71-1.41"/><path class="cls-2" d="M170.16,151.22l-.79,1.59-1.7-.85.49-1"/><path class="cls-2" d="M13.15,140.49a1.67,1.67,0,0,1-.91-.26c-2.88-1.82,1.34-12.64,2.59-17.13C20.59,102.47-1.25,88.8,4.65,76.42,9.9,65.39,28.28,74,45.39,58.59c7-6.3,4.9-8.62,17.82-27.16C73.7,16.39,79,8.86,85.28,5.12c24.07-14.22,66.93,5,67.9,20.37.51,8-10.65,11.66-11,25.46a29.41,29.41,0,0,0,5.09,17c8.53,12.1,20.6,6.92,29.71,17.82,8.34,10,6.72,24.48,5.94,31.41a57,57,0,0,1-8.66,24.27"/><path class="cls-2" d="M100.22,296.46c16.23,7.7,29.27-5.3,29.27-5.3"/><path class="cls-2" d="M163.87,170.84c16.24,7.7,29.28-5.3,29.28-5.3"/><path class="cls-2" d="M.06,158.11c16.24,7.7,29.28-5.3,29.28-5.3"/></g></g></svg>