<svg xmlns="http://www.w3.org/2000/svg" viewBox="0 0 213.54 209.68"><defs><style>.cls-1,.cls-2,.cls-3,.cls-4{fill:none;stroke:#000;stroke-width:0.28px;}.cls-1,.cls-4{stroke-linecap:round;}.cls-1,.cls-2{stroke-miterlimit:10;}.cls-3{stroke-linecap:square;}.cls-3,.cls-4{stroke-linejoin:bevel;}</style></defs><g id="Calque_2" data-name="Calque 2"><g id="Développé_couché" data-name="Développé couché"><path class="cls-1" d="M196.61,194.54a8.77,8.77,0,0,0,1.68,5.25c1.87,2.47,5,3.4,5.8,3.7a39.79,39.79,0,0,1,5.3,2c1.6.8,4.2,1.9,4,2.8-.1.6-1.5.8-3.2.9-5.5.4-9-1.4-13.4-1.8-7.2-.8-8.8-.4-9.9-.9-.1-.1-.3-.2-.5-.4-1-1.1-.3-2.8.3-5.4.13-.59.17-.89.22-1.09a24.68,24.68,0,0,0,.7-4.06s0-.45,0-1c-.21-6.27-6-21-6-21-2.59-7.93-4.2-12.88-5-20-.34-3.1-1-13.33-1-14v0a1.52,1.52,0,0,0-.93-1.12h0c-2.38-.52-4.73-1.16-7.07-1.88l-1.7-.61"/><path class="cls-1" d="M176.61,189.54a8.71,8.71,0,0,0,1,5.09c1,1.85,2.51,2.94,5.25,4.43,1.58.86,2.4,1.1,3.79,1.92"/><path class="cls-2" d="M51.61,119.54c-.17-.43-5.3-.55-7-1a34.45,34.45,0,0,1-4.34-1.48l1.17-2.76a9.5,9.5,0,0,0,.17-2.76c-.1-1.28-.2-2.46-1-3s-1.33-.16-3,0a18.83,18.83,0,0,1-3.48,0c-.82-3.14-1.8-3.88-2.52-4-1-.18-1.5.84-4,2a9.74,9.74,0,0,1-4,1.18c-2.42,0-2.64-1.3-5-1.18a13.71,13.71,0,0,0-4,1l0,0"/><path class="cls-2" d="M51.61,137.54a41.78,41.78,0,0,1-3.52-4,8.27,8.27,0,0,1-1.48-3,10.62,10.62,0,0,1,3-9l2-2"/><path class="cls-2" d="M21.61,137.54c-1.47.05-1.73-.06-5,0a24,24,0,0,1-3,0,11.63,11.63,0,0,1-5-2,16.92,16.92,0,0,1-6-6,17.57,17.57,0,0,1-2-6c-.39-2.16-1.19-6.55,1-11a13.45,13.45,0,0,1,2-3c3.53-3.86,9.65-5.5,11-3.83.23.28.31.63.21,1.8-.34,3.86-1.66,5.27-2.21,8-.21,1.07-1,5,1,7,1.23,1.23,2.29.5,5,2,2.53,1.39,2.37,2.43,4,3,2.95,1,4.45-2.05,8-2,5.39.07,10.64,7.28,9.69,8.72a.77.77,0,0,1-.42.28,17.38,17.38,0,0,1-5.27,1c-.16,0,.16,0-6,1A64.11,64.11,0,0,1,21.61,137.54Z"/><path class="cls-2" d="M129.41,137.54l-13.8-29a35.37,35.37,0,0,0-12,0c-3.41.59-4.76,1.35-7.52,1.82-3.23.55-8,.65-14.48-1.82l-.56-.09"/><path class="cls-2" d="M164.61,113.54c7.13,1.3,18,3.49,25,6a7.47,7.47,0,0,1,2,1c2.64,1.85,4.16,5.53,4,18-.11,8.57-.88,11.08-1,22,0,0,0,2.45,0,5,0,4.23.66,14.84,2,29"/><path class="cls-2" d="M129.41,137.54l36.5-1.61a24.1,24.1,0,0,1-3.28-9.24,24.37,24.37,0,0,1,2-13.15,86.62,86.62,0,0,0-17-5,88.19,88.19,0,0,0-32,0"/><path class="cls-2" d="M175.61,140.54c-6,8.12-7.09,14.58-7,19,.06,2.91.6,2.57,1,8a63.24,63.24,0,0,1-1,18c-.35,1.69-.73,3.07-1,4"/><path class="cls-2" d="M40.18,134.47l7.91-1"/><path class="cls-2" d="M60.49,113.54c-1.62,1.1-3.24,2.22-4.88,3.32l-4,2.68"/><path class="cls-2" d="M176.61,189.54q2.5-8,5-16"/><path class="cls-1" d="M185.88,205.16v.06s-8.47-2.74-10.8-3.26c-.52-.12-2.29-.59-5-1.14-2.93-.58-3.94-.62-4.65-1.07-.09-.11-.27-.24-.44-.46-.83-1.08,0-2.76,1-5.32.4-1,1-2.52,1.65-4.43"/><path class="cls-1" d="M169.61,137.54H56.26"/><line class="cls-1" x1="55.61" y1="143.54" x2="169.61" y2="143.54"/><line class="cls-1" x1="1.61" y1="143.54" x2="55.61" y2="143.54"/><line class="cls-1" x1="1.61" y1="137.54" x2="56.61" y2="137.54"/><line class="cls-1" x1="169.61" y1="143.54" x2="169.61" y2="137.54"/><line class="cls-1" x1="1.61" y1="137.54" x2="1.61" y2="143.54"/><line class="cls-2" x1="16.61" y1="143.54" x2="16.61" y2="209.54"/><line class="cls-2" x1="20.61" y1="143.54" x2="20.61" y2="209.54"/><line class="cls-3" x1="16.61" y1="209.54" x2="20.61" y2="209.54"/><line class="cls-2" x1="156.61" y1="143.54" x2="156.61" y2="209.54"/><line class="cls-2" x1="160.61" y1="143.54" x2="160.61" y2="209.54"/><line class="cls-3" x1="156.61" y1="209.54" x2="160.61" y2="209.54"/><line class="cls-1" x1="56.61" y1="137.54" x2="55.61" y2="137.54"/><path class="cls-4" d="M64.45,54.22a18,18,0,1,1,9.16-15.68,17.95,17.95,0,0,1-9.16,15.68"/><circle class="cls-4" cx="55.61" cy="38.54" r="12"/><circle class="cls-4" cx="55.61" cy="38.54" r="3"/><path class="cls-2" d="M56.52,56.54c.08.18.25.54.45,1C64,72.77,67.1,75.4,68.11,82a28,28,0,0,1-.5,10.5c-1.29,6-3.42,7.26-5.72,15.88-1,3.71-1,4.19-1.78,6.62-1.9,5.71-3,6.53-3,10,0,1.95,0,7.27,4,10,3.45,2.35,7.93,1.43,10.59,0,3.1-1.67,4.46-4.41,5.94-7.5.52-1.09,2.28-4.87,3-12,.44-4.48.11-6.77,0-11a122.25,122.25,0,0,1,1-17c.46-6.66-2.28-17.09-17.06-33.3"/><path class="cls-2" d="M82.08,49.41s14.84,3.13,18.42,15.67c2.45,8.6,1,10,1,10"/><path class="cls-2" d="M51.07.63C53.43.24,67.9-1.92,77.61,7.54a24.33,24.33,0,0,1,5,7"/></g></g></svg>