<svg xmlns="http://www.w3.org/2000/svg" viewBox="0 0 150.32 261.05"><defs><style>.cls-1,.cls-2,.cls-3{fill:none;stroke:#000;stroke-width:0.28px;}.cls-1,.cls-3{stroke-miterlimit:10;}.cls-2,.cls-3{stroke-linecap:round;}.cls-2{stroke-linejoin:round;}</style></defs><g id="Calque_2" data-name="Calque 2"><g id="Haltères"><g id="Haltères-2" data-name="Haltères"><path class="cls-1" d="M51.78,115.67A109,109,0,0,1,49,99.07c-1.2-12.6.8-16-.5-30.9a123.88,123.88,0,0,0-2.3-15.7c-.8-3.8-1.6-7-2.3-9.3a27.31,27.31,0,0,1,7-3.2c4.4-1.5,9.6-3.3,13-1,1.2.9,1.1,1.4,3.4,6.3,2.9,5.8,4.4,8.7,5.8,8.6,2.3-.1,4.3-5.9,5.4-8.8,1-2.7,1.1-4.2,2.6-5.3.4-.3,1.5-1,5.6-1.1s6.3-.1,8.7,1a14.34,14.34,0,0,1,6.9,6.3,58.54,58.54,0,0,0-5.6,15.6c-1,4.6-1.2,8.6-.9,25,.1,6.6.3,12.2.4,16.3"/><path class="cls-2" d="M19.88,95.57a20.36,20.36,0,0,1-4.6-.4,18.82,18.82,0,0,1-11-6.4,19.42,19.42,0,0,1-4.1-13.3"/><path class="cls-2" d="M35.78,92a30.2,30.2,0,0,1-2,4.2,19.55,19.55,0,0,1-9.8,8,19.2,19.2,0,0,1-13.9-1"/><path class="cls-2" d="M150.18,127.07a18.3,18.3,0,0,1-20.4,14.1,19,19,0,0,1-4.5-1"/><path class="cls-2" d="M92.94,115.27c-13.75.1-27.41.1-41.06.1a372.4,372.4,0,0,0-7.7,39c-1.7,11.2-1.7,14-2.3,21.1,0,0-.5,4-1.1,9.3-2.1,16.2-9.4,57.9-2.6,60.8a21.13,21.13,0,0,0,3.2.9,24.33,24.33,0,0,0,6.1.1c7.4-1.1,13.9-43.5,17.9-61.4.2-1,1.1-5.2,2.4-11.1.8-3.9,1.9-8.9,3-14.4,1.3-6.5,2.2-11.9,3-15.8a14.45,14.45,0,0,1,.9,2.9s5.8,19.6,9.5,38.7c5.5,28.8,6.1,59,12.8,60.9a18.66,18.66,0,0,0,5.4.5,16.63,16.63,0,0,0,6.4-1.7,364.75,364.75,0,0,0-.1-61.9c-2.1-25.2-11.6-65.31-11.6-65.31"/><path class="cls-1" d="M115.38,112.77c.2-5.6.1-10.3.1-13.7-.2-10.3-.3-15.7-1.8-23-.3-1.36-.6-2.58-.91-3.74-.22-.8-.44-1.57-.67-2.34,0,0-.67-2.23-1.52-4.62s-3.87-9.72-8.3-19.4"/><path class="cls-1" d="M107.45,112.64s-.77-9.07-1-11.77c-.6-8.3-.6-10.3-1.6-14-.9-3.3-1.4-4-3.6-9.2-1.3-3.2-3.2-8.1-5-14.1"/><path class="cls-1" d="M32.38,58.77c-.1-1.1-.2-3.1-.5-5.6-1.7-14.3-5-19.4-2-23.6.9-1.2,2.5-2.8,2.6-5.4a5.34,5.34,0,0,0-.8-3.2,7.22,7.22,0,0,0-3.3-2.7,8.93,8.93,0,0,0-2.9-.3,7.3,7.3,0,0,0-4.2.9,10.28,10.28,0,0,0-1.7,1.4c-2.2,2.6-1.6,6.1-1.5,7,.4,1.5,1,4,1.5,7,1.3,7,1.5,12.5,2.4,26,.5,9.3.9,13.9,2.9,14.7,1.3.4,3.4-.9,7.7-3.7a41.62,41.62,0,0,0,8.4-6.4,40.91,40.91,0,0,0,6.1-7.3"/><path class="cls-1" d="M32.07,54.39,43.88,43.17"/><path class="cls-3" d="M18.08,27.27H8.68"/><path class="cls-3" d="M18.58,29.37c-3.3,0-6.7,0-10,.1"/><path class="cls-3" d="M5.78,34.87V22.47a1,1,0,0,0-.68-.35,1,1,0,0,0-.82.35v12.4a1.24,1.24,0,0,0,1.5,0Z"/><path class="cls-3" d="M8.48,38.67V18a.87.87,0,0,0-.68-.89.87.87,0,0,0-.92.89v20.7a.91.91,0,0,0,.86.52A.88.88,0,0,0,8.48,38.67Z"/><path class="cls-3" d="M119.68,112.77h8.1"/><path class="cls-3" d="M116.64,114.87l11.14.1"/><path class="cls-3" d="M129.48,124.27v-20.6a.79.79,0,0,0-.69-.55.8.8,0,0,0-.81.55v20.6a.76.76,0,1,0,1.5,0Z"/><path class="cls-3" d="M130.78,120.17v-12.4a.75.75,0,0,1,1.5,0v12.4a.85.85,0,0,1-.82.94A.83.83,0,0,1,130.78,120.17Z"/><line class="cls-3" x1="129.68" y1="112.77" x2="130.68" y2="112.77"/><path class="cls-3" d="M132.48,112.77h1.8a1.07,1.07,0,0,1,0,2.1h-2"/><line class="cls-3" x1="130.78" y1="114.97" x2="129.48" y2="114.97"/><line class="cls-3" x1="6.88" y1="27.27" x2="5.78" y2="27.27"/><path class="cls-3" d="M4.28,27.17H1.88a1.16,1.16,0,0,0,0,2.2h2.4"/><line class="cls-3" x1="5.78" y1="29.37" x2="6.88" y2="29.37"/><path class="cls-3" d="M39.48,27.67H31.42"/><path class="cls-3" d="M39.58,29.77H29.84"/><path class="cls-3" d="M42.38,35.27V22.87a.7.7,0,1,1,1.4,0v12.4a.71.71,0,1,1-1.4,0Z"/><path class="cls-3" d="M39.68,39V18.37a.8.8,0,1,1,1.5,0V39a.82.82,0,0,1-.83.88A.8.8,0,0,1,39.68,39Z"/><line class="cls-3" x1="42.38" y1="27.67" x2="41.18" y2="27.67"/><path class="cls-3" d="M43.78,27.67h2.5a1,1,0,0,1,0,2h-2.5"/><line class="cls-3" x1="41.18" y1="29.77" x2="42.38" y2="29.77"/><path class="cls-3" d="M119.68,112.77H97.28"/><path class="cls-3" d="M105.38,115h-8.2"/><path class="cls-3" d="M90.48,112.77a1.16,1.16,0,0,0-1.1,1,1.18,1.18,0,0,0,.9,1.2h.1"/><path class="cls-3" d="M94.38,120.47v-12.4a.8.8,0,0,0-.63-.91.8.8,0,0,0-.77.91v12.4a.7.7,0,0,0,1.4,0Z"/><path class="cls-3" d="M97.08,103.57v20.7a.76.76,0,1,1-1.5,0v-20.7a.85.85,0,0,1,.52-.45A.9.9,0,0,1,97.08,103.57Z"/><line class="cls-3" x1="95.58" y1="112.87" x2="94.38" y2="112.87"/><line class="cls-3" x1="90.48" y1="112.77" x2="92.98" y2="112.77"/><line class="cls-3" x1="90.28" y1="114.97" x2="92.98" y2="114.97"/><line class="cls-3" x1="94.38" y1="114.97" x2="95.58" y2="114.97"/><path class="cls-1" d="M76.68,31.87a7.73,7.73,0,0,0,1.2,5,8.63,8.63,0,0,0,3.3,2.9"/><path class="cls-3" d="M105,115.67a2.75,2.75,0,0,1,1.1-1.2c1.4-.8,2.6.3,5.3.4s3.6-.9,5.2,0a2.28,2.28,0,0,1,1.3,1.3c.4,1.3-1,2.7-1.1,2.8-1.6,1.5-4.1,1.3-7,1.1-2.7-.2-4.2-.3-5-1.5A3.74,3.74,0,0,1,105,115.67Z"/><path class="cls-2" d="M104.88,86.77s2.4-2.9,4.1-1.9"/><path class="cls-2" d="M84,18c-.6-5.8-3.8-10.7-8.3-12.3a11,11,0,0,0-5.8-.4A12.33,12.33,0,0,0,66,6.87a14.38,14.38,0,0,0-5.4,6.6,7.07,7.07,0,0,0-.5,1.6c-.2.4-.4,1-.6,1.4a6.55,6.55,0,0,1-.5-1.8,8.6,8.6,0,0,1-.1-1.6,24.27,24.27,0,0,0-.3-2.5c-.2-1.9,1.1-3.8,1.9-5a10.93,10.93,0,0,1,5.3-4.1,15.13,15.13,0,0,1,11-.5,15.39,15.39,0,0,1,6.3,4.2,17.16,17.16,0,0,1,1.7,8.1A12.42,12.42,0,0,1,84,18Z"/><path class="cls-2" d="M60.58,13.37c.09.76.75,6.25,1.2,9.2a13.89,13.89,0,0,0,.32,1.55,20.57,20.57,0,0,0,1.42,3.29c.2.4.49,1,.86,1.66l.9,1.4c.81,1.27.82,1.29.9,1.4a3.66,3.66,0,0,0,.86.81,7.82,7.82,0,0,0,2.24.89,6.59,6.59,0,0,0,4.2,0c.41-.18,1.09-.54,1.2-.6.38-.21.82-.47,1.7-1,.52-.31.62-.38.75-.47s.52-.44,1.05-.83a6.58,6.58,0,0,0,1.5-1.7,15.73,15.73,0,0,0,2.2-5.2,12.88,12.88,0,0,1,.6-2.5A16.36,16.36,0,0,1,84,18"/><path class="cls-3" d="M38.28,246a9.56,9.56,0,0,1-1.6,5.5c-1.7,2.3-4.5,3.1-5.8,3.7-2,.9-2.8.9-5.3,2-1.6.8-4.2,2-4,2.8.1.5,1.5.8,3.2.9,5.6.3,8.9-1.3,13.4-1.8,7.2-.8,8.8-.3,9.9-.9.1-.1.3-.2.5-.4.9-1,.2-2.8-.3-5.4-.3-1.3-.2-1.2-.3-1.5a24.07,24.07,0,0,1-.4-4"/><path class="cls-3" d="M107.3,246a9.56,9.56,0,0,0,1.6,5.5c1.7,2.3,4.5,3.1,5.8,3.7,2,.9,2.8.9,5.3,2,1.6.8,4.2,2,4,2.8-.1.5-1.5.8-3.2.9-5.6.3-8.9-1.3-13.4-1.8-7.2-.8-8.8-.3-9.9-.9-.1-.1-.3-.2-.5-.4-.9-1-.2-2.8.3-5.4.3-1.3.2-1.2.3-1.5a24.07,24.07,0,0,0,.4-4"/></g><path class="cls-1" d="M67,32.68a11.86,11.86,0,0,1-.86,2.69,13.09,13.09,0,0,1-.7,1.3,16.34,16.34,0,0,1-1.67,2.25"/></g></g></svg>