<svg xmlns="http://www.w3.org/2000/svg" viewBox="0 0 309.67 176.64"><defs><style>.cls-1,.cls-2,.cls-3{fill:none;stroke:#000;stroke-width:0.28px;}.cls-1,.cls-3{stroke-linecap:round;}.cls-1,.cls-2{stroke-miterlimit:10;}.cls-3{stroke-linejoin:round;}</style></defs><g id="Calque_2" data-name="Calque 2"><g id="Rameur"><g id="Rameur-2" data-name="Rameur"><path class="cls-1" d="M131.84,129.69c-.7,1.1-2.4,3.5-5,3.8a9.64,9.64,0,0,1-4.7-.9c-1.5-.5-1.9-.9-3.7-1.5-1.2-.4-3.1-1-3.4-.5s.4,1.1,1.3,2c2.7,2.8,5.3,3.6,7.8,5.5,4.8,3.6,4.8,4.3,6,4.3,1.7,0,4.2-1.5,7.4-9.2a6.65,6.65,0,0,1-4-1.4A4,4,0,0,1,131.84,129.69Z"/><path class="cls-1" d="M207.54,12.29c-1.5,1.7-.7,5.1.4,10.5a6.06,6.06,0,0,1,.1,3.3c-.3,1.3-1,1.6-.9,2.6s.7,1.1,1.8,2.4a41.87,41.87,0,0,1,2.6,4.3c1.4,2.5,1.5,2.6,1.7,2.7.7.5,1.6.6,6.1-.4a31.81,31.81,0,0,0,6.9-2.1,9.31,9.31,0,0,0,3.2-2.2A8,8,0,0,0,231,30c.4-2.2-.6-3.9-1.6-6-2.9-6.3-1.1-6.9-3.3-9.6-3.3-4.1-8.8-4.4-9.7-4.5a17.69,17.69,0,0,0-6.6,1.2C208.64,11.59,207.94,11.79,207.54,12.29Z"/><path class="cls-2" d="M206.94,13.09a14.31,14.31,0,0,1,5.2-5.4c5.7-3.4,11.9-1.3,13-1a16.62,16.62,0,0,1,6.6,4.2c2.1,2,5.9,5.6,5.8,10.7-.1,6.8-6.9,10.8-7.3,11.1"/><path class="cls-1" d="M231.74,10.89c.3-2,1.5-3.4,2.9-3.6s2.6,1.2,3.2,1.8c1.8,2.2,2.5,5.9,1,6.9-.2.2-1,.6-2.9-.1"/><path class="cls-2" d="M235.64,7.29c.3-1.3,1.5-5.6,4.7-6.8,5.4-2.1,14.3,5.6,14.2,12.5a6.48,6.48,0,0,1-.4,2.2c-1.9,6.4-9.7,6.9-10,10.9-.2,2.4,2.8,4.1,2.4,4.5s-5.9-2-6.4-5.7c-.5-4,5.4-5.8,5.5-11.3.1-2.8-1.4-5.4-2.2-5.3-1.3.1-1.5,6.5-3.3,6.6a4.33,4.33,0,0,1-.5-.1"/><path class="cls-2" d="M230.24,32.59c-.8,5.6.4,8.7,1.7,10.6,1.6,2.3,3.5,2.8,6.1,6.2a16.68,16.68,0,0,1,3.3,5.9c6.1,18.9,9.1,28.3,9.6,34.9,1,13.9,2.4,33.1-7.7,38.9-5.3,3-11.5,1.2-14.6.3-15.5-4.6-24.2-21.7-41.7-36.4-1.4-1.2-3.7-3.1-6.4-2.8-5,.6-5.9,8.2-12.9,16.5-3.2,3.8-4.3,3.7-12,10a208.65,208.65,0,0,0-18.3,16.9"/><path class="cls-1" d="M222.24,37.09c1.8,6.4.8,9-.5,10.2-.8.8-1.6.7-3.6,1.5a25.45,25.45,0,0,0-6.9,4.2c-4.5,3.3-13,5.2-18.6,6.5-9.2,2.1-19.3,4.5-31,7.3a13.57,13.57,0,0,1-1.8-.1,32.9,32.9,0,0,1-3.6-.6c-2.4-.3-5.1.4-5.2,1.3-.1.5,1,1,.9,1.9,0,.3-.1.3-.2.6a2.66,2.66,0,0,0,1,2.1c.7.8,1,1.2,1.4,1.2,1,0,1.1-2.1,2.6-2.6,1-.3,1.1.4,3.1.4a19.66,19.66,0,0,0,3.6-.6,10.63,10.63,0,0,0,1.4-.3c8.2-1,14.9-1.4,19.5-1.6,15.4-.7,22.8.3,33.4-3.3a63.2,63.2,0,0,0,10.4-4.7"/><path class="cls-1" d="M131.84,129.69c13.6-18.2,27.3-36.3,40.9-54.5,1.1-1.8,3.2-4.8,6.7-5.8,1.6-.4,4.4-1.2,11.5,3.5,15.9,10.4,23.2,16.8,23.2,16.8,6.3,5.5,12.5,11.1,18.8,16.6"/><path class="cls-1" d="M219.74,64.49c-2,3.2-4,7.8-2.6,12.1,1.3,3.7,4.3,4.5,6.3,8.5,1.3,2.6,2.4,6.8.6,13.6"/><line class="cls-1" x1="218.94" y1="136.19" x2="254.54" y2="136.19"/><line class="cls-1" x1="129.64" y1="143.69" x2="306.44" y2="144.09"/><line class="cls-1" x1="117.14" y1="152.79" x2="306.34" y2="152.99"/><line class="cls-1" x1="114.04" y1="131.29" x2="140.84" y2="152.59"/><line class="cls-1" x1="117.14" y1="152.79" x2="104.94" y2="142.59"/><line class="cls-1" x1="114.04" y1="131.29" x2="104.94" y2="142.59"/><line class="cls-1" x1="108.24" y1="137.89" x2="64.94" y2="103.49"/><line class="cls-1" x1="106.24" y1="140.29" x2="63.34" y2="106.19"/><circle class="cls-1" cx="34.44" cy="87.79" r="34.3"/><circle class="cls-1" cx="34.44" cy="87.79" r="23.8"/><circle class="cls-1" cx="34.44" cy="87.79" r="2.3"/><line class="cls-1" x1="79.04" y1="77.19" x2="74.24" y2="69.19"/><line class="cls-1" x1="79.04" y1="77.19" x2="79.64" y2="115.19"/><line class="cls-1" x1="74.24" y1="69.19" x2="74.74" y2="111.09"/><line class="cls-1" x1="284.44" y1="174.29" x2="282.14" y2="153.09"/><line class="cls-1" x1="287.44" y1="153.19" x2="287.04" y2="174.39"/><path class="cls-3" d="M218.94,130.79h35.6v5.4"/><path class="cls-1" d="M155.14,72.29l2.4,2.4"/><path class="cls-2" d="M157.44,70.59l3.1,3.1c0,.1.1.2.1.3-.1.6-1.1,1-1.2,1a2.33,2.33,0,0,1-2-.4"/><path class="cls-2" d="M152.24,65.09c-.2-.3-.4-.5-.6-.8a1.57,1.57,0,0,0-.9-.1c-.1,0-.2,0-1,.6a3.61,3.61,0,0,0-.5.4c-.1.4.6.8.7.8"/><path class="cls-1" d="M164.74,66.09a16.65,16.65,0,0,1-3.9,0,48.39,48.39,0,0,1-5-.7c-2-.3-2.9-.5-4.2-.1-.9.2-2,.8-2,1.2a.68.68,0,0,0,.3.5c.1.1.3,0,.5.1a.72.72,0,0,1,.6.4"/><line class="cls-2" x1="306.44" y1="144.09" x2="306.34" y2="152.99"/><line class="cls-1" x1="244.04" y1="136.39" x2="244.14" y2="143.89"/><line class="cls-1" x1="230.04" y1="136.39" x2="230.14" y2="143.89"/><line class="cls-1" x1="151.54" y1="68.59" x2="77.44" y2="74.39"/><line class="cls-1" x1="151.94" y1="71.49" x2="79.04" y2="77.19"/><line class="cls-1" x1="74.24" y1="74.69" x2="66.44" y2="75.49"/><line class="cls-1" x1="74.04" y1="77.49" x2="67.24" y2="77.99"/><path class="cls-3" d="M283.44,98.69a22,22,0,0,1,1,9.6,15.91,15.91,0,0,1-2.7,7.5,15.72,15.72,0,0,1-5.4,4.9,17.39,17.39,0,0,1-5.2,2"/><path class="cls-3" d="M271.24,75.29a16.48,16.48,0,0,1,5.1,9,16.67,16.67,0,0,1-3.5,13.2"/><path class="cls-1" d="M302.84,169.49h0l6.5,6.8h-32.7c2.4-2.3,4.9-4.5,7.3-6.8"/><path class="cls-1" d="M287.14,169.49h12.5"/><line class="cls-1" x1="284.44" y1="174.29" x2="287.04" y2="174.39"/><line class="cls-1" x1="299.24" y1="152.99" x2="299.74" y2="174.49"/><path class="cls-1" d="M299.74,174.49l2.1,0,.4,0,2.3-21.5"/><path class="cls-1" d="M43.14,169.69c2.2,2.3,4.5,4.5,6.7,6.8H17.14l7.6-6.7"/><path class="cls-1" d="M27.74,169.69h12.5"/><line class="cls-1" x1="41.84" y1="174.59" x2="57.84" y2="112.89"/><line class="cls-1" x1="49.54" y1="118.59" x2="39.34" y2="174.59"/><path class="cls-3" d="M10.34,112.19,26,174.69c2.8-.18,2.5-.1,2.5-.1-3.5-18.8-6.9-37.7-10.4-56.6"/><line class="cls-1" x1="41.84" y1="174.59" x2="39.34" y2="174.59"/><path class="cls-3" d="M218.84,130.82v5.33"/></g></g></g></svg>