<svg xmlns="http://www.w3.org/2000/svg" viewBox="0 0 197.28 237.18"><defs><style>.cls-1,.cls-2{fill:none;stroke:#000;stroke-miterlimit:10;stroke-width:0.28px;}.cls-2{stroke-linecap:round;}</style></defs><g id="Calque_2" data-name="Calque 2"><g id="Tapis_course" data-name="Tapis course"><path class="cls-1" d="M101.14,92.28a88.45,88.45,0,0,0,3-13,87.42,87.42,0,0,0,1-11"/><path class="cls-1" d="M97.44,101.2c6.82,2.62,15.5,5.59,25.38,8.62,2.1,2.25,5.41,4,8.31,2.21.27-.19,2.8-2,2.69-4.77a4.29,4.29,0,0,0-.76-2.36,4.42,4.42,0,0,0-2.22-1.59,6.16,6.16,0,0,0-4.43.19c-6.41-2.67-11.38-4.68-14.55-6-4.77-1.92-7.41-3-10.57-5.29a31.83,31.83,0,0,1-6.61-6.61,46.42,46.42,0,0,1,7.93-14.54c4.92-6,9.53-8.36,11.24-14.55a18.58,18.58,0,0,0,0-9.25,6.17,6.17,0,0,0-1.33-2,6.53,6.53,0,0,0-2-1.32,7.58,7.58,0,0,0-2.64-.66,7.73,7.73,0,0,0-4.63,1.32"/><path class="cls-1" d="M97.4,101.29S94,109.39,94,109.45l27.11,6.61c.11-.81.22-1.64.31-2.49.07-.6.36-2.24.68-4"/><path class="cls-1" d="M106.15,20.49a18.36,18.36,0,0,1,3.73,5.66c1.29,2.68-.19,5.73-2.64,11.24a41.87,41.87,0,0,1-4.63,7.93,96,96,0,0,0-5.6,9c-1.57,2.83-2.38,5-3,6.25C91.36,66,87.33,74,81.45,85a11.58,11.58,0,0,0-.66,5.29,12.62,12.62,0,0,0,.66,2.64c.63,1.64,6.53,4.64,16,8.28"/><path class="cls-1" d="M123.1,102.18c.19-1.62.56-4.46,1.32-7.94,2.64-12,6.42-15.81,7.94-26.44.64-4.52,1-7.47,0-11.24-1.78-6.47-7.16-11.79-7.94-12.56-6.19-6.13-6.59-7.53-6.61-8.59a11,11,0,0,1,.33-2.13c.62-2.93.82-2.82,1-3a4.65,4.65,0,0,1,3-1c.72-.05.63.08,1,0,.55-.13,1.1-.49,3-3,.44-.58.61-.83,1-1,.89-.4,1.46.25,2,0,1.13-.52-.39-3.74,1-7,.63-1.47,1-1,2-3a16.19,16.19,0,0,0,1.08-2.88l.09-.21"/><path class="cls-1" d="M94,109.45a25.84,25.84,0,0,0-.87,12.83,28.31,28.31,0,0,0,5,11c1.69,2.43,2.64,3,7,8,2.55,2.94,4.63,5.38,6,7a205.77,205.77,0,0,1,18.41,36.45,207.08,207.08,0,0,1,8.71,28.64l9.32-1.54c-4-16.84-6.74-31.33-8.64-42.79-1.08-6.54-1.36-8.91-2.22-13a131.28,131.28,0,0,0-15.6-39.95"/><path class="cls-1" d="M113.19,151.76C96.79,169.6,89.62,172,86.74,172.25l-3,.28c-7,.62-12.18.81-13.19.89q-22.35,1.65-43.44,4.24c-.2-3.15-.39-6.29-.59-9.44q14.43-2.64,29.38-5.75,13.13-2.72,25.72-5.63L97,132.49l.13-.21h0c0-.1.06-.19.08-.29"/><path class="cls-1" d="M132.36,67.8q6-1.35,12.1-2.68l9.36-2c1.89-2.16,4.71-3.78,7.51-2.4,2.32,1.57,4.11,3.93,2.65,6.89a4.74,4.74,0,0,1-2,1.81c-1.34.58-2.34.2-4.46.37a15.2,15.2,0,0,0-3.31.67c-1.06.45-2.67,1.13-4.63,2-3.68,1.59-6.07,2.65-6.74,2.94a79.57,79.57,0,0,1-13.75,4.33"/><path class="cls-2" d="M154.37,217.9c-.39-.06-.93-.16-1.58-.32-2-.49-3.67-.92-4.77-2.23a5.27,5.27,0,0,1-1.12-3.43"/><path class="cls-2" d="M139,213.24a4,4,0,0,1,.65,1.29,4.09,4.09,0,0,1,.11,1.85c0,.26,0,.16,0,1.26-.05,2.19-.3,3.67.59,4.43.18.13.34.19.42.26.61.18,1.33,0,3.52-.28a23.56,23.56,0,0,1,3.81-.32c.69,0,1.35.08,2.79.1h1.32l1.2,0"/><path class="cls-2" d="M26.5,169a13.3,13.3,0,0,1-1.65.24,18.54,18.54,0,0,1-1.86,0l-1.26,0c-3.18-.15-4-.16-4.45.41-.14.17-.2.33-.27.41-.3.86.2,2,.29,7.34.13,3.26-1,6-.08,10,.26,1.23.57,2.23,1.07,2.23.76,0,1.39-2,1.88-3.25a26.82,26.82,0,0,0,1.08-4.11c.28-1,.7-3.48,2.43-4.67a4.8,4.8,0,0,1,3.31-.71"/><line class="cls-2" x1="147.56" y1="100.85" x2="176.65" y2="83.67"/><line class="cls-2" x1="176.65" y1="50.61" x2="176.65" y2="83.67"/><line class="cls-2" x1="176.65" y1="50.61" x2="172.68" y2="54.58"/><line class="cls-2" x1="172.68" y1="54.58" x2="172.68" y2="81.02"/><line class="cls-2" x1="147.56" y1="100.85" x2="147.56" y2="96.23"/><line class="cls-2" x1="172.68" y1="81.02" x2="147.56" y2="96.23"/><line class="cls-2" x1="177.97" y1="208.61" x2="150.87" y2="98.87"/><line class="cls-2" x1="189.21" y1="208.61" x2="161.44" y2="92.92"/><path class="cls-2" d="M149.54,237l3.87-15.11q1.69-6.66,3.41-13.32"/><line class="cls-2" x1="156.82" y1="208.61" x2="197.14" y2="208.61"/><line class="cls-2" x1="197.14" y1="208.61" x2="197.14" y2="237.04"/><line class="cls-2" x1="197.14" y1="237.04" x2="149.54" y2="237.04"/><line class="cls-2" x1="152.85" y1="223.81" x2="6.09" y2="223.15"/><line class="cls-2" x1="6.09" y1="223.15" x2="0.14" y2="229.76"/><path class="cls-2" d="M150.2,237H62.94v-7.28h88.42"/><rect class="cls-2" x="6.09" y="229.76" width="21.15" height="7.27"/><line class="cls-2" x1="0.14" y1="229.76" x2="6.09" y2="229.76"/><line class="cls-2" x1="27.25" y1="229.76" x2="62.94" y2="229.76"/><path class="cls-1" d="M130.14,11.28a14.25,14.25,0,0,0-2-2c-.67-.55-5.58-4.59-10-3a10.57,10.57,0,0,0-3,2c-2.08,1.68-2.06,2.35-4,4-2.24,1.89-3,1.65-4,3a7.13,7.13,0,0,0-1,5,10,10,0,0,1,0-12,16.34,16.34,0,0,1,8-7,16.48,16.48,0,0,1,12,0l4,2a7.94,7.94,0,0,1,4,5,7,7,0,0,1,0,3,2.16,2.16,0,0,1-1,1A2.68,2.68,0,0,1,130.14,11.28Z"/><path class="cls-1" d="M69.83,74.43a18.73,18.73,0,0,0-6.19,14.35,18.49,18.49,0,0,0,6.19,12.74"/><path class="cls-1" d="M108.06,183.46a23,23,0,0,1-25.44,6.13"/></g></g></svg>