<svg xmlns="http://www.w3.org/2000/svg" viewBox="0 0 184.32 243.14"><defs><style>.cls-1,.cls-2{fill:none;stroke:#000;stroke-miterlimit:10;stroke-width:0.28px;}.cls-2{stroke-linecap:round;}</style></defs><g id="Calque_2" data-name="Calque 2"><g id="Squat"><path class="cls-1" d="M65.94,68.61a18.54,18.54,0,0,1-.83-9.16,11.38,11.38,0,0,1,1.67-5c3.3-4.84,10-3.53,10.82-6.66.41-1.68-1.41-2.44-1.67-6.66a4.15,4.15,0,0,1,.83-3.33A3.21,3.21,0,0,1,78.43,37a1.39,1.39,0,0,0,.83-.83c.21-.83-.91-1.7-1.66-2.49-1.46-1.54-1.56-2.81-2.5-5a27.45,27.45,0,0,0-5-7.49,11.6,11.6,0,0,0-1.27-.38,12.53,12.53,0,0,0-11.21,2.88,10.59,10.59,0,0,0-3.33,5.82c-.3,1.9.18,3.23-.83,4.17s-2.22.41-3.33,1.66A3.76,3.76,0,0,0,49.29,37,5.19,5.19,0,0,0,50,40.44a57.85,57.85,0,0,1,3.5,9,21.72,21.72,0,0,1,.83,6.66A26.45,26.45,0,0,1,51,68.61"/><path class="cls-1" d="M70.1,21.16a3.76,3.76,0,0,0,.84-2.5C70.63,15,62.93,12,56.79,12a21,21,0,0,0-16.65,8.33A22.63,22.63,0,0,0,36,32.81a7.74,7.74,0,0,0,0,.84,16.77,16.77,0,0,0,4.54,10.49,17.35,17.35,0,0,0,12.67,5.08"/><path class="cls-1" d="M65.94,68.61a15.85,15.85,0,0,0-5-1.67,16.69,16.69,0,0,0-10,1.67,17.57,17.57,0,0,0-5,9.15c-1.13,6.58,3.21,9.22,5.83,19.15,1.26,4.75,3.87,14.62-.83,22.48-2.15,3.59-5.92,6.93-7.49,8.32-2.88,2.55-3.66,2.63-7.49,5.83-4.45,3.7-6.69,5.54-8.33,8.32-1.21,2.07-4.12,7-2.5,12.49,1.21,4.08,4.31,6.36,5.83,7.49,4.29,3.17,8.8,3.67,12.49,4.16,9,1.2,14,1.61,22.47,2.5A163.47,163.47,0,0,1,83.42,171c4.19.87,7.63,1.8,10,2.49a51.38,51.38,0,0,0-14.15,10,62.12,62.12,0,0,0-8.32,10.82c-3.38,5.16-6.33,9.49-8.33,15.82a54.34,54.34,0,0,0-2.49,17.48H70.94a87.4,87.4,0,0,1,6.66-12.48,63.29,63.29,0,0,1,12.48-15c3.17-2.7,4.71-3.37,8.33-5.83,10.91-7.41,21.09-14.33,20.81-21.64-.25-6.34-8.29-11.08-19.15-17.48a90.62,90.62,0,0,0-14.15-6.66,105.45,105.45,0,0,0-17.48-5,46.79,46.79,0,0,0,7.49-13.32,46.42,46.42,0,0,0,2.5-10.82V108.56a10.6,10.6,0,0,0,.39-1.52h0a10.4,10.4,0,0,1,1-2.51l.92-1.72c1.63-3,2.77-3.87,2.7-5.89-.09-2.83-2.49-5.83-2.49-5.83L77.6,86.92"/><path class="cls-1" d="M65.94,68.61c3,.61,7.29,1.48,12.49,2.49,9.08,1.78,13.62,2.67,17.48,3.33a280.74,280.74,0,0,0,30,3.33c5.51.38,12.56.74,20.81.84l17.48.83L170,78.6c.88-.26,8.62-2.43,12.48,1.66l.07.08a5.32,5.32,0,0,1,1.6,4.08,4.11,4.11,0,0,1-2.5,3.33,4.71,4.71,0,0,1-2.47,0,14.76,14.76,0,0,1-2.52-.82l-2.5-.83c-1.25-.42-4-.69-10.82,0-16.59,1.73-29.5,2.31-38.29,2.5-7.72.16-12.23,0-13.32,0L88.42,86.92c-9.76-.11-10.09-.1-10.82,0-7.51,1-10,4.53-13.4,4.16-3.24-.34-5.74-4-6.58-6.66C55.9,79.07,59.1,72.19,65.94,68.61Z"/><path class="cls-1" d="M41.42,18.77A16.44,16.44,0,0,1,36,18.66c-2.88-.87-5.23-4.89-5-8.32.39-5.9,8.34-9.27,13.32-10,1.14-.17,7-1,10.82,2.5.53.48,3,2.73,2.5,5A5.52,5.52,0,0,1,56,10.34,8,8,0,0,1,53.46,12l-.86.45"/><path class="cls-2" d="M70.94,227.6c-.26.58-1.86,4.29,0,7.49a7.5,7.5,0,0,0,2.49,2.5c2.23,1.46,4.22,1.33,7,1.73a31.14,31.14,0,0,1,7.18,1.94c0,.39-.53.89-1.18,1.14-3.48.19-6.45.39-8.51.48-8.25.35-2.58-.18-13.91,0-3.22.07-4.64,0-5.26-.87-1-1.43.69-3.44,1.43-7.7a21.45,21.45,0,0,0,.13-6.44"/><path class="cls-1" d="M3.28,172.23A22.45,22.45,0,0,0,11.69,187a22.5,22.5,0,0,0,22.61,2.19"/><path class="cls-1" d="M.72,141.9a18,18,0,0,0,1.8,13.48,18,18,0,0,0,16.14,8.46"/></g></g></svg>