<svg xmlns="http://www.w3.org/2000/svg" viewBox="0 0 179.19 287.45"><defs><style>.cls-1,.cls-2,.cls-3{fill:none;stroke:#000;stroke-width:0.99px;}.cls-1,.cls-2{stroke-linecap:round;}.cls-1,.cls-3{stroke-miterlimit:10;}.cls-2{stroke-linejoin:round;}</style></defs><g id="Calque_2" data-name="Calque 2"><g id="Traction"><g id="Traction-2" data-name="Traction"><path class="cls-1" d="M89.8,266.6c.9,1.3,2.9,4.4,2,7.6-.5,1.9-2,3.4-3.7,5.1-1.4,1.4-2.1,1.7-3.8,3.6-1.1,1.2-2.9,3.2-2.5,3.8s1.6.2,3.1-.4c4.9-1.7,7.3-4.3,10.9-6.2,6-3.2,7.5-3.4,8.2-4.2a2.19,2.19,0,0,0,.3-.5c.4-1.2-.8-2.5-2.2-4.5a28.34,28.34,0,0,1-2.4-3.8,14.28,14.28,0,0,1-1.2-5.3c-1.7.9-3.5,1.8-5.2,2.8A39.72,39.72,0,0,1,89.8,266.6Z"/><path class="cls-1" d="M92,273.3a5.05,5.05,0,0,1-1.3-2.1,6.54,6.54,0,0,1-.1-3.4"/><path class="cls-1" d="M93.9,281.4c.5.3,1.3.7,2.3,1.2.5.2,1.1.4,1.8.7,1.6.5,2.8.8,3.1.4.4-.6-1.5-2.8-2.5-3.8l-.5-.5"/><path class="cls-1" d="M84.2,258.7A13.78,13.78,0,0,1,83,264a23.06,23.06,0,0,1-2.4,3.8c-1.4,2-2.6,3.3-2.2,4.5a1.07,1.07,0,0,0,.3.5c.5.6,1.4.9,4.1,2.1a40.64,40.64,0,0,1,4.1,2.1c.9.5,1.6,1,2.1,1.2"/><path class="cls-2" d="M66.3,143.1c-.8,4.1-5.3,27.9-9.1,51.9a42.79,42.79,0,0,0,.1,15.7,41.42,41.42,0,0,0,5.5,13.4c8.8,14.2,17.7,28.5,26.5,42.7l9.8-5.4s-.2-.5-.5-1.3c-.7-1.9-1.3-3.3-1.4-3.5-3.3-8.3-6.1-19.9-12.5-30-3.8-6-6.5-7.7-7.5-13.2a20.63,20.63,0,0,1,.2-7.8c2.7-14.2,8.8-38.9,9.2-40.7.6-1.2,1.2-1.4,1.5-1.4,3.8-.1,7.9,22.8,11.3,41.6.5,2.9.9,5.3,1.2,6.9a9.4,9.4,0,0,1,.2,2.6c-.1,6.5-5.4,9.4-8.3,16.6a24.67,24.67,0,0,0-1.7,7.9c2.1,5.9,4.2,11.7,6.3,17.6,6.2-11.2,12.5-22.3,18.7-33.5a28.29,28.29,0,0,0,2-3.7c3.1-7.2,1.5-12.3-.8-29.6-1.5-11.1-1.5-13.4-3-21.9-.6-3.3-1.3-6.7-2.2-10.5s-2.1-8.8-3.8-14.3"/><path class="cls-2" d="M115.4,91.5a73.55,73.55,0,0,1-2.4,14.3c-1.4,5-2,5.3-2.8,9.1-1.3,6.2-.3,8.7-.7,16.9a89.55,89.55,0,0,1-1.3,11.2H66.3a65.19,65.19,0,0,1-.6-6.9c-.6-12.8,2.1-16.4,1.2-27.7a101.33,101.33,0,0,0-1.5-11.2c-.7-2.8-1.3-5.9-1.9-9.1-.6-3.4-1-6.3-1.2-8.1"/><path class="cls-2" d="M54,76.3c1.2,1.8,1.4,4.2-1.5,14-3.8,13.1-1.6,9.9-4.3,18.5a10.48,10.48,0,0,0-.6,4.9c.7,4.2,4.5,6.8,6.4,8.2,2.3,1.6,3.4,2.4,4.5,2.1,3.6-.9,4.1-10.6,4.5-17.8a139.92,139.92,0,0,0-.1-14.6c-.2-3.9-.4-6-.7-12.3-.2-3.6-.3-6.6-.4-8.6a4.71,4.71,0,0,0,.7-2.2,4.81,4.81,0,0,0-2.1-3.6,6.06,6.06,0,0,0-4.5-.6,10.92,10.92,0,0,0-4.8,2.8,2.16,2.16,0,0,0-.9,1.4c-.3,1.1.5,2.1.8,2.7C52.2,72.8,52.9,74.7,54,76.3Z"/><path class="cls-2" d="M124.3,77.3c-1.2,1.8-1.4,4.2,1.5,14,3.8,13.1,1.6,9.9,4.3,18.5a10.48,10.48,0,0,1,.6,4.9c-.7,4.2-4.5,6.8-6.4,8.2-2.3,1.6-3.4,2.4-4.5,2.1-3.6-.9-4.1-10.6-4.5-17.7a139.92,139.92,0,0,1,.1-14.6c.2-3.9.4-6,.7-12.3.2-3.6.3-6.6.3-8.6a3.8,3.8,0,0,1-.7-2.2,4.81,4.81,0,0,1,2.1-3.6,6.92,6.92,0,0,1,4.5-.7,9,9,0,0,1,3.7,2.1,8.18,8.18,0,0,1,.9.8,2.1,2.1,0,0,1,1.1,1.3,3.51,3.51,0,0,1-.8,2.7C126.1,73.7,125.4,75.6,124.3,77.3Z"/><path class="cls-3" d="M81.4,66.7a12.52,12.52,0,0,0,2.2-4.9,12.06,12.06,0,0,0,.1-5"/><path class="cls-3" d="M95.1,56.8a9.6,9.6,0,0,0-.3,6,8.85,8.85,0,0,0,2.3,3.8"/><path class="cls-2" d="M92.6,24.8a10.78,10.78,0,0,0-6,.4,12,12,0,0,0-4.8,3.3,12.1,12.1,0,0,0-3.9,6.8,4.67,4.67,0,0,0-.1,1.6c.1,1.8.9,3.3,1.9,8.2,1.2,5.8.5,7.6,2.3,9.9a10.14,10.14,0,0,0,4.7,3.2,9.39,9.39,0,0,0,7.9-.9A8.82,8.82,0,0,0,98,52.6a33.29,33.29,0,0,0,2.4-5.6,30,30,0,0,0,1.9-8.3,13.55,13.55,0,0,0-.1-5,12,12,0,0,0-4.8-6.5A15.28,15.28,0,0,0,92.6,24.8Z"/><line class="cls-3" x1="174.2" x2="174.2" y2="84.5"/><line class="cls-3" x1="178.7" x2="178.7" y2="84.5"/><line class="cls-3" x1="128" y1="70.5" x2="174.2" y2="70.4"/><line class="cls-3" x1="61.9" y1="70.7" x2="115.9" y2="70.6"/><line class="cls-3" x1="5.2" y1="70.9" x2="50.9" y2="70.7"/><line class="cls-3" x1="123.8" y1="78.1" x2="174.2" y2="77.8"/><line class="cls-3" x1="62.2" y1="78.2" x2="116.2" y2="78"/><line class="cls-3" x1="5.2" y1="78.3" x2="54.7" y2="78.2"/><path class="cls-1" d="M174.2,84.5a2.27,2.27,0,0,0,4.5,0"/><line class="cls-3" x1="0.5" y1="0.1" x2="0.5" y2="84.6"/><line class="cls-3" x1="5" y1="0.1" x2="5" y2="84.6"/><path class="cls-1" d="M.5,84.6a2.35,2.35,0,0,0,2.3,2,2.34,2.34,0,0,0,2.2-2"/><path class="cls-2" d="M97.1,66.6A25.19,25.19,0,0,0,105,68a43.3,43.3,0,0,1,5.1,0,24.48,24.48,0,0,1,5.6,1.3"/><path class="cls-2" d="M81.4,66.7a19.77,19.77,0,0,1-8.1,1.4c-2.4-.1-4.4-.7-7.4,0a12.18,12.18,0,0,0-3.3,1.2"/><path class="cls-2" d="M39,58.4a10.21,10.21,0,0,1,2.9-6.8A10,10,0,0,1,48,48.8a9.49,9.49,0,0,1,2.4,0"/><path class="cls-2" d="M47.6,195.4a44.19,44.19,0,0,1-13.9-10.9c-4.8-5.8-5.7-10.6-6-12.3a13.9,13.9,0,0,1-.2-3.9"/><path class="cls-2" d="M37.4,168.5a31.3,31.3,0,0,1-7.2-7.8,16.83,16.83,0,0,1-2.7-7.6,7.11,7.11,0,0,1,.1-2.2"/><path class="cls-2" d="M148.1,215.8a13.9,13.9,0,0,1-.2,3.9c-.3,1.6-1.2,6.4-6,12.3A44.67,44.67,0,0,1,128,242.9"/><path class="cls-2" d="M148,198.3a7.11,7.11,0,0,1,.1,2.2,16.48,16.48,0,0,1-2.7,7.6,31.3,31.3,0,0,1-7.2,7.8"/><path class="cls-2" d="M49.2,58a5.46,5.46,0,0,1,2.2-3.7,6.69,6.69,0,0,1,4-1,4.91,4.91,0,0,1,1.5.3"/><path class="cls-2" d="M134.5,53.5a9.55,9.55,0,0,1,2.4,0,10,10,0,0,1,6.1,2.8,10.38,10.38,0,0,1,2.9,6.8"/><path class="cls-2" d="M128.1,58.3q.6-.15,1.5-.3a6.69,6.69,0,0,1,4,1,5.67,5.67,0,0,1,2.2,3.7"/></g></g></g></svg>