<svg xmlns="http://www.w3.org/2000/svg" viewBox="0 0 184.85 304.38"><defs><style>.cls-1{fill:none;stroke:#000;stroke-miterlimit:8;stroke-width:0.28px;}</style></defs><g id="Calque_2" data-name="Calque 2"><g id="Vélo"><path class="cls-1" d="M3.18,63.23c3.37-2.54,8.08-1.25,21,2h0l7,2a109.65,109.65,0,0,0,28,2,110.83,110.83,0,0,0,40-10,28.72,28.72,0,0,1,15-5c1.79,0,15.17-.48,18.1,7.28,1.48,3.93-.08,9-3.1,11.72-2.42,2.21-5.31,2.5-11,3a65.79,65.79,0,0,1-11,0c-4.85-.28-11.88.24-21,4a97,97,0,0,1-25,3c-8.82-.09-15.18-.15-23-3-9.22-3.35-11.56-7.31-19-7a49.91,49.91,0,0,1-11,0c-3.67-.46-6.84-.9-7.76-3S.91,65,3.18,63.23Z"/><path class="cls-1" d="M109.18,51.23h0a53.52,53.52,0,0,0-9,3c-2.58,1.22-3.87,1.82-5.92,3a80.59,80.59,0,0,1-27.91,9.24c-5.12.66-14.14-.64-32.17-3.24a19,19,0,0,1-10-4,14.77,14.77,0,0,1-2-2c-.59-.41-4.59-3.16-8.46-1.63-1.46.58-3.53,2-3.43,3.5.11,1.67,2.64,3.14,3.35,3.55l.08.05"/><path class="cls-1" d="M107.18,55.23a15.52,15.52,0,0,1,2-4,17.49,17.49,0,0,1,15-7c1.39.09,5.54.54,12,6,8.54,7.24,13.06,16.37,15.5,23.5l8,19,11,21a42,42,0,0,1-8.5,6.5c-4.83,2.8-9.45,4.07-18.5,6.5-3.34.9-6.12,1.57-8,2a44.27,44.27,0,0,0-13.5-26.5c-7.3-6.89-7.74-8.28-10-12a37.92,37.92,0,0,1-5-14"/><path class="cls-1" d="M135.68,128.73l-34.5,19.5,12.12,25.16a174.12,174.12,0,0,1,22.38-7.8c3.95-1.08,5.76-1.42,17.5-4.36,14.9-3.72,17.31-4.51,20-7,6.22-5.74,6.93-14,7-15,.85-12-8.49-23.48-9.5-25.5"/><path class="cls-1" d="M101.18,148.23a41.3,41.3,0,0,0-7,3,30.33,30.33,0,0,0-7,5l-.5.5c-3.55,3.88,4,18.32,6.94,24.91a80.37,80.37,0,0,1,6.56,30.59q.25,10.05.5,20.1H113.3a195.82,195.82,0,0,1-.12-21.1c.28-5.89.82-11.4,1.5-16.5h0l-1.38-21.34"/><path class="cls-1" d="M146.18,165.23l-29,22-.69.49"/><path class="cls-1" d="M172.18,155.23c3.82-3,8.68-2.61,11,0a6.92,6.92,0,0,1,1,7c-1.44,3.47-5.51,4.42-8,5-2,.47-1.81.1-10,0h-15c-1.65.1-2.17.3-3,0s-1.88-1-2-2,1-2.59,3-3"/><path class="cls-1" d="M91.88,177.86l-1.2.87a6,6,0,0,0-1.5,3.5,5.43,5.43,0,0,0,.5,2.5,108.44,108.44,0,0,0,7.62,12.94l1.91,3.58"/><path class="cls-1" d="M113.18,214.23a55.46,55.46,0,0,1,5.5,6c.53.68,1,1.34,1.5,2"/><path class="cls-1" d="M100.68,232.33a24.52,24.52,0,0,1-6.5,7.9,30.44,30.44,0,0,1-7,4c-6.49,2.87-10.44,2.75-11,5-.15.61-.1,1.58,1,3a48.32,48.32,0,0,0,14,0c4.27-.64,5.53-1.46,11-2a35.26,35.26,0,0,0,7-1c2.9-.79,6.34-1.72,7-4,.49-1.66-.91-2.66-2-6a19.15,19.15,0,0,1-.88-6.9"/><path class="cls-1" d="M100.18,214.23c-22.45-10-41.1-12.8-48.5-11.5a53.46,53.46,0,0,0-11.5,3.5,44.25,44.25,0,0,0-7,4c-9.12,6.51-14.55,16.5-14.55,16.5s-5.77,10.23-6.45,18.5c-.63,7.76,3.2,13.92,6.45,19,13.45,21,43.09,36.09,50.05,39.52h97.89c.82,0,2.85-.18,3.61-1.5,1.27-2.17-1.9-5.81-2.5-6.5-3.4-3.9-6.43-3.27-8.5-5.5-3.44-3.69.06-10.66,2.5-20.5,2.59-10.43,6.22-25.09-.5-33.5-3.83-4.78-10.3-6.65-15-8-5.84-1.68-8.22-.94-14-2a49.64,49.64,0,0,1-19-8"/><path class="cls-1" d="M25.68,122.73C32,184,34.34,203.12,35.21,209.06"/><path class="cls-1" d="M37.68,128.73l12,8s1,1.12,2,.85a1.65,1.65,0,0,0,.93-.85c1.16-2.12-11.16-14.72-18.39-24.5a94.74,94.74,0,0,1-10-17c-4.75-1.56-6.95-1.06-8,0,0,0-1.88,1.92,3.6,18.5h0l6.4,9.5,11.5,5.5q4.17,37.72,8.35,75.45"/><path class="cls-1" d="M26.18,123.23a28.05,28.05,0,0,1-13-4,19.88,19.88,0,0,1-4-3c-3.67-3.69-4.66-8.78-5-23-.11-4.55-.16-10.31,0-17h7c0,1.76,0,4.56,0,8-.08,11.35-.51,22.94,3,27a8.24,8.24,0,0,0,5,3,5.43,5.43,0,0,0,1,0"/><path class="cls-1" d="M16.58,113.27c-2.38-3.65-3.11-9.16-3.4-21-.11-4.55-.16-10.31,0-17h7c0,1.76,0,4.56,0,8,0,3.74-.09,7.5,0,11"/><path class="cls-1" d="M116.93,35.29l-8.75,1.94a11.87,11.87,0,0,0,0-2c-.29-3.51-2-5.83-5-10-1-1.44-2.76-3.89-5-7.12a12.27,12.27,0,0,0-2-.88c-.74-.24-4.7-1.47-7.62,0-3.7,1.83-2.67,6.47-5.88,7.54-2.27.77-4.67-.91-5.5-1.5a10.71,10.71,0,0,1-4-11c1-3.92,4.31-5.85,8-8a31.3,31.3,0,0,1,14-4,38,38,0,0,1,15,2,25.59,25.59,0,0,1,8,11,26.47,26.47,0,0,1-.7,19.33s-.68,2.83-.68,2.85a11.13,11.13,0,0,0,0,1.75,11,11,0,0,0,3.3,7.08l.34.3"/><path class="cls-1" d="M78.44,23.88c4.49,5.74,4.87,9.46,4.24,11.85-.34,1.31-1.38,3.8-.5,4.5.51.41,1.07-.23,2,0,1.85.47,1.57,3.46,4,6a6.24,6.24,0,0,0,3,2c3,.76,6.38-1.79,8-3,1-.71,2-1.32,3-2,1.48-1,1.78-1,2-1,1.88,0,3.34,2.75,4,4a9.29,9.29,0,0,1,1,3,9,9,0,0,1,0,2"/><path class="cls-1" d="M96.11,253.68l22.07,10.55a3.37,3.37,0,0,0-.5,2.5,3.53,3.53,0,0,0,3.5,2.5,2.91,2.91,0,0,0,1.52-.43c1.53-1,1.49-3.14,1.48-3.57a5.4,5.4,0,0,0-1.48-3.5l-19.52-8.5-.9-.36"/><path class="cls-1" d="M105.18,254.23a19.64,19.64,0,0,1,10-7,17.2,17.2,0,0,1,19,6A19.27,19.27,0,0,1,138.1,266a17,17,0,0,1-2.42,8.78c-4.54,7.25-14.35,9-20.5,7.5a22,22,0,0,1-5-2,17.76,17.76,0,0,1-6-5,17.07,17.07,0,0,1-3-12,16.86,16.86,0,0,1,2-6"/><line class="cls-1" x1="163.18" y1="167.23" x2="146.18" y2="228.23"/><path class="cls-1" d="M169.18,167.23l-18,62-.07.31"/><path class="cls-1" d="M136,226.92c-.19-.62-.47-1.56-.84-2.69-2.91-9-6-18.5-12-27-1.42-2-4.59-6.22-9-13l-.21-.32"/><path class="cls-1" d="M81.27,252.64a1.5,1.5,0,0,0-.45,1.9,1.43,1.43,0,0,0,1.36.69h2l22.74-3"/><path class="cls-1" d="M10.29,62.08V31.13a2.42,2.42,0,0,0-2.11-1.9,2.42,2.42,0,0,0-2.5,1.9v31"/><path class="cls-1" d="M19.29,55.76V32.13a2.35,2.35,0,0,0-4.61,0V55.25"/><polyline class="cls-1" points="5.68 72.89 5.68 76.04 5.68 76.28"/><line class="cls-1" x1="10.29" y1="73.45" x2="10.29" y2="76.23"/><line class="cls-1" x1="14.68" y1="73.52" x2="14.68" y2="75.23"/><line class="cls-1" x1="19.18" y1="73.23" x2="19.18" y2="75.23"/><path class="cls-1" d="M25.69,273.28c.24,6.59-1.56,10.51-3.51,13s-3.38,2.75-5,5c-2.8,3.91-2.72,8.91-2,13l53.5-.5"/><path class="cls-1" d="M63,164.47a26.89,26.89,0,0,1,3.47-12.24c6-10.44,17.2-13,19.26-13.4"/><path class="cls-1" d="M67.74,127a27,27,0,0,1,5.79-11.32c7.91-9.07,19.4-9.37,21.51-9.38"/><line class="cls-1" x1="107.23" y1="55.08" x2="107.11" y2="55.42"/></g></g></svg>