<svg xmlns="http://www.w3.org/2000/svg" viewBox="0 0 185.56 305.09"><defs><style>.cls-1{fill:none;stroke:#000;stroke-miterlimit:8;stroke-width:0.99px;}</style></defs><g id="Calque_2" data-name="Calque 2"><g id="Vélo"><path class="cls-1" d="M3.53,63.59c3.37-2.55,8.09-1.26,21,2h0l7,2a110.14,110.14,0,0,0,28,2,111,111,0,0,0,40-10,28.75,28.75,0,0,1,15-5c1.79-.06,15.18-.49,18.11,7.28,1.48,3.92-.09,9-3.11,11.72-2.41,2.2-5.31,2.5-11,3a65.79,65.79,0,0,1-11,0c-4.85-.28-11.88.23-21,4a97.45,97.45,0,0,1-25,3c-8.81-.09-15.17-.16-23-3-9.21-3.35-11.55-7.32-19-7a51.19,51.19,0,0,1-11,0c-3.67-.47-6.84-.91-7.76-3S1.26,65.3,3.53,63.59Z"/><path class="cls-1" d="M109.53,51.59h0a51.65,51.65,0,0,0-9,3c-2.58,1.21-3.87,1.82-5.92,3A80.71,80.71,0,0,1,66.7,66.82c-5.12.67-14.13-.63-32.17-3.23a19.2,19.2,0,0,1-10-4,16.77,16.77,0,0,1-2-2C22,57.17,18,54.42,14.07,56c-1.46.58-3.52,2-3.42,3.51.11,1.67,2.63,3.13,3.34,3.54l.08,0"/><path class="cls-1" d="M107.53,55.59a15.53,15.53,0,0,1,2-4,17.48,17.48,0,0,1,15-7c1.39.09,5.55.53,12,6A52.82,52.82,0,0,1,152,74.09l8,19q5.5,10.5,11,21a41.84,41.84,0,0,1-8.5,6.5c-4.83,2.79-9.45,4.06-18.5,6.5-3.34.9-6.12,1.56-8,2a44.27,44.27,0,0,0-13.5-26.5c-7.29-6.9-7.73-8.28-10-12a38.06,38.06,0,0,1-5-14"/><path class="cls-1" d="M136,129.09l-34.5,19.5q6.07,12.57,12.13,25.15a175.13,175.13,0,0,1,22.37-7.8c3.95-1.07,5.77-1.41,17.5-4.35,14.9-3.73,17.31-4.52,20-7,6.23-5.74,6.94-14.06,7-15,.86-12-8.48-23.48-9.5-25.5"/><path class="cls-1" d="M101.53,148.59a40.85,40.85,0,0,0-7,3,30.24,30.24,0,0,0-7,5c-.21.21-.39.38-.5.5C83.49,161,91.06,175.41,94,182a80.27,80.27,0,0,1,6.56,30.59q.25,10,.5,20.1h12.63a195.67,195.67,0,0,1-.13-21.1c.29-5.89.82-11.41,1.5-16.5h0q-.68-10.68-1.37-21.35"/><path class="cls-1" d="M146.53,165.59l-29,22-.68.49"/><path class="cls-1" d="M172.53,155.59c3.82-3,8.68-2.62,11,0a6.87,6.87,0,0,1,1,7c-1.44,3.46-5.5,4.41-8,5-2,.46-1.81.09-10,0h-15c-1.65.1-2.16.29-3,0s-1.87-1-2-2c-.14-1.17,1.05-2.59,3-3"/><path class="cls-1" d="M92.24,178.22l-1.21.87a6,6,0,0,0-1.5,3.5,5.63,5.63,0,0,0,.5,2.5A109.2,109.2,0,0,0,97.65,198l1.92,3.59"/><path class="cls-1" d="M113.53,214.59a52.63,52.63,0,0,1,5.5,6c.53.67,1,1.34,1.5,2"/><path class="cls-1" d="M101,232.69a24.73,24.73,0,0,1-6.5,7.9,31,31,0,0,1-7,4c-6.49,2.87-10.43,2.74-11,5-.15.61-.1,1.57,1,3a48.69,48.69,0,0,0,14,0c4.27-.64,5.53-1.46,11-2a36,36,0,0,0,7-1c2.91-.79,6.34-1.73,7-4,.49-1.66-.91-2.67-2-6a18.9,18.9,0,0,1-.87-6.9"/><path class="cls-1" d="M100.53,214.59c-22.45-10.05-41.09-12.81-48.5-11.5a53,53,0,0,0-11.5,3.5,43.92,43.92,0,0,0-7,4c-9.12,6.5-14.55,16.5-14.55,16.5s-5.77,10.23-6.45,18.5c-.63,7.76,3.21,13.92,6.45,19,13.46,21,43.1,36.08,50.05,39.52h97.89c.82,0,2.85-.19,3.61-1.5,1.27-2.17-1.9-5.81-2.5-6.5-3.4-3.91-6.42-3.28-8.5-5.5-3.44-3.69.07-10.66,2.5-20.5,2.59-10.44,6.22-25.1-.5-33.5-3.82-4.79-10.3-6.65-15-8-5.84-1.68-8.22-.94-14-2a49.87,49.87,0,0,1-19-8"/><path class="cls-1" d="M26,123.09c6.27,61.31,8.66,80.39,9.53,86.32"/><path class="cls-1" d="M38,129.09l12,8s1,1.11,2,.85a1.7,1.7,0,0,0,.94-.85c1.16-2.13-11.16-14.73-18.4-24.5a96.34,96.34,0,0,1-10-17c-4.75-1.57-7-1.07-8,0,0,0-1.88,1.92,3.6,18.5h0l6.4,9.5,11.5,5.5q4.19,37.72,8.35,75.45"/><path class="cls-1" d="M26.53,123.59a28.24,28.24,0,0,1-13-4,20.57,20.57,0,0,1-4-3c-3.66-3.69-4.65-8.79-5-23-.11-4.56-.16-10.32,0-17h7c0,1.76,0,4.56,0,8-.08,11.34-.51,22.93,3,27a8.3,8.3,0,0,0,5,3,5.42,5.42,0,0,0,1,0"/><path class="cls-1" d="M16.93,113.62c-2.37-3.65-3.11-9.16-3.4-21-.11-4.56-.16-10.32,0-17h7c0,1.76,0,4.56,0,8,0,3.73-.09,7.49,0,11"/><path class="cls-1" d="M117.28,35.64l-8.75,2a11.9,11.9,0,0,0,0-2c-.28-3.52-2-5.83-5-10-1-1.45-2.76-3.89-5-7.12a11.47,11.47,0,0,0-2-.88c-.74-.25-4.7-1.48-7.61,0C85.21,19.37,86.24,24,83,25.09c-2.26.76-4.66-.92-5.5-1.5a10.71,10.71,0,0,1-4-11c1-3.93,4.32-5.85,8-8a31.2,31.2,0,0,1,14-4,37.8,37.8,0,0,1,15,2,25.44,25.44,0,0,1,8,11,26.45,26.45,0,0,1-.7,19.32s-.67,2.83-.67,2.86a10.76,10.76,0,0,0,3.27,8.83l.33.3"/><path class="cls-1" d="M78.79,24.24C83.29,30,83.66,33.69,83,36.09c-.34,1.3-1.38,3.79-.5,4.5.51.4,1.07-.23,2,0,1.86.46,1.58,3.45,4,6a6.32,6.32,0,0,0,3,2c3,.75,6.38-1.79,8-3,1-.72,2-1.32,3-2,1.49-1,1.78-1,2-1,1.88-.06,3.35,2.74,4,4a9,9,0,0,1,1,3,8.34,8.34,0,0,1,0,2"/><path class="cls-1" d="M96.46,254l22.07,10.56a3.4,3.4,0,0,0-.5,2.5,3.53,3.53,0,0,0,3.5,2.5,3,3,0,0,0,1.52-.44c1.53-1,1.49-3.14,1.48-3.56a5.36,5.36,0,0,0-1.48-3.51l-19.52-8.49-.9-.36"/><path class="cls-1" d="M105.53,254.59a19.69,19.69,0,0,1,10-7,17.14,17.14,0,0,1,19,6,19.27,19.27,0,0,1,3.93,12.72,17.16,17.16,0,0,1-2.43,8.78c-4.53,7.25-14.35,9-20.5,7.5a23.25,23.25,0,0,1-5-2,18,18,0,0,1-6-5,16.79,16.79,0,0,1-1-18"/><line class="cls-1" x1="163.53" y1="167.59" x2="146.53" y2="228.59"/><path class="cls-1" d="M169.53,167.59l-18,62-.07.31"/><path class="cls-1" d="M136.38,227.27c-.19-.62-.48-1.55-.85-2.68-2.91-9-6-18.5-12-27-1.41-2-4.59-6.22-9-13l-.2-.32"/><path class="cls-1" d="M81.62,253a1.5,1.5,0,0,0-.45,1.89,1.46,1.46,0,0,0,1.36.7h2l22.75-3"/><path class="cls-1" d="M10.64,62.44V31.49a2.37,2.37,0,0,0-2.11-1.9A2.42,2.42,0,0,0,6,31.49v31"/><path class="cls-1" d="M19.64,56.11V32.49a2.37,2.37,0,0,0-2.11-1.9,2.42,2.42,0,0,0-2.5,1.9V55.6"/><polyline class="cls-1" points="6.04 73.24 6.04 76.4 6.04 76.63"/><line class="cls-1" x1="10.64" y1="73.8" x2="10.64" y2="76.59"/><line class="cls-1" x1="15.03" y1="73.88" x2="15.03" y2="75.59"/><line class="cls-1" x1="19.53" y1="73.59" x2="19.53" y2="75.59"/><path class="cls-1" d="M26.05,273.64c.24,6.59-1.56,10.51-3.52,12.95s-3.38,2.74-5,5c-2.8,3.91-2.72,8.9-2,13l53.5-.5"/><path class="cls-1" d="M63.38,164.82a26.88,26.88,0,0,1,3.47-12.23c6-10.44,17.19-13,19.26-13.4"/><path class="cls-1" d="M68.09,127.36A26.9,26.9,0,0,1,73.89,116c7.91-9.08,19.39-9.37,21.5-9.39"/><line class="cls-1" x1="107.59" y1="55.43" x2="107.46" y2="55.77"/></g></g></svg>