<svg xmlns="http://www.w3.org/2000/svg" viewBox="0 0 193.65 299.74"><defs><style>.cls-1,.cls-2{fill:none;stroke:#000;stroke-miterlimit:10;stroke-width:0.99px;}.cls-1{stroke-linecap:round;}</style></defs><g id="Calque_2" data-name="Calque 2"><g id="Corde_à_sauter" data-name="Corde à sauter"><path class="cls-1" d="M79.49,277.93a16.26,16.26,0,0,0-.85,12.73,5.06,5.06,0,0,0,2.55,2.55,5.49,5.49,0,0,0,5.09-.85c.58-.43,1.75-1.48,2.55-5.09a24.34,24.34,0,0,0,0-10.19"/><path class="cls-1" d="M110.52,276.23a16.26,16.26,0,0,1,.85,12.73,5.06,5.06,0,0,1-2.55,2.55c-2.48,1-4.81-.64-5.09-.85-1.57-1.17-2-2.84-2.55-5.09a23.94,23.94,0,0,1-.47-8.49"/><path class="cls-2" d="M90.53,55.55a25,25,0,0,1-11,.85,25.78,25.78,0,0,1,3.4-5.09,20.19,20.19,0,0,1,5.94-5.09c5.16-2.71,8.32-.3,10.18-2.55,2.24-2.69-2-6.53,0-11s6.89-2.78,9.34-7.64c1.88-3.73,1.23-9.19,0-12.73-.57-1.64-1.08-2.36-.85-2.55.92-.74,12.72,7,12.73,15.28,0,9.07-14.1,12-13.58,21.22.3,5.25,5,7.48,4.25,13.58a14.11,14.11,0,0,1-3.83,7.61c-4.88-11.21-8.75-13.6-11.45-13.55C94.07,53.88,93.25,54.69,90.53,55.55Z"/><path class="cls-2" d="M79.48,56.4c0,21.22,8.5,27.16,8.5,27.16.3.13.73.3,1.26.48a21.31,21.31,0,0,0,2.92.8c2.33.41,5.15-1,5.69-1.28,3.42-1.71,7-7,8.8-14.43l.42-1.72"/><path class="cls-2" d="M88,83.56c.71,1.88,1.33,4.52.23,6.86-1.74,3.67-6.79,4.58-8.72,5-5.49,1.26-13.27,5.15-22.92,17-5,6.14-20,18.19-26.87,25.67,0,0-5.35,5.83-10.47,7.43-1,.32-1.89.64-1.89.64a11.2,11.2,0,0,1-1.51.21c-1.27.15-3.6.86-4.24,2.55a2.06,2.06,0,0,0,0,1.7c.22.35.66.67,3.4.84a10.83,10.83,0,0,0,3.39,0c1.32-.49,1.39-1.33,3.4-2.54a13.35,13.35,0,0,1,1.69-.85c6.75-2.92,10.19-4.22,12.07-5.09a68.08,68.08,0,0,0,18.88-12.74c4.55-4.38,7.76-8.8,14.89-13.58a59.38,59.38,0,0,1,9.33-5.09,46.56,46.56,0,0,1,2.55,17,60,60,0,0,1-1.7,11A204.65,204.65,0,0,1,74.4,160c-6.47,21-2.68,62.25-1.7,73a393,393,0,0,0,6.79,45l9.34-.85c-.23-19-.33-37.06-.54-55.29,0,0-.17-15.07,4.78-39.77.72-3.58,2-9.38,3.4-9.34s2.1,4.79,2.54,7.64c3.93,25.53,1.7,43.29,1.7,43.29-1.53,12.25-2.53,29.91,0,53.47l10.19-.85c2.73-15.87,4.64-29.2,5.94-39,2-15.47,2.87-24.66,3.39-32.25,0,0,1.7-24.44-.85-36.5C118,162,116,154.86,116,154.86h0c-2.63-7.94-4.7-10.61-5.94-17.83-.69-4,0-2.91-.85-9.33-1.1-8.46-2.8-14.37-.85-15.28a.85.85,0,0,1,.13,0c.68-.2,2.85.11,13.45,9.39,8.42,7.37,7.49,7.56,11.88,11,6.77,5.34,22.92,12.73,22.92,12.73,1.82.83,4.44,2,7.64,3.4a8.82,8.82,0,0,0,5.09,2.54c2.63.32,5.85-.58,5.94-1.69.08-.86-1.65-2.18-9.33-4.25-1.25-1.27-3.33-3.38-5.95-5.94-18.65-18.21-23.93-16.54-30.55-28-1.5-2.59-4.95-9.13-12.32-14a35.5,35.5,0,0,0-13.14-5.2,7.26,7.26,0,0,1-6.26-4.47,6.84,6.84,0,0,1,0-4.33"/><path class="cls-2" d="M96.93,44.7s9.33,1.23,9.95,3.07"/><path class="cls-2" d="M99.82,40.74s7.29,1,7.06,2"/><polyline class="cls-2" points="17.2 146.19 14.14 140.43 12.44 141.28 15.06 146.51"/><path class="cls-2" d="M170.43,146.82l2.94-5.54,1.7.85-2.63,5.23-.12.15"/><path class="cls-2" d="M17.59,151.58l.79,1.58,1.7-.85-.71-1.41"/><path class="cls-2" d="M170.31,151.58l-.79,1.58-1.7-.85.5-1"/><path class="cls-2" d="M13.3,140.85a1.87,1.87,0,0,1-.91-.26C9.52,138.77,13.73,128,15,123.45,20.74,102.82-1.1,89.16,4.8,76.77c5.26-11,23.63-2.44,40.74-17.82,7-6.31,4.9-8.63,17.82-27.16,10.5-15,15.74-22.57,22.07-26.31,24.07-14.23,66.93,5,67.9,20.37.51,8-10.64,11.66-11,25.46a29.55,29.55,0,0,0,5.09,17c8.53,12.1,20.6,6.93,29.71,17.83,8.34,10,6.72,24.48,5.94,31.4a57.24,57.24,0,0,1-8.65,24.28"/><path class="cls-2" d="M100.37,296.81c16.23,7.7,29.28-5.3,29.28-5.3"/><path class="cls-2" d="M164,171.19c16.23,7.7,29.27-5.3,29.27-5.3"/><path class="cls-2" d="M.21,158.46c16.24,7.7,29.28-5.3,29.28-5.3"/></g></g></svg>