<svg xmlns="http://www.w3.org/2000/svg" viewBox="0 0 214.25 210.39"><defs><style>.cls-1,.cls-2,.cls-3,.cls-4{fill:none;stroke:#000;stroke-width:0.99px;}.cls-1,.cls-4{stroke-linecap:round;}.cls-1,.cls-2{stroke-miterlimit:10;}.cls-3{stroke-linecap:square;}.cls-3,.cls-4{stroke-linejoin:bevel;}</style></defs><g id="Calque_2" data-name="Calque 2"><g id="Développé_couché" data-name="Développé couché"><path class="cls-1" d="M197,194.89a8.83,8.83,0,0,0,1.67,5.25c1.87,2.48,5,3.4,5.8,3.7a39.79,39.79,0,0,1,5.3,2c1.6.8,4.2,1.9,4,2.8-.1.6-1.5.8-3.2.9-5.5.4-9-1.4-13.4-1.8-7.2-.8-8.8-.4-9.9-.9-.1-.1-.3-.2-.5-.4-1-1.1-.3-2.8.3-5.4.14-.59.18-.89.22-1.08a25.07,25.07,0,0,0,.71-4.07s0-.44,0-1c-.21-6.26-6-21-6-21-2.59-7.93-4.21-12.88-5-20-.35-3.1-1-13.32-1-14v0a1.56,1.56,0,0,0-.94-1.11h0c-2.38-.52-4.73-1.17-7.06-1.89l-1.71-.61"/><path class="cls-1" d="M177,189.89a8.65,8.65,0,0,0,1,5.09c1,1.85,2.51,3,5.26,4.44,1.57.85,2.39,1.09,3.78,1.92"/><path class="cls-2" d="M52,119.89c-.17-.43-5.3-.55-7-1a34.09,34.09,0,0,1-4.34-1.47l1.17-2.77a9.47,9.47,0,0,0,.17-2.76c-.11-1.27-.21-2.46-1-3s-1.33-.16-3,0a18.08,18.08,0,0,1-3.49,0c-.82-3.13-1.8-3.87-2.51-4-1-.18-1.51.85-4,2a9.63,9.63,0,0,1-4,1.18c-2.41.06-2.64-1.29-5-1.18a14.06,14.06,0,0,0-4,1l0,0"/><path class="cls-2" d="M52,137.89a42.72,42.72,0,0,1-3.53-4,8.16,8.16,0,0,1-1.47-3,10.58,10.58,0,0,1,3-9l2-2"/><path class="cls-2" d="M22,137.89c-1.48.05-1.74,0-5,0a24,24,0,0,1-3,0,11.63,11.63,0,0,1-5-2,16.68,16.68,0,0,1-6-6,17.29,17.29,0,0,1-2-6c-.4-2.16-1.19-6.55,1-11a12.75,12.75,0,0,1,2-3c3.53-3.86,9.64-5.49,11-3.83.23.28.3.64.2,1.81-.34,3.85-1.65,5.27-2.2,8-.22,1.07-1,5,1,7,1.23,1.23,2.28.51,5,2,2.52,1.39,2.37,2.44,4,3,2.94,1,4.45-2,8-2,5.38.08,10.63,7.28,9.69,8.72a.75.75,0,0,1-.42.28,17.38,17.38,0,0,1-5.27,1c-.16,0,.16,0-6,1A64.11,64.11,0,0,1,22,137.89Z"/><path class="cls-2" d="M129.77,137.89l-13.8-29a35.64,35.64,0,0,0-12,0c-3.42.59-4.77,1.35-7.53,1.83-3.22.55-8,.64-14.47-1.83l-.57-.09"/><path class="cls-2" d="M165,113.89c7.12,1.3,18,3.49,25,6a8,8,0,0,1,2,1c2.63,1.86,4.16,5.53,4,18-.11,8.57-.89,11.08-1,22,0,0,0,2.45,0,5,.05,4.23.65,14.84,2,29"/><path class="cls-2" d="M129.77,137.89l36.49-1.61A23.89,23.89,0,0,1,163,127a24.18,24.18,0,0,1,2-13.15,86.82,86.82,0,0,0-17-5,88.18,88.18,0,0,0-32,0"/><path class="cls-2" d="M176,140.89c-6,8.12-7.1,14.58-7,19,.06,2.91.6,2.58,1,8a64,64,0,0,1-1,18c-.36,1.69-.73,3.07-1,4"/><path class="cls-2" d="M40.54,134.82l7.9-1"/><path class="cls-2" d="M60.85,113.89c-1.63,1.11-3.25,2.23-4.88,3.32l-4,2.68"/><path class="cls-2" d="M177,189.89q2.49-8,5-16"/><path class="cls-1" d="M186.24,205.51v.06s-8.47-2.73-10.81-3.26c-.52-.12-2.29-.59-5-1.13-2.93-.58-3.94-.63-4.66-1.08-.08-.11-.27-.24-.44-.46-.82-1.08,0-2.75,1-5.31.4-1,1-2.53,1.65-4.44"/><path class="cls-1" d="M170,137.89H56.61"/><line class="cls-1" x1="55.97" y1="143.89" x2="169.97" y2="143.89"/><line class="cls-1" x1="1.97" y1="143.89" x2="55.97" y2="143.89"/><line class="cls-1" x1="1.97" y1="137.89" x2="56.97" y2="137.89"/><line class="cls-1" x1="169.97" y1="143.89" x2="169.97" y2="137.89"/><line class="cls-1" x1="1.97" y1="137.89" x2="1.97" y2="143.89"/><line class="cls-2" x1="16.97" y1="143.89" x2="16.97" y2="209.89"/><line class="cls-2" x1="20.97" y1="143.89" x2="20.97" y2="209.89"/><line class="cls-3" x1="16.97" y1="209.89" x2="20.97" y2="209.89"/><line class="cls-2" x1="156.97" y1="143.89" x2="156.97" y2="209.89"/><line class="cls-2" x1="160.97" y1="143.89" x2="160.97" y2="209.89"/><line class="cls-3" x1="156.97" y1="209.89" x2="160.97" y2="209.89"/><line class="cls-1" x1="56.97" y1="137.89" x2="55.97" y2="137.89"/><path class="cls-4" d="M64.81,54.57A18,18,0,1,1,74,38.89a17.87,17.87,0,0,1-9.16,15.68"/><circle class="cls-4" cx="55.97" cy="38.89" r="12"/><circle class="cls-4" cx="55.97" cy="38.89" r="3"/><path class="cls-2" d="M56.88,56.89l.45,1c7,15.23,10.12,17.86,11.14,24.5a28.36,28.36,0,0,1-.5,10.5c-1.3,6-3.43,7.26-5.72,15.88-1,3.71-1,4.19-1.78,6.62-1.9,5.71-3,6.53-3,10,0,2,0,7.28,4,10,3.45,2.36,7.92,1.44,10.59,0,3.1-1.67,4.45-4.41,5.93-7.5.52-1.09,2.29-4.86,3-12,.43-4.48.1-6.77,0-11a119.06,119.06,0,0,1,1-17c.45-6.66-2.29-17.09-17.07-33.29"/><path class="cls-2" d="M82.43,49.77s14.85,3.13,18.42,15.67c2.46,8.6,1,10,1,10"/><path class="cls-2" d="M51.42,1C53.79.59,68.25-1.57,78,7.89a25,25,0,0,1,5,7"/></g></g></svg>