<svg xmlns="http://www.w3.org/2000/svg" viewBox="0 0 171.89 191.54"><defs><style>.cls-1,.cls-2,.cls-3{fill:none;stroke:#000;stroke-width:0.99px;}.cls-1,.cls-3{stroke-linecap:round;}.cls-1,.cls-2{stroke-miterlimit:10;}.cls-3{stroke-linejoin:round;}</style></defs><g id="Calque_2" data-name="Calque 2"><g id="Fente"><g id="Fente-2" data-name="Fente"><path class="cls-1" d="M86,136.74a39.66,39.66,0,0,0,4.8-2.6,23.74,23.74,0,0,0,3.3-2.6"/><path class="cls-1" d="M73.55,40a27.22,27.22,0,0,1-1.2,9.4,26.42,26.42,0,0,1-5.4,9.4,36,36,0,0,1-4.3,3.9c-5.8,4.8-7.1,4.4-8.6,6.9-1.7,2.8-2.2,6.8-.8,9.7s3.5,2.5,6.7,5.3c5.8,4.9,6.5,12.7,7.6,23.3.3,2.9.2,3.6-.3,4.3-2.5,3.9-11.4,1-23.3.3-11-.7-24.3-1.5-29.8,5.7-3.3,4.3-2.6,9.9-1.1,20.8.7,5.2,1.8,8.7,7.2,25.2,1.3,3.9,2.9,8.9,4.9,14.8l7.1-.3a131.71,131.71,0,0,0,.5-31.8c-.6-5.1-1.4-9.8-2.3-14.1,11,2,19.5,3.6,24.5,4.6,5.2,1,12.6,3.9,22.1,2.2.8-.1,1.4-.3,1.9-.4"/><path class="cls-2" d="M83,35.14a35.83,35.83,0,0,0,3.5,15.8c1.5,3,3,5,4.4,9.3a40.86,40.86,0,0,1,1.7,9.7c.8,9.4.2,20,.6,26a15.6,15.6,0,0,0,.5,3.6,19.27,19.27,0,0,0,1.5,4.5,36,36,0,0,0,2.2,4c1.4,2.4,3,5.1,3.5,8a13.77,13.77,0,0,1-1.3,8c-1.6,3.8-5.69,7.69-5.69,7.69"/><path class="cls-2" d="M99.13,125.19A158,158,0,0,0,106.45,171a153.3,153.3,0,0,1,28.9-3.2,161.11,161.11,0,0,1,24.4,1.5,15.41,15.41,0,0,1,.2,5.4,8.47,8.47,0,0,1-.4,1.7,168.16,168.16,0,0,1-19.9,5.2c-4.2.8-8.3,1.5-12.2,1.9,0,0-7.1,1.4-21.8,2.3-7,.5-9.7.4-12.6-1.1-4.91-2.54-7.24-7.28-9.5-12.9a181.45,181.45,0,0,1-9.42-31.65"/><path class="cls-2" d="M71.65,61.44a46.1,46.1,0,0,1,0-5.3,6.58,6.58,0,0,1,.3-2.3,7.31,7.31,0,0,1,3.2-4c2.6-1.6,6.1-1.3,9.2.6a17.71,17.71,0,0,1,4.3,4.9c4.7,7.5,2.4,15.9,1.8,17.9-.7,6.8-1.4,13.7-1.9,20.8-.6,7.9-1.1,15.6-1.5,23.2-1.6,15-1.3,20.7-.5,22.6a30.05,30.05,0,0,1,1.1,3.2c.6,2,.8,3.1.5,3.9-.73,1.94-3.55,2.52-4.5,2.7-1.28.25-3.1.61-4.52-.45-2-1.51-1.79-4.81-1.75-5.55a7.66,7.66,0,0,1,.17-1.2c.4-1.7,1.3-2.3,1.9-4.7a12.61,12.61,0,0,0,.4-4.5c-.4-16.3-.6-24.5-2.2-32.6-.6-3.2-1-4.6-2-9.7-.6-3.1-1.3-6.9-2-11.6C72.45,71.64,72,65.44,71.65,61.44Z"/><path class="cls-1" d="M60.25,14.94c-1.5,1.7-.7,5.1.4,10.5a6.06,6.06,0,0,1,.1,3.3c-.3,1.3-1,1.6-.9,2.6s.7,1.1,1.8,2.4a41.87,41.87,0,0,1,2.6,4.3c1.4,2.5,1.5,2.6,1.7,2.7.7.5,1.6.6,6.1-.4a31.81,31.81,0,0,0,6.9-2.1,9.31,9.31,0,0,0,3.2-2.2,8,8,0,0,0,1.6-3.4c.4-2.2-.6-3.9-1.6-6-2.9-6.3-1.1-6.9-3.3-9.6-3.3-4.1-8.8-4.4-9.7-4.5a17.69,17.69,0,0,0-6.6,1.2c-1.2.5-1.9.7-2.3,1.2"/><path class="cls-2" d="M59.85,15.64a14.31,14.31,0,0,1,5.2-5.4c5.7-3.4,11.9-1.3,13-1a16.62,16.62,0,0,1,6.6,4.2c2.1,2.1,5.9,5.6,5.8,10.7-.1,7-7.4,11-7.7,11.2"/><path class="cls-3" d="M.63,120.4a23.38,23.38,0,0,1,1-9.64A15.81,15.81,0,0,1,5.81,104a16,16,0,0,1,6.33-3.72,19.79,19.79,0,0,1,5.52-.93"/><path class="cls-3" d="M104.35,188.64a17,17,0,0,1-10.3,1.3,16.58,16.58,0,0,1-10.9-8.3"/><path class="cls-2" d="M76,8.64A4,4,0,0,1,72.25,6a4.25,4.25,0,0,1,1.3-3.8c1.8-1.9,4.7-1.8,6.1-1.7,6.5.3,11.3,5.7,12.7,7.6,3.1,3.2,3,7.4,1.1,9s-4.8.5-5.1.4"/><path class="cls-1" d="M25.05,178.94a7.59,7.59,0,0,1-.9,5.9,4.89,4.89,0,0,1-1.5,1.5c-1.5,1.1-2.7,1.3-5.7,1.9-5,1-5.4,1.5-5.5,1.8s.5.7.9.9c2.7.1,5,.1,6.6.1,6.4,0,2-.2,10.8-.5,2.5-.1,3.6-.1,4-.9.7-1.2-.7-2.7-1.4-5.9a15,15,0,0,1-.3-5"/><path class="cls-1" d="M159.65,176.54a7.54,7.54,0,0,1,5.8,1.3,7,7,0,0,1,1.4,1.6c1,1.6,1.1,2.8,1.5,5.8.7,5,1.1,5.5,1.4,5.6s.7-.4.9-.9c.2-2.7.4-5,.5-6.6.4-6.4-.1-2,.2-10.8.1-2.5.1-3.6-.6-4.1-1.1-.8-2.7.6-6,1a20.53,20.53,0,0,1-5,0"/></g></g></g></svg>