<svg xmlns="http://www.w3.org/2000/svg" viewBox="0 0 151.03 261.76"><defs><style>.cls-1,.cls-2,.cls-3{fill:none;stroke:#000;stroke-width:0.99px;}.cls-1,.cls-3{stroke-miterlimit:10;}.cls-2,.cls-3{stroke-linecap:round;}.cls-2{stroke-linejoin:round;}</style></defs><g id="Calque_2" data-name="Calque 2"><g id="Haltères"><g id="Haltères-2" data-name="Haltères"><path class="cls-1" d="M52.13,116a109,109,0,0,1-2.8-16.6c-1.2-12.6.8-16-.5-30.9a123.88,123.88,0,0,0-2.3-15.7c-.8-3.8-1.6-7-2.3-9.3a27.31,27.31,0,0,1,7-3.2c4.4-1.5,9.6-3.3,13-1,1.2.9,1.1,1.4,3.4,6.3,2.9,5.8,4.4,8.7,5.8,8.6,2.3-.1,4.3-5.9,5.4-8.8,1-2.7,1.1-4.2,2.6-5.3.4-.3,1.5-1,5.6-1.1s6.3-.1,8.7,1a14.34,14.34,0,0,1,6.9,6.3A58.54,58.54,0,0,0,97,61.92c-1,4.6-1.2,8.6-.9,25,.1,6.6.3,12.2.4,16.3"/><path class="cls-2" d="M20.23,95.92a20.36,20.36,0,0,1-4.6-.4,18.82,18.82,0,0,1-11-6.4,19.42,19.42,0,0,1-4.1-13.3"/><path class="cls-2" d="M36.13,92.32a30.2,30.2,0,0,1-2,4.2,19.55,19.55,0,0,1-9.8,8,19.2,19.2,0,0,1-13.9-1"/><path class="cls-2" d="M150.53,127.42a18.3,18.3,0,0,1-20.4,14.1,19,19,0,0,1-4.5-1"/><path class="cls-2" d="M93.3,115.62c-13.76.1-27.41.1-41.07.1a372.4,372.4,0,0,0-7.7,39c-1.7,11.2-1.7,14-2.3,21.1,0,0-.5,4-1.1,9.3-2.1,16.2-9.4,57.9-2.6,60.8a21.13,21.13,0,0,0,3.2.9,24.33,24.33,0,0,0,6.1.1c7.4-1.1,13.9-43.5,17.9-61.4.2-1,1.1-5.2,2.4-11.1.8-3.9,1.9-8.9,3-14.4,1.3-6.5,2.2-11.9,3-15.8a14.45,14.45,0,0,1,.9,2.9s5.8,19.6,9.5,38.7c5.5,28.8,6.1,59,12.8,60.9a18.66,18.66,0,0,0,5.4.5,16.63,16.63,0,0,0,6.4-1.7,364.75,364.75,0,0,0-.1-61.9c-2.1-25.2-11.59-65.3-11.59-65.3"/><path class="cls-1" d="M115.73,113.12c.2-5.6.1-10.3.1-13.7-.2-10.3-.3-15.7-1.8-23-.3-1.36-.6-2.58-.91-3.74-.21-.8-.44-1.57-.67-2.34,0,0-.66-2.22-1.52-4.62s-3.86-9.72-8.3-19.4"/><path class="cls-1" d="M107.8,113s-.77-9.07-1-11.77c-.6-8.3-.6-10.3-1.6-14-.9-3.3-1.4-4-3.6-9.2-1.3-3.2-3.2-8.1-5-14.1"/><path class="cls-1" d="M32.73,59.12c-.1-1.1-.2-3.1-.5-5.6-1.7-14.3-5-19.4-2-23.6.9-1.2,2.5-2.8,2.6-5.4a5.34,5.34,0,0,0-.8-3.2,7.22,7.22,0,0,0-3.3-2.7,8.93,8.93,0,0,0-2.9-.3,7.3,7.3,0,0,0-4.2.9,10.28,10.28,0,0,0-1.7,1.4c-2.2,2.6-1.6,6.1-1.5,7,.4,1.5,1,4,1.5,7,1.3,7,1.5,12.5,2.4,26,.5,9.3.9,13.9,2.9,14.7,1.3.4,3.4-.9,7.7-3.7a41.62,41.62,0,0,0,8.4-6.4,40.91,40.91,0,0,0,6.1-7.3"/><path class="cls-1" d="M32.42,54.75,44.23,43.52"/><path class="cls-3" d="M18.43,27.62H9"/><path class="cls-3" d="M18.93,29.72c-3.3,0-6.7,0-10,.1"/><path class="cls-3" d="M6.13,35.22V22.82a1,1,0,0,0-.67-.35,1.08,1.08,0,0,0-.83.35v12.4a1.24,1.24,0,0,0,1.5,0Z"/><path class="cls-3" d="M8.83,39V18.32a.84.84,0,0,0-.67-.88.86.86,0,0,0-.93.88V39a.9.9,0,0,0,.86.52A.87.87,0,0,0,8.83,39Z"/><path class="cls-3" d="M120,113.12h8.1"/><path class="cls-3" d="M117,115.22l11.13.1"/><path class="cls-3" d="M129.83,124.62V104a.79.79,0,0,0-1.5,0v20.6a.76.76,0,1,0,1.5,0Z"/><path class="cls-3" d="M131.13,120.52v-12.4a.75.75,0,0,1,1.5,0v12.4a.83.83,0,0,1-.82.94A.84.84,0,0,1,131.13,120.52Z"/><line class="cls-3" x1="130.03" y1="113.12" x2="131.03" y2="113.12"/><path class="cls-3" d="M132.83,113.12h1.8a1.09,1.09,0,0,1,.86,1.06,1.08,1.08,0,0,1-.86,1h-2"/><line class="cls-3" x1="131.13" y1="115.32" x2="129.83" y2="115.32"/><line class="cls-3" x1="7.23" y1="27.62" x2="6.13" y2="27.62"/><path class="cls-3" d="M4.63,27.52H2.23a1.19,1.19,0,0,0-.77.95,1.2,1.2,0,0,0,.77,1.25h2.4"/><line class="cls-3" x1="6.13" y1="29.72" x2="7.23" y2="29.72"/><path class="cls-3" d="M39.83,28h-8"/><path class="cls-3" d="M39.93,30.12H30.19"/><path class="cls-3" d="M42.73,35.62V23.22a.7.7,0,1,1,1.4,0v12.4a.74.74,0,0,1-.67.85A.75.75,0,0,1,42.73,35.62Z"/><path class="cls-3" d="M40,39.32V18.72a.8.8,0,1,1,1.5,0v20.6a.81.81,0,0,1-.82.89A.82.82,0,0,1,40,39.32Z"/><line class="cls-3" x1="42.73" y1="28.02" x2="41.53" y2="28.02"/><path class="cls-3" d="M44.13,28h2.5a1,1,0,0,1,0,2h-2.5"/><line class="cls-3" x1="41.53" y1="30.12" x2="42.73" y2="30.12"/><path class="cls-3" d="M120,113.12H97.63"/><path class="cls-3" d="M105.73,115.32h-8.2"/><path class="cls-3" d="M90.83,113.12a1.16,1.16,0,0,0-1.1,1,1.18,1.18,0,0,0,.9,1.2h.1"/><path class="cls-3" d="M94.73,120.82v-12.4a.8.8,0,0,0-.63-.91.81.81,0,0,0-.77.91v12.4a.7.7,0,0,0,1.4,0Z"/><path class="cls-3" d="M97.43,103.92v20.7a.78.78,0,0,1-.78.87.79.79,0,0,1-.72-.87v-20.7a.83.83,0,0,1,1.5,0Z"/><line class="cls-3" x1="95.93" y1="113.22" x2="94.73" y2="113.22"/><line class="cls-3" x1="90.83" y1="113.12" x2="93.33" y2="113.12"/><line class="cls-3" x1="90.63" y1="115.32" x2="93.33" y2="115.32"/><line class="cls-3" x1="94.73" y1="115.32" x2="95.93" y2="115.32"/><path class="cls-1" d="M77,32.22a7.73,7.73,0,0,0,1.2,5,8.63,8.63,0,0,0,3.3,2.9"/><path class="cls-3" d="M105.33,116a2.75,2.75,0,0,1,1.1-1.2c1.4-.8,2.6.3,5.3.4s3.6-.9,5.2,0a2.28,2.28,0,0,1,1.3,1.3c.4,1.3-1,2.7-1.1,2.8-1.6,1.5-4.1,1.3-7,1.1-2.7-.2-4.2-.3-5-1.5A3.74,3.74,0,0,1,105.33,116Z"/><path class="cls-2" d="M105.23,87.12s2.4-2.9,4.1-1.9"/><path class="cls-2" d="M84.33,18.32c-.6-5.8-3.8-10.7-8.3-12.3a11,11,0,0,0-5.8-.4,12.33,12.33,0,0,0-3.9,1.6,14.38,14.38,0,0,0-5.4,6.6,7.07,7.07,0,0,0-.5,1.6c-.2.4-.4,1-.6,1.4a6.55,6.55,0,0,1-.5-1.8,8.6,8.6,0,0,1-.1-1.6,24.27,24.27,0,0,0-.3-2.5c-.2-1.9,1.1-3.8,1.9-5a10.93,10.93,0,0,1,5.3-4.1,15.13,15.13,0,0,1,11-.5,15.39,15.39,0,0,1,6.3,4.2,17.16,17.16,0,0,1,1.7,8.1A12.42,12.42,0,0,1,84.33,18.32Z"/><path class="cls-2" d="M60.93,13.72c.09.76.75,6.25,1.2,9.2a11.93,11.93,0,0,0,.33,1.55,18.51,18.51,0,0,0,1.41,3.29c.2.41.49,1,.86,1.66l.9,1.4c.82,1.28.82,1.3.9,1.4a3.29,3.29,0,0,0,.86.81,7.38,7.38,0,0,0,2.24.89,6.53,6.53,0,0,0,4.2,0,13,13,0,0,0,1.2-.6c.39-.2.83-.47,1.7-1l.75-.46c.14-.1.53-.44,1-.84a6.58,6.58,0,0,0,1.5-1.7,15.73,15.73,0,0,0,2.2-5.2,12.88,12.88,0,0,1,.6-2.5,17.22,17.22,0,0,1,1.5-3.3"/><path class="cls-3" d="M38.63,246.32a9.56,9.56,0,0,1-1.6,5.5c-1.7,2.3-4.5,3.1-5.8,3.7-2,.9-2.8.9-5.3,2-1.6.8-4.2,2-4,2.8.1.5,1.5.8,3.2.9,5.6.3,8.9-1.3,13.4-1.8,7.2-.8,8.8-.3,9.9-.9.1-.1.3-.2.5-.4.9-1,.2-2.8-.3-5.4-.3-1.3-.2-1.2-.3-1.5a24.07,24.07,0,0,1-.4-4"/><path class="cls-3" d="M107.66,246.32a9.56,9.56,0,0,0,1.6,5.5c1.7,2.3,4.5,3.1,5.8,3.7,2,.9,2.8.9,5.3,2,1.6.8,4.2,2,4,2.8-.1.5-1.5.8-3.2.9-5.6.3-8.9-1.3-13.4-1.8-7.2-.8-8.8-.3-9.9-.9-.1-.1-.3-.2-.5-.4-.9-1-.2-2.8.3-5.4.3-1.3.2-1.2.3-1.5a24.07,24.07,0,0,0,.4-4"/></g><path class="cls-1" d="M67.39,33a10.67,10.67,0,0,1-.86,2.69,10.47,10.47,0,0,1-.7,1.3,14.36,14.36,0,0,1-1.67,2.26"/></g></g></svg>