<svg xmlns="http://www.w3.org/2000/svg" viewBox="0 0 811.62 178.67"><defs><style>.cls-1{fill:#447ab6;}.cls-2{fill:#0f2d4e;}.cls-3{fill:#2d4864;}</style></defs><g id="Calque_2" data-name="Calque 2"><g id="Calque_1-2" data-name="Calque 1"><g id="Calque_2-2" data-name="Calque 2"><g id="Calque_1-2-2" data-name="Calque 1-2"><path class="cls-1" d="M796.32,80.5c.1-.4,1-4.3,4.5-5.6,3.7-1.4,7.9,1,9.4,4a7.76,7.76,0,0,1,.5,5.4c-.2,1.2-.8,4-6,9.6a57.72,57.72,0,0,1-8.2,7.4,68,68,0,0,1-9.4-8.4c-2.9-3.1-4.3-5.2-5-8a7.67,7.67,0,0,1-.1-4.5c.9-3,4.3-6.2,8.2-5.5A7.94,7.94,0,0,1,796.32,80.5Z"/><path class="cls-2" d="M778.82,87.9c3.3-.1,6.7-.1,10-.2l-.2.1c.6-1.2,1.3-2.4,1.9-3.6l.2-.3.1.4,2.6,6.9h-.2c1-2.8,1.9-5.7,2.9-8.5l.1-.3.1.3c1.1,3.5,2.1,6.9,3.1,10.4H799l1.6-4.1,1.6-4.1.2-.4.2.4,1.8,3.4-.1-.1c2.4.1,4.9.1,7.3.3h-7.4v-.1l-1.9-3.3h.3L801,89.2l-1.6,4.1-.2.6-.2-.6c-1-3.5-2-7-2.9-10.5h.2c-1,2.8-2,5.7-2.9,8.5l-.1.3-.1-.2-2.7-6.9h.3c-.6,1.2-1.3,2.4-1.9,3.6v.1h-.1c-3.3-.1-6.7-.1-10-.3Z"/><path class="cls-2" d="M784,111.1c1.5-.2,3-.3,4.6-.5s3-.4,4.5-.7,3-.7,4.4-1.1a14,14,0,0,0,4.1-1.9,19.27,19.27,0,0,0,3.5-2.9,4.63,4.63,0,0,0,1.3-1.8c.2-.8-.8-.7-1.5-.6a5.79,5.79,0,0,0-2.1.7c-.6.4-1.2.9-1.9,1.3-1.3.9-2.6,1.6-3.9,2.4h0c-2.4,0-4.8.1-7.2,0h0c2.4-.2,4.8-.2,7.2-.4h-.1c1.3-.8,2.6-1.5,3.9-2.4.6-.4,1.2-.9,1.9-1.3a6.26,6.26,0,0,1,2.2-.7,2.44,2.44,0,0,1,1.2,0,.82.82,0,0,1,.6.4.85.85,0,0,1,0,.7,2.07,2.07,0,0,1-.6,1,6,6,0,0,1-.8.8,19.9,19.9,0,0,1-3.6,2.9,23.51,23.51,0,0,1-8.6,3.2,34.69,34.69,0,0,1-4.5.6c-1.5.2-3,.2-4.6.3Z"/><path class="cls-2" d="M796.92,105.8c.4-.8.8-1.5,1.2-2.3a3.92,3.92,0,0,1,.8-1,6.73,6.73,0,0,0,.7-1.1h0a6.42,6.42,0,0,1,1-1.3,4.19,4.19,0,0,1,1.4-.9,1.18,1.18,0,0,1,1,.1,1.23,1.23,0,0,1,.4.8,4.53,4.53,0,0,1-.3,1.6h0v-1.6a.55.55,0,0,0-.3-.5.64.64,0,0,0-.6,0,5.39,5.39,0,0,0-1.3.7,5.73,5.73,0,0,0-1.1,1.1h0c-.2.4-.5.7-.7,1.1a10.91,10.91,0,0,1-.6,1.1c-.4.7-1,1.4-1.5,2.1Z"/><path class="cls-2" d="M783.92,105.9a5.85,5.85,0,0,0,1.9-.4,9.06,9.06,0,0,0,1.6-1.1,4.55,4.55,0,0,1,1.9-.8,6.73,6.73,0,0,1,2-.1,25.79,25.79,0,0,0,3.9-.4,1.42,1.42,0,0,1,1.1.1.6.6,0,0,1,.3.6,1.27,1.27,0,0,1-.1.6,9.91,9.91,0,0,1-1.1,1.7h0a5.31,5.31,0,0,0,.8-1.7.76.76,0,0,0-.1-.7,1.1,1.1,0,0,0-.8,0,17.9,17.9,0,0,1-4,.2,4.52,4.52,0,0,0-2,.1,5.56,5.56,0,0,0-1.7.9,5.55,5.55,0,0,1-.8.6,4.05,4.05,0,0,1-.9.5,6.89,6.89,0,0,1-2-.1Z"/><path class="cls-2" d="M781.22,112a21.05,21.05,0,0,1,2.5.2l-.2.2a13.55,13.55,0,0,1,.2-2,13.4,13.4,0,0,0,.1-2c0-1.3-.1-2.6,0-4l.2.2a15,15,0,0,1-3,0h0c1-.2,2-.3,3-.4h.2v.2c0,1.3-.1,2.6-.2,3.9a13.4,13.4,0,0,0-.1,2v2.2h-.2a5.59,5.59,0,0,1-2.5-.5Z"/></g></g><polygon class="cls-3" points="522.57 40.44 523.32 40.19 523.53 40.05 522.57 40.44"/><path class="cls-3" d="M526.16,39.44l1.26-.44c-.82,0,.18-.31-1.85.25a18.69,18.69,0,0,0-2,.9c.5-.17,1.2-.51,1.94-.75-.29.17-1.08.45-1.44.64,1.22-.35.74-.31,2.07-.73Z"/><path class="cls-3" d="M527.57,38.7c-.1.08-.2.17-.17.2S528.1,38.55,527.57,38.7Z"/><path class="cls-3" d="M528.33,38.41c.81-.27,0,.11.11.1l.85-.51Z"/><path class="cls-3" d="M531.68,37.32l.37-.15A.7.7,0,0,0,531.68,37.32Z"/><path class="cls-3" d="M533.32,36.76a4.09,4.09,0,0,0-1.27.41h.06c.48-.07.11.26-.66.43s-.76.08-1.39.41c.32-.06.64-.11,1-.15A9.31,9.31,0,0,0,533.32,36.76Z"/><path class="cls-3" d="M531.68,37.32l-.44.14A1.42,1.42,0,0,0,531.68,37.32Z"/><polygon class="cls-3" points="529.99 37.84 529.59 38.01 529.71 38.04 529.99 37.84"/><path class="cls-3" d="M536.08,35.91c-.1.37-2,.54-2.14.85,1.09-.35,2-.35,1.85-.11l1.18-.42C537.34,36,536.75,35.88,536.08,35.91Z"/><path class="cls-3" d="M538.7,36.13A1.26,1.26,0,0,1,539,36C538.83,36.05,538.72,36.09,538.7,36.13Z"/><path class="cls-3" d="M544.71,34c-.92.36-1.84.69-2.76,1.06.24-.19.1-.3.74-.5-1.28.26-1.38.55-2.43.76-.41-.28,1.83-.48,1.15-.66a7.21,7.21,0,0,0-2.34.93c-.41,0-.82,0-1.22.08l.49.25c.5,0,.87-.52,1.23-.34.2.13-.27.27-.59.39.73-.26,2.14-.17,3.65-.55S543.7,34.48,544.71,34Z"/><polygon class="cls-3" points="544.94 34.5 545.17 34.64 544.98 34.43 544.94 34.5"/><path class="cls-3" d="M547.94,33.24l-1.44.6a1,1,0,0,1-.4-.15c.08.1-.28.37-.2.44.78.28,1.8-.49,2.59-.73,2.17-.19,0,.26.87.55-.6.09-.64,0-1.47.1,1.4.29,2.94-.48,3.75-.74-.25,0-.34-.16-.79,0l.84-.3C550.71,32.72,549.93,32.8,547.94,33.24Z"/><path class="cls-3" d="M545.27,33.81c.54-.16.76-.17.82-.12C545.92,33.6,545.71,33.56,545.27,33.81Z"/><path class="cls-3" d="M552.09,33.23a1.11,1.11,0,0,0-.45.08A1.28,1.28,0,0,0,552.09,33.23Z"/><path class="cls-3" d="M551.13,32.78l1.07-.12-.46-.16C551.6,32.55,551.08,32.67,551.13,32.78Z"/><path class="cls-3" d="M591.67,33.39c0-.33-.41-.52-1.23-.57.15-.37,1.2-.18,1.72-.3-1-.45.1-.46-.12-.89-1.2-.22-1.81.23-3.09-.05a.34.34,0,0,0-.07-.44c-1.6,0-4.28.15-5.78-.33a16.31,16.31,0,0,0-4.2,0c-5.34-.42-10.9,0-16.64.25l-.75.69c-.31-.28-1.36.12-1.24-.28a4.44,4.44,0,0,0,1-.09c-1.29-.44-3.24.41-4.72.41.18.07.49.54.06.68,0-.64-1.72.22-2.25-.4-1.48.07,0,.54-1.5.68-.1.37,1.48-.05,1.79.18-.42.35-1.38.08-1.25.44a20,20,0,0,0,2.15-.33c.82-.14,1.71-.32,2.65-.54,1.86-.45,3.91-.83,5.77-1.14l-.36.43c1.88-.4,5-.63,6.54.08-.36-.4,2.82.18,2.53-.74a4,4,0,0,0,1.32.27l.19-.3c1,0,.82.49,1.94.49-.73-.43.09-.53.43-.87,1.28.45,2.76,1,3.88,1.44a1.16,1.16,0,0,0-.56-.5c.77.19.66-.22.88-.35.75,0,.64.56.58.84,1.36.24,2-.71,3-.27l-.32-.48c1.43,0,2.57.6,4.14.69.67.73-1.34.33-2,.55.3.16,1,.27,1.15.51.7-.22,1.86-.5,2.73-.68C589.18,33,591.15,33.26,591.67,33.39Z"/><path class="cls-3" d="M587.34,33.1a4.83,4.83,0,0,0-.47.18,1.06,1.06,0,0,1,.52,0A.2.2,0,0,0,587.34,33.1Z"/><path class="cls-3" d="M591.67,33.39a.21.21,0,0,1,0,.07C591.85,33.45,591.81,33.42,591.67,33.39Z"/><path class="cls-3" d="M582.9,30.75a1.52,1.52,0,0,0,.2.06l.26,0Z"/><path class="cls-3" d="M581.59,32.66a10,10,0,0,0-1.16-.55C580.55,32.32,580.65,32.48,581.59,32.66Z"/><path class="cls-3" d="M572.1,31.81c-.29.07-.12.2-.32.33C572.38,32.15,572.58,32,572.1,31.81Z"/><polygon class="cls-3" points="589.01 33.45 590.2 33.48 590.65 33.42 589.01 33.45"/><path class="cls-3" d="M613.05,36.66c-.83-.87-2.44-1-3.66-1.49-2.38-.43-.62,1-2.82.45l.69-1c-2.22-.52-5.3-1.62-7.41-1-.14-.17-.49-.42.12-.45-1.49-.29-1.11,1.41-3,.6,2-.28-.47-.79.17-1.36l.31,0c-1.28-.18-3-.09-3.85-.29-.08.28.56.85-.55.69.44.13.2.43.12.71,1.2-.11,1.78.19,2.54-.06.57.48-.45,0,.12.53l1-.19c.65.23-.77.23.26.53a2.66,2.66,0,0,1,1.87,0l-.27.08c.66,0,1.51.37,1.34-.32l.6.78,0-.45c1.69.53,2.06,1.72,4.38,1.77-.49-.26,0-.35.35-.36-.84-.52-1.21,0-2.09-.15,0-.45,1.59-.55.59-1.08,1,.79,2.22.52,2.43,1.66,1.36.43,2,.13,3.36.78l-.09.14c.46-.58,1,.63,2.3.28l-.7-.37c.12-.25.49-.16,1,0-.09.08-.09.08,0,.26.31-.41,1.9.06,2.15,0a10.1,10.1,0,0,0-2.39-.35C612.41,36.79,612.42,36.35,613.05,36.66Z"/><path class="cls-3" d="M598.19,34.53l.5-.14A.76.76,0,0,0,598.19,34.53Z"/><path class="cls-3" d="M618.94,39.69c.83.43-.38.29.35.79,1,0-.76-1,.28-1.13.42.47,1.47.34,1.82.48-.49.09-.5.76-.39.94.39,0,1,.57,1.57.82-1.23-.93,1.24.27.16-.64.23-.29,1.64,0,2,.5-.14.22-.54,0-.9-.15-.47.33.77.61.79,1.1,1.58-.06,5.71,1.9,5,.41-.36-.39-.85-.34-1.35-.52,1.27.82-.23.51-.42.63-.5-.41-1.63-.56-1.25-.8l1.08.05a65.33,65.33,0,0,0-10.5-4.37l1.49.6c-.28.22-1,0-1.6-.11l.47,1c-.41-.22-.86-.27-.73-.51-.64.1-.46.38-.24.74-1.16-.28-1.25-.61-2.28-.43,1.65,1.21,1.76,0,3.67,1.34Z"/><polygon class="cls-3" points="614.73 38.6 615.31 38.39 614.55 38.33 614.73 38.6"/><path class="cls-3" d="M616,37.25c0,.17-.34.14-.37.31C616.48,38,616.46,37.72,616,37.25Z"/><path class="cls-3" d="M625.78,42.92l1.13.38-.65-.45C626.22,43,625.93,43,625.78,42.92Z"/><path class="cls-3" d="M634.13,44.93c-1.51-.72-2.3-.72-3.84-1.89-1,0,0,1-.51,1.15.79.5,1-.24,2,.06.15.51,1.32.54,2.09,1.06A.31.31,0,0,1,634.13,44.93Z"/><path class="cls-3" d="M638.52,48.87c.66.37,1.48.48,1.91.93-.18.15-.61,0-1-.27,0,.57.77.34,1.32,1,0-.08-.25-.3,0-.28,1.71,1.1,1.2.2,3.35,1.78.39.08.72.28.82,0A17.41,17.41,0,0,0,646.77,54c0-.18-.28-.82-.08-1.13,1.92,1.78,2.26,1.32,3.45,2.5a2.79,2.79,0,0,1-.74-.39c-.08.51,1.21.65,1.92,1.21l-.28.28a10.77,10.77,0,0,1,2.85,1.74l-.3,0a64.39,64.39,0,0,1,5.56,3.3l.71.69c2.21,1.23-2-1.48-.24-.81-.07.6,1.17.6,2.23,1.59.44.54-1.26-.74-.77-.12.41,0,.68.36,1.34.74-.27.1,1.29.94.75.88l2.43,1.21a7.36,7.36,0,0,0,1.42,1.1c-1.18-.86.49,0-.77-1-2-1.32-5.23-3.55-7.59-5.35-.47.12-1.56-1.08-2.13-1.07,0-.14-.11-.36-.1-.51-1.63-1,.25.44-.22.3-.73-.41-1.15-1-1-1.08-1.12-.78-.19,0-.9-.18l-.48-.9c-3.62-2.26-8.61-4.91-12.64-7.63l.11.54c-1.79-1.32-3.66-1-4.93-2.7l-.77,0c.42,0,0-.76.62-.76-.59-.15-1.08-.59-1.69-.76l.87.7a1.65,1.65,0,0,1-1.57-1c-1.66-.35.51,1.15.65,1.64,2.43.33,1.69,1.75,3.79,2.49C639.6,49.87,638.34,49,638.52,48.87Z"/><path class="cls-3" d="M636.57,46.47a1.28,1.28,0,0,0-.35-.06A2.14,2.14,0,0,0,636.57,46.47Z"/><path class="cls-3" d="M667,66.77l.52.36C667.75,67.22,667.45,67.05,667,66.77Z"/><path class="cls-3" d="M633.82,45.31h0Z"/><polygon class="cls-3" points="632.34 45.8 632.89 46.08 632.88 45.85 632.34 45.8"/><path class="cls-3" d="M672.13,70.74l.06-.07C672.13,70.66,672.09,70.67,672.13,70.74Z"/><path class="cls-3" d="M686.25,81.17l-.3-.23A3.4,3.4,0,0,0,686.25,81.17Z"/><path class="cls-3" d="M722,103.43c.55.18,1.18.42,1.8.58a7.27,7.27,0,0,0,1.69.25l-.17.19c.61.13,2.58.55,1.57-.35l-.36.08c-1.47-.24-.81-.78-1.78-1.36-1.29-.42-2.36,0-3.36-.69-.49-.2-.32-.38-.1-.47-1.06-.58-1.79-.17-2.58-.46.5-1.71-3.52-1.32-4.6-3.11a39.22,39.22,0,0,0-3.73-1.75c.87,0-1.17-.69-.67-.91-.41.29-1.26-.32-2.1-.91s-1.68-1.13-2-.77c-1.53-1.26-.11,0-1.92-1.37.06-.08.38.12.52.18-.66-.63-1.38-.41-1.78-1.16-1.5-1-.39,0-1.42-.35-1.53-1.12-1-.93-1.72-1.77-.36.23-1.19-.55-2.06-.91.18.14,1.2.93.43.56-1.78-1.29-1.58-.81-3.31-1.92-.66-.89,1.69,1.16.36-.1a14.54,14.54,0,0,0,2.72,1.33c-1.44-1-3.26-2.11-4.89-3.11-.85-.64.53.19-.14-.31-1.48-1.19-2.57-1.41-3.72-2.4l.34.07c-.85-.39-2.69-2-4.18-2.92.15.18.24.3,0,.2.21-.23-2.07-1.31-3.33-2.51,0,.24-1.43-.67-2.3-1.28-.27-.27-.16-.28-.12-.32,1.33,1.12,1.48.83,2.65,1.57-1-.59-2.46-1.8-3.34-2.28l.4.11c-1.26-1-1.32-.55-2.57-1.66h.2c-2.71-2-5.73-4.5-8.07-5.84-.26,0,.69,1,.7,1.05,1.36.85,2.21,1.26,3.24,1.91l-.12.14c.3.06,1.53.87.93.31.86.52.51.58,1.5,1.18-.19.09-.75-.3-.86-.18l.86.52c-.29-.13.45.4.16.28,1.62.91,2,1.59,3.62,2.64l-.83-.66c.06-.07.55.3.93.54a8.41,8.41,0,0,0,1.35,1.23A16.7,16.7,0,0,1,682,77.77c-.31,0,1.47,1.21,1.54,1.47.31,0,1.82,1.25,2,1.25.52.32,1.18.83,1.11.92l-.4-.24.49.37c-.06,0,0,0-.11,0,.43.33.53.2,1,.71,0,0-.35-.19-.61-.35,1.14.89,2.24,1.22,3.1,2.09.26.05,1.62,1,1.49.58.31.34,0,.42,1.06,1.1.71.21,1,.87,1.91,1.27-1.17-.49-.05.06-1.08-.36.62.58,1.83,1,3,1.86.09.14,0,.21.12.35.5.23,1.14.39,1.43.89l.06-.21a33.72,33.72,0,0,1,2.67,2.16l1.27.31a8.32,8.32,0,0,0,4.6,2.42c.5.34,1.22.9,1.16,1l-.67-.17c.75.49,1.51,1.35,2.19,1.18.87.33.41.63,1,1A9.25,9.25,0,0,1,713.39,99c1,.65,1.92,1.19,2.44.81-.65-.38-1.84-1.21-3.1-1.9.39.07.24-.27.72,0,1.28.65,1.75,1.35,3.12,1.86l-.5.58a6.52,6.52,0,0,0,3.19,1.57A4.35,4.35,0,0,1,722,103.43Z"/><path class="cls-3" d="M705.79,94.4l.73.82.05-.28A2.31,2.31,0,0,1,705.79,94.4Z"/><path class="cls-3" d="M706.57,94.94a4.58,4.58,0,0,0,.58.22,1.92,1.92,0,0,0-.57-.29Z"/><path class="cls-3" d="M725.92,105a3.4,3.4,0,0,0,1.05.45A2.07,2.07,0,0,0,725.92,105Z"/><polygon class="cls-3" points="727.14 105.28 726.7 104.96 726.6 105.02 727.14 105.28"/><path class="cls-3" d="M757,112l1.69-.2c.28.21,2.19.12,1.56.37,1-.31,3.17.16,2.38-.42a77,77,0,0,1-8.34-.71c-3-.4-6-.89-8.88-1.16l1-.1c-3,0-3.78-1.52-6.36-1l.46-.51c-1.24-.53-2.73.18-3.88-.88l.05.29c-.36-.11-.46-.27-.82-.39l.11.16a4.84,4.84,0,0,1-2.46-.76c0-.21.46.07.77.11-.36-.34-1.22-.17-1.94-.43-.5-.37.11-.28.22-.34-2.24-.5-2.94-1.52-4.79-1.24-.21.1.42.54-.38.29a8.53,8.53,0,0,0,3.94,1.2l-.36-.13c1.35-.52.7.49,2.49.68-.56.21-1.28,0-1.63,0,1.68,1.36,2.91.43,3.91,1.7l-.15,0a3.34,3.34,0,0,0,1.29.21,4.52,4.52,0,0,0-.79-.51,1.55,1.55,0,0,0,1-.39c.38.54.71,0,1.44.43.18.44-.75.14-1.11.25l1,0c.88.22.75.62,1.14.94.82-.08-.39-.31.32-.53.81.71,4.92,1.54,6.93,1.56-.68-.09-.3.32-1.11.1.28.14,1.37.16,1.42-.1a16,16,0,0,1,4.3.9l-.33-.31c1.12-.25,2.64.7,4.56.66h0c.61,0,1.18-.47,2.28-.26C757.53,111.78,756.93,111.7,757,112Z"/><path class="cls-3" d="M763.65,112l-.63.23c.68.09,1.54-.22,1.39-.39-.46,0-1-.11-1.13,0C763.35,111.87,763.34,112,763.65,112Z"/><path class="cls-3" d="M776.34,111.75c.24,0,.17-.1.27-.14a49.73,49.73,0,0,1-7.07.15c-.91-.07-1.06.27-2.2.34l-.52-.25c-.61.16-2.48-.19-1.82.25a3.89,3.89,0,0,1,1.06-.09l-.08.14,1.21,0-.39.17c1.67.23,1.15-.48,3.19-.34v.3c1.36,0,2-.13,3.25,0,0,0,0-.12-.23-.06s-.52-.09-.37-.17c2-.29-.31.17,1.13.19a60.22,60.22,0,0,1,6-.61c-.83,0,.38-.2,1.36-.28.45,0-.3.09-.46.14a11.05,11.05,0,0,0,1.29-.13c-.6,0-.23-.1.83-.21C780.49,111.18,778.68,111.57,776.34,111.75Z"/><path class="cls-3" d="M777,111.54a1.21,1.21,0,0,0-.4.07l.93-.07Z"/><polygon class="cls-3" points="300.73 161.68 300.37 161.78 300.27 161.86 300.73 161.68"/><path class="cls-3" d="M299,161.93l-.61.19c.44.16-.05.24.94.1.32-.16,1-.45.92-.47s-.57.25-.93.33c.13-.1.52-.21.68-.32a10.36,10.36,0,0,0-1,.28Z"/><path class="cls-3" d="M298.31,162.38c.05-.06.09-.13.07-.16S298.06,162.43,298.31,162.38Z"/><path class="cls-3" d="M298,162.53c-.39.1,0-.12-.08-.12s-.25.22-.37.34Z"/><path class="cls-3" d="M296.36,163l-.18.08C296.26,163.11,296.3,163.06,296.36,163Z"/><path class="cls-3" d="M295.58,163.28c.19.05.37-.07.6-.19h0c-.24,0-.09-.26.28-.31s.38,0,.67-.17h-.48A2.54,2.54,0,0,0,295.58,163.28Z"/><path class="cls-3" d="M296.36,163l.2-.08A.27.27,0,0,0,296.36,163Z"/><polygon class="cls-3" points="297.16 162.78 297.35 162.68 297.28 162.63 297.16 162.78"/><path class="cls-3" d="M294.28,163.69c0-.34.94-.25,1-.5-.52.16-1,0-.94-.16l-.55.24C293.61,163.44,293.93,163.63,294.28,163.69Z"/><path class="cls-3" d="M292.89,163.13a.27.27,0,0,1-.12.09C292.83,163.19,292.88,163.16,292.89,163.13Z"/><path class="cls-3" d="M290.15,164.53l1.23-.76c-.08.16,0,.28-.29.41.61-.11.61-.39,1.12-.47.25.31-.86.26-.48.5a1.75,1.75,0,0,0,1-.63l.61.08-.29-.31c-.26,0-.37.4-.58.18s.1-.23.25-.3c-.34.16-1.08-.08-1.79.12S290.59,164.19,290.15,164.53Z"/><polygon class="cls-3" points="289.96 164.06 289.82 163.9 289.95 164.12 289.96 164.06"/><path class="cls-3" d="M288.66,165l.61-.49c.09,0,.16.11.24.18-.06-.1.08-.33,0-.41-.44-.34-.83.34-1.18.53-1.06.05,0-.26-.53-.59.28,0,.32.06.72,0-.75-.37-1.4.26-1.75.5.13,0,.2.16.4.06l-.36.26C287.35,165.35,287.74,165.35,288.66,165Z"/><path class="cls-3" d="M289.91,164.7c-.25.1-.36.09-.4,0S289.72,164.89,289.91,164.7Z"/><path class="cls-3" d="M286.58,164.82c.05,0,.12,0,.21-.06A.27.27,0,0,0,286.58,164.82Z"/><path class="cls-3" d="M287.14,165.29l-.51.08.26.17C287,165.5,287.18,165.4,287.14,165.29Z"/><path class="cls-3" d="M268,168.69c.11.29.33.39.7.25,0,.4-.47.43-.66.71.56.14.09.46.31.81.57-.09.71-.65,1.34-.68a.56.56,0,0,0,.15.4,4.6,4.6,0,0,1,2.61-.88,4.44,4.44,0,0,0,1.9-.65c2.52-.39,5-1.38,7.72-1.74l.22-.69c.2.26.63-.16.65.24-.16,0-.28.06-.45.11.7.37,1.48-.43,2.21-.42-.1-.07-.34-.53-.16-.67.11.63.8-.2,1.19.44.72,0-.12-.52.61-.6,0-.36-.72,0-.92-.24.14-.33.67,0,.54-.38-1.19.05-3.1,1.28-4.77,2l.08-.43a3.55,3.55,0,0,1-3.13.34c.26.35-1.37.08-1,.95-.28-.15-.34-.1-.68-.11l0,.31c-.45.1-.49-.37-1-.23.44.33.09.53,0,.9-.71-.31-1.51-.56-2.13-.82a1,1,0,0,0,.38.41c-.39-.07-.24.31-.3.47-.34.1-.44-.44-.48-.72-.68,0-.73,1.07-1.29.84l.27.39c-.64.27-1.31-.11-2,.2-.49-.53.48-.65.72-1-.17-.1-.5-.06-.64-.25a14,14,0,0,1-1,1.29C269.14,168.45,268.23,168.69,268,168.69Z"/><path class="cls-3" d="M269.93,168a1.3,1.3,0,0,0,.15-.28.29.29,0,0,1-.23.1A.3.3,0,0,0,269.93,168Z"/><path class="cls-3" d="M268,168.69s0,0,0-.06S267.9,168.69,268,168.69Z"/><path class="cls-3" d="M272.52,169.32l-.11,0s-.08,0-.12,0Z"/><path class="cls-3" d="M272.61,167.25a3.68,3.68,0,0,0,.66.33C273.16,167.4,273.08,167.27,272.61,167.25Z"/><path class="cls-3" d="M277.18,166.77c.12-.1,0-.21.07-.35C277,166.46,276.9,166.61,277.18,166.77Z"/><polygon class="cls-3" points="269.1 168.01 268.58 168.26 268.4 168.42 269.1 168.01"/><path class="cls-3" d="M258.29,172.64c.59.43,1.26,0,1.89,0,1.07-.49-.08-1.18,1-1.45l0,1.13c1-.27,2.59-.36,3.29-1.51.11.12.33.24.09.46.69-.19,0-1.66,1.05-1.48-.74.87.42.59.33,1.33l-.12.11a16.07,16.07,0,0,1,1.69-.77c-.05-.29-.48-.65,0-.8-.23,0-.21-.35-.26-.64-.47.43-.81.3-1.06.75-.38-.31.18-.16-.2-.47l-.36.44c-.34,0,.25-.45-.27-.42,0,.23-.37.55-.77.58l.09-.15c-.27.21-.73.11-.46.7l-.48-.54.15.41c-.86,0-1.37-.93-2.32-.18.28.07.09.34,0,.45.5.2.48-.43.89-.58.15.41-.47,1.06.09,1.2-.65-.38-1,.28-1.48-.7-.69.07-.85.62-1.58.52v-.15c0,.69-.61-.2-1,.59l.39.08c0,.28-.13.32-.37.42,0-.11,0-.11-.1-.23,0,.5-.74.73-.81.89.34,0,.67-.45,1-.65C258.49,172.27,258.63,172.67,258.29,172.64Z"/><path class="cls-3" d="M264.88,169.43l-.16.29A.41.41,0,0,0,264.88,169.43Z"/><path class="cls-3" d="M255.07,172.38c-.45,0,0-.42-.4-.55-.38.41.62.57.28,1.13-.32-.23-.66.32-.84.36a1.27,1.27,0,0,0-.17-1c-.14.2-.56,0-.85,0,.76.25-.55.34.15.63,0,.37-.6.74-.91.51,0-.25.2-.24.38-.28.06-.51-.49-.18-.67-.6-.55.8-2.7,1.09-1.92,2,.26.17.42-.11.66-.19-.73-.11-.1-.56-.07-.76.33.13.78-.3.73.1l-.41.48a26.51,26.51,0,0,0,5.31-.91l-.75.1c0-.32.38-.4.63-.59l-.5-.68c.22,0,.41-.13.44.14.2-.37,0-.54-.15-.76.53-.25.67,0,1-.55-1-.43-.69.67-1.84.34Z"/><polygon class="cls-3" points="257.02 171.59 256.87 172.01 257.17 171.76 257.02 171.59"/><path class="cls-3" d="M257,173.31c0-.16.08-.26,0-.42C256.56,172.86,256.65,173.08,257,173.31Z"/><path class="cls-3" d="M251.47,172.66l-.54.22.39.07A.28.28,0,0,1,251.47,172.66Z"/><path class="cls-3" d="M247.82,175.06c.77-.18,1.05-.55,2-.33.36-.51-.33-.81-.21-1.24-.45,0-.28.72-.71.93-.23-.35-.65.18-1.1.16A.54.54,0,0,1,247.82,175.06Z"/><path class="cls-3" d="M244.92,174.07c-.36.05-.68.37-1,.25a.35.35,0,0,1,.43-.31c-.21-.48-.38.13-.81-.13,0,.05.19.11.1.23-1,0-.49.48-1.77.4-.16.16-.34.18-.27.48-.75-.27-.4-.32-1.28-.51,0,.16.38.51.42.87-1.27-.35-1.22.22-2,0a.76.76,0,0,1,.39-.11c-.16-.45-.63.18-1.07.14v-.39a2.51,2.51,0,0,1-1.56.27l.09-.2a17.05,17.05,0,0,1-3,.69l-.49-.12c-1.16.37,1.19,0,.37.5-.19-.52-.59.24-1.29.1-.34-.16.67-.18.29-.37-.12.27-.35.11-.7.23.06-.24-.75.06-.56-.22-.4.19-.81.38-1.22.55a1.64,1.64,0,0,0-.85,0c.68-.06-.16.31.62.35a28.19,28.19,0,0,1,4.38-.44c.11-.39.9-.07,1.09-.42,0,.13.16.23.21.35.89-.18-.24-.2,0-.37.38-.1.73.11.71.27.65-.05.06-.12.36-.39l.48.43,3.34-.63a17,17,0,0,1,3.59-.38l-.23-.38c1.07.09,1.59-1.18,2.64-.41l.25-.42c-.14.24.28.63,0,1,.26-.19.59-.07.86-.25l-.55-.13a.51.51,0,0,1,.91,0c.7-.57-.58-.7-.8-1-1,1-1.2-.59-2.19-.08C244.2,173.81,244.93,173.83,244.92,174.07Z"/><path class="cls-3" d="M246.43,175a.47.47,0,0,0,.14-.14A.92.92,0,0,0,246.43,175Z"/><path class="cls-3" d="M229.11,176.38l-.3,0C228.71,176.48,228.87,176.43,229.11,176.38Z"/><polygon class="cls-3" points="247.79 174.58 247.79 174.57 247.78 174.58 247.79 174.58"/><polygon class="cls-3" points="248.14 173.4 247.85 173.44 247.93 173.63 248.14 173.4"/><path class="cls-3" d="M226,176.45v.09S226.07,176.48,226,176.45Z"/><path class="cls-3" d="M217.73,176.94h.18A.55.55,0,0,0,217.73,176.94Z"/><path class="cls-3" d="M197.8,177a4.13,4.13,0,0,0-1.69.61l0-.23c-.29.1-1.25.44-.66.9l.16-.2c.7-.33.48.42,1,.59.65-.09,1.06-1,1.62-.75.26,0,.21.21.13.39.58.08.82-.6,1.22-.67.12,1.76,1.78-.44,2.62.64a7.59,7.59,0,0,0,2-.32c-.37.4.65,0,.49.46.2-.87,2,.29,2.11-.73.93.26,0-.06,1.12.14,0,.11-.19.12-.26.14.43.17.65-.42,1,0,.87,0,.14-.25.65-.49.9.09.65.2,1.16.52.07-.39.61-.22,1-.42-.11,0-.72-.07-.32-.22,1,0,.82-.24,1.8-.32.5.34-1,0-.11.29-.61.18-1.08.17-1.41.47a17.78,17.78,0,0,0,2.74-.3c.51,0-.25.16.15.17.9.09,1.37-.37,2.09-.27l-.15.15a19.16,19.16,0,0,1,2.42-.19c-.11-.06-.18-.1-.08-.15,0,.33,1.15-.22,2-.06-.07-.19.71-.34,1.22-.4.18,0,.14.13.15.18-.84-.06-.79.26-1.44.39.54-.14,1.44-.09,1.91-.26l-.18.16c.76,0,.64-.38,1.44-.29l-.07.11a25.56,25.56,0,0,0,4.7-.44c.1-.12-.56-.31-.6-.39-.74.17-1.16.39-1.74.53v-.19c-.12.14-.81.27-.42.34-.46.13-.37-.13-.9,0,0-.19.35-.24.34-.4l-.46.14c.14-.09-.29,0-.15-.13-.86.29-1.22,0-2.12.16h.51c0,.1-.29.11-.5.16a2,2,0,0,0-.87-.13,4.38,4.38,0,0,1-1.15.33c.11-.2-.9-.05-1-.21-.1.2-1,.1-1.11.23-.29,0-.68,0-.69-.07l.22,0h-.29s0-.05.05-.05c-.26,0-.25.16-.59.06,0-.06.18-.06.33-.09-.69,0-1.19.38-1.77.18-.1.12-.9.14-.71.41-.22-.09-.15-.31-.73-.26-.32.24-.64-.09-1.08.08.58-.27,0-.08.5-.33-.39-.11-1,.23-1.65.19-.07-.06-.07-.15-.14-.21-.26.09-.54.33-.8.08l0,.21a6,6,0,0,1-1.62-.32l-.58.45a2.2,2.2,0,0,0-2.45.42c-.29,0-.72-.12-.72-.25l.31-.19c-.42,0-.93-.37-1.17.11-.44.15-.32-.34-.64-.43-.88.7-2.57-.64-2.86.51a10.19,10.19,0,0,0,1.73.2c-.19.14,0,.36-.3.38-.69.06-1-.37-1.73-.18l.1-.75C199.8,176.36,198.68,178.13,197.8,177Z"/><path class="cls-3" d="M206.57,177.25l-.5-.32.05.26A.55.55,0,0,1,206.57,177.25Z"/><path class="cls-3" d="M206.12,177.19a1.08,1.08,0,0,0-.29.13.64.64,0,0,0,.31-.06Z"/><path class="cls-3" d="M195.81,177.06a.84.84,0,0,0-.54,0C195.41,177.12,195.7,177.17,195.81,177.06Z"/><polygon class="cls-3" points="195.22 177.26 195.47 177.4 195.51 177.31 195.22 177.26"/><path class="cls-3" d="M180.65,176.6l-.84.23c-.12-.19-1-.13-.71-.37-.53.31-1.5-.25-1.19.35,2.34.25,5.52,1.18,8.3.84l-.47.24c1.47-.42,1.88.89,3.12-.2l-.2.6c.63.24,1.3-.79,1.93-.06l-.05-.27c.18,0,.24.14.43.15l-.07-.12a1.2,1.2,0,0,1,1.23,0c0,.2-.22.07-.37.11.2.23.6-.19,1-.16.27.2,0,.3-.07.39,1.11-.22,1.57.5,2.39-.45.08-.18-.27-.35.13-.42-.7-.34-1.3,0-2,.25h.18c-.57.92-.38-.24-1.24.12.25-.37.61-.34.77-.54-.92-.78-1.41.46-2-.49l.07,0c-.13-.09-.4.07-.62.13.06.13.27.2.41.3-.22.07-.36.47-.45.63-.22-.42-.34.17-.72-.07-.11-.38.35-.31.51-.5l-.49.22c-.43,0-.39-.44-.59-.66-.39.25.2.22-.13.59-.42-.49-2.41-.52-3.38-.29.33,0,.15-.36.54-.27-.14-.09-.66,0-.69.3a3.16,3.16,0,0,1-2.06-.4l.15.27c-.56.34-1.26-.46-2.18-.35h0c-.3,0-.61.52-1.13.32C180.36,176.81,180.64,176.88,180.65,176.6Z"/><path class="cls-3" d="M177.43,176.56l.33-.21c-.31-.11-.76.14-.71.32.22,0,.49.16.55,0S177.58,176.55,177.43,176.56Z"/><path class="cls-3" d="M171.49,175.26c-.13,0-.1.06-.16.09a26.62,26.62,0,0,1,3.28.91c.42.17.55-.13,1.09-.11l.21.29c.31-.09,1.15.36.9-.12,0,0-.28.15-.52,0l.06-.13-.57-.07.2-.13c-.74-.37-.62.38-1.54,0l.05-.29a5.4,5.4,0,0,1-1.51-.39s0,.12.1.1.22.17.13.23c-1,0,.18-.12-.48-.37a8.68,8.68,0,0,1-2.83-.56c.36.19-.22.12-.67,0-.2-.1.16,0,.24,0a4.43,4.43,0,0,0-.59-.18c.26.12.07.16-.42,0A16,16,0,0,0,171.49,175.26Z"/><path class="cls-3" d="M171.14,175.33a.35.35,0,0,0,.19,0l-.43-.12Z"/><polygon class="cls-3" points="109.03 152.03 108.58 151.75 108.41 151.72 109.03 152.03"/><path class="cls-3" d="M107,150.52l-.78-.47c.31.51-.27.1.88,1a7.5,7.5,0,0,0,1.35.58c-.31-.18-.8-.38-1.25-.68.23.07.71.36,1,.45-.7-.51-.49-.25-1.27-.77Z"/><path class="cls-3" d="M105.94,150.17c.1,0,.2,0,.21,0S105.64,150,105.94,150.17Z"/><path class="cls-3" d="M105.45,149.92c-.48-.31.07-.1,0-.15l-.67-.15Z"/><path class="cls-3" d="M103.42,148.66l-.25-.12C103.23,148.62,103.32,148.63,103.42,148.66Z"/><path class="cls-3" d="M102.4,148.07a1.92,1.92,0,0,0,.77.47l0,0c-.24-.24.13-.24.55.09s.36.39.82.55l-.48-.48A4.58,4.58,0,0,0,102.4,148.07Z"/><path class="cls-3" d="M103.42,148.66a2.52,2.52,0,0,1,.27.15A.53.53,0,0,0,103.42,148.66Z"/><polygon class="cls-3" points="104.43 149.3 104.7 149.43 104.68 149.33 104.43 149.3"/><path class="cls-3" d="M100.73,147c.29-.2,1.16.78,1.42.66-.66-.4-1-.95-.81-1l-.76-.4C100.27,146.24,100.43,146.67,100.73,147Z"/><path class="cls-3" d="M99.82,145.35l-.2-.06A.42.42,0,0,0,99.82,145.35Z"/><path class="cls-3" d="M95.9,143.45l1.87.78c-.22,0-.23.16-.64-.06.7.55.94.39,1.52.85,0,.43-1.08-.71-.92-.19a3.32,3.32,0,0,0,1.59.67l.55.66,0-.47c-.21-.29-.71-.13-.73-.47s.29,0,.51.07c-.48-.24-1-1.11-1.88-1.71S96.63,143.69,95.9,143.45Z"/><polygon class="cls-3" points="96.12 142.98 96.11 142.75 96.05 143.01 96.12 142.98"/><path class="cls-3" d="M94,142.24l1,.34a.65.65,0,0,1,.07.34c0-.12.37-.11.38-.21-.14-.65-1.11-.63-1.61-.89-1.08-1,.2-.16,0-.87.33.26.28.36.72.73-.43-1-1.6-1.26-2.15-1.49.11.14,0,.29.34.45l-.58-.23C92.44,141.1,92.81,141.49,94,142.24Z"/><path class="cls-3" d="M95.51,143.3c-.33-.2-.43-.31-.43-.37C95.1,143.08,95.16,143.22,95.51,143.3Z"/><path class="cls-3" d="M92.14,140c0,.06.13.11.26.17A.5.5,0,0,0,92.14,140Z"/><path class="cls-3" d="M92.28,140.85l-.56-.47.1.36C91.91,140.77,92.23,141,92.28,140.85Z"/><path class="cls-3" d="M71.45,122.43c-.15.27-.06.56.39.9-.32.25-.8-.3-1.2-.37.37.7-.33.34-.45.75.58.59,1.2.46,1.78,1.15a.43.43,0,0,0-.22.37c.94.56,2.57,1.45,3.13,2.39a8.84,8.84,0,0,0,2.3,1.71,50.17,50.17,0,0,0,4.28,3.56c.74.58,1.49,1.17,2.23,1.79s1.51,1.2,2.25,1.85l.81-.17c0,.36.74.57.42.82a1.92,1.92,0,0,0-.54-.41c.35.93,1.8,1.29,2.49,2,0-.15.13-.66.42-.55-.43.47.95.72.78,1.46.71.73.34-.41,1.13.28.29-.22-.71-.73-.7-1.07.43,0,.68.67.86.34-1.24-1.16-4.1-2.47-6.31-3.8l.45-.15a6.46,6.46,0,0,1-3.24-3.08c-.07.47-1.35-1.4-1.78-.56-.12-.37-.22-.41-.53-.77l-.29.15c-.52-.43-.14-.72-.75-1.18.13.63-.38.37-.77.49-.38-.92-.88-1.92-1.22-2.73a1,1,0,0,0,0,.63c-.3-.47-.5-.1-.7-.08-.4-.32,0-.71.2-.9-.59-.75-1.6-.23-1.9-1l-.1.5c-.81-.57-1.12-1.44-2-2.08,0-.81,1,.22,1.51.3-.07-.24-.4-.57-.36-.83-.54-.08-1.39-.28-2-.44C72.7,123.62,71.69,122.72,71.45,122.43Z"/><path class="cls-3" d="M73.83,124.23a1.9,1.9,0,0,0,.38,0,.59.59,0,0,1-.29-.21A.23.23,0,0,0,73.83,124.23Z"/><path class="cls-3" d="M71.45,122.43s0,0,0-.06S71.39,122.36,71.45,122.43Z"/><path class="cls-3" d="M75,127.74a.83.83,0,0,0-.08-.12l-.12-.13Z"/><path class="cls-3" d="M76.87,126.75a6.75,6.75,0,0,0,.3.9C77.24,127.44,77.28,127.27,76.87,126.75Z"/><path class="cls-3" d="M81.49,131.38c.2.07.18-.1.37-.11C81.56,131,81.37,131,81.49,131.38Z"/><polygon class="cls-3" points="73.06 123.34 72.37 122.89 72.08 122.78 73.06 123.34"/><path class="cls-3" d="M59.66,113.45c.12.89,1.07,1.44,1.61,2.17,1.32,1,1-.66,2.1.4l-1,.59c1.14,1,2.54,2.77,4.16,3,0,.18.06.5-.34.33.77.69,1.5-.78,2.22.45-1.41-.38-.16.77-.9,1l-.2-.07c.69.54,1.8,1,2.19,1.48.21-.2.15-.86.74-.36-.19-.26.12-.41.34-.61-.8-.31-1-.74-1.59-.79-.07-.58.3.11.24-.46l-.72-.18c-.28-.39.62,0,.14-.5-.21.1-.8-.15-1.17-.58l.21,0c-.42-.2-.73-.77-1-.17l.07-.81-.23.37c-.74-1-.34-2-1.82-2.71.18.35-.23.27-.43.19.25.66.8.33,1.27.72-.23.36-1.33,0-1,.69-.22-.93-1.14-1-.64-2-.65-.73-1.26-.66-1.78-1.55l.14-.08c-.63.34-.34-.8-1.36-.86l.25.49c-.22.18-.4,0-.68-.23.1,0,.1,0,.12-.22-.43.26-1.27-.51-1.47-.52.26.41,1,.56,1.43.87C60.17,113.51,59.92,113.85,59.66,113.45Z"/><path class="cls-3" d="M68.1,119.39l-.39,0A.48.48,0,0,0,68.1,119.39Z"/><path class="cls-3" d="M57.25,109.59c-.34-.54.42-.14.18-.72-.67-.26,0,1-.79.85,0-.47-.82-.62-1-.81.39,0,.74-.5.76-.67-.29-.06-.42-.67-.69-1,.39,1-.74-.49-.44.47-.32.19-1.15-.36-1.2-.83.21-.15.38.12.56.31.51-.17-.23-.66,0-1.06-1.17-.26-3.1-2.71-3.35-1.35.06.39.44.45.7.7-.48-.92.42-.37.62-.43.15.45.88.8.48.91l-.74-.27a46.73,46.73,0,0,0,5.08,5.83l-.7-.84c.31-.11.67.26,1,.46l.21-.9c.17.27.45.42.23.58.5.06.52-.2.56-.54.66.5.53.79,1.33.9-.47-1.39-1.18-.45-1.81-2Z"/><polygon class="cls-3" points="59.56 111.48 59.05 111.51 59.54 111.74 59.56 111.48"/><path class="cls-3" d="M58,112.25c.11-.13.3,0,.41-.16C58,111.56,57.91,111.77,58,112.25Z"/><path class="cls-3" d="M54.11,105.51l-.62-.54.24.49C53.84,105.35,54,105.45,54.11,105.51Z"/><path class="cls-3" d="M49.08,102.26c.77.84,1.32,1,1.86,2.22.75.2.47-.76,1-.82-.33-.55-.87,0-1.4-.42.14-.43-.68-.69-1-1.23A.39.39,0,0,1,49.08,102.26Z"/><path class="cls-3" d="M47.77,98.32c-.32-.4-.86-.64-1-1.07.21-.08.46.11.61.38.27-.46-.41-.39-.5-1,0,.07,0,.28-.14.22-.77-1.15-.82-.35-1.69-1.95-.26-.13-.41-.34-.63-.12A7.64,7.64,0,0,0,44,92.94c-.11.14-.18.69-.48.91-.62-1.71-1.1-1.4-1.47-2.51a1.29,1.29,0,0,1,.39.43c.3-.4-.63-.7-.92-1.25l.35-.18a5.13,5.13,0,0,1-1.36-1.81l.25,0a43.18,43.18,0,0,1-2.8-3.41l-.22-.66c-1.14-1.29.87,1.46-.2.67.34-.45-.63-.64-1-1.57-.09-.49.64.76.55.21-.34,0-.35-.39-.7-.78.26,0-.58-.92-.19-.79-.46-.42-.91-.86-1.35-1.29a3.4,3.4,0,0,0-.61-1.06c.53.84-.4-.06.11.92a58.38,58.38,0,0,1,3.47,5.28c.44,0,.72,1.07,1.17,1.16-.08.11-.08.29-.16.41.8,1,0-.38.31-.2.37.43.42,1,.26,1,.51.78.16,0,.62.27l-.06.78c.85,1.18,2,2.47,3,3.83a44.57,44.57,0,0,1,3,4.2l.17-.44c.73,1.33,2.29,1.38,2.38,3l.58.12c-.32-.06-.36.62-.83.49.36.23.49.68.87.92l-.3-.71a.85.85,0,0,1,.65,1.1c1.07.58.19-1,.32-1.42-1.61-.72-.37-1.72-1.58-2.67C47.45,97.34,48,98.23,47.77,98.32Z"/><path class="cls-3" d="M48,100.59a.89.89,0,0,0,.23.1A.94.94,0,0,0,48,100.59Z"/><path class="cls-3" d="M34.21,79.88,34,79.52C33.85,79.42,34,79.6,34.21,79.88Z"/><path class="cls-3" d="M49.49,102h0Z"/><polygon class="cls-3" points="50.83 101.89 50.57 101.56 50.46 101.75 50.83 101.89"/><path class="cls-3" d="M32.06,76l-.08,0S32.06,76.1,32.06,76Z"/><path class="cls-3" d="M26.15,65.68l.12.23A1.71,1.71,0,0,0,26.15,65.68Z"/><path class="cls-3" d="M13.94,39.84a6.9,6.9,0,0,0-1.53-2l.25,0c-.27-.34-1.13-1.45-1.2-.48l.27.12c.71.78-.1.81,0,1.59.47.82,1.49,1,1.62,1.81.17.32-.07.36-.28.33.27.79,1,.82,1.33,1.31-1.51.9,1.42,2.16,1,3.7a17.41,17.41,0,0,0,1.46,2.41c-.58-.31.36.86-.12.84.88-.1.93,2.71,1.93,2.43.33,1.32.08,0,.55,1.51-.1,0-.21-.19-.28-.27.1.63.77.67.62,1.31.49,1.14.31.08.84.64.48,1.2.22.92.25,1.7.39-.06.58.7,1,1.18-.06-.15-.38-1,0-.51.61,1.37.73,1,1.4,2.2,0,.79-.62-1.25-.33,0-.54-.72-.82-1.33-1.29-1.62a29.27,29.27,0,0,0,2,3.4c.3.66-.3-.25-.06.26.49,1.2,1.2,1.61,1.56,2.58l-.23-.12c.45.47,1.07,2,1.74,3,0-.16,0-.27.08-.15-.29.14.95,1.37,1.33,2.51.11-.18.77.76,1.16,1.37.08.25,0,.24-.06.27-.49-1.09-.77-.88-1.3-1.66.46.63,1,1.79,1.5,2.31l-.27-.15c.53.94.78.64,1.22,1.69l-.15,0a45.3,45.3,0,0,0,3.58,5.76c.17.07-.1-.84-.06-.92-.66-.87-1.14-1.31-1.66-2l.17-.09c-.21-.09-.8-.9-.59-.38-.44-.53-.14-.52-.62-1.14.19,0,.44.35.58.28l-.42-.54c.17.15-.15-.38,0-.24a25.71,25.71,0,0,1-1.56-2.61l.34.63c-.09,0-.29-.31-.47-.57a4.31,4.31,0,0,0-.46-1.15A7,7,0,0,1,27.74,69c.25,0-.53-1.18-.45-1.39-.25-.05-.78-1.28-.93-1.32-.24-.34-.49-.85-.39-.9l.18.25L26,65.32s.05,0,.08,0c-.17-.33-.31-.26-.44-.73,0,0,.17.21.29.38-.42-.89-1.09-1.37-1.27-2.19-.17-.1-.7-1.1-.83-.76-.06-.31.19-.31-.22-1-.43-.31-.34-.87-.76-1.36.61.63.07,0,.61.51-.15-.55-.82-1.15-1.2-2.06,0-.12.1-.15.11-.27-.24-.29-.63-.56-.56-1L21.6,57a12.28,12.28,0,0,1-.72-2.22l-.76-.56a4.23,4.23,0,0,0-1.86-3c-.16-.38-.33-1-.22-1s.23.18.37.32c-.24-.56-.24-1.37-.81-1.49-.39-.5.12-.55,0-1-1.15-.86-1-3.62-2.16-3.51a17.88,17.88,0,0,0,.84,2.33c-.23-.18-.34.09-.52-.23-.46-.87-.29-1.5-.85-2.33l.73-.19C15.72,42.19,13.43,41.49,13.94,39.84Z"/><path class="cls-3" d="M18.92,51.4v-.78l-.21.18A1.05,1.05,0,0,1,18.92,51.4Z"/><path class="cls-3" d="M18.7,50.8a2.26,2.26,0,0,0-.29-.32,1,1,0,0,0,.24.37Z"/><path class="cls-3" d="M12.75,37.26a1.7,1.7,0,0,0-.29-.72A1,1,0,0,0,12.75,37.26Z"/><polygon class="cls-3" points="12.22 36.58 12.24 36.96 12.34 36.98 12.22 36.58"/><path class="cls-3" d="M4.64,17.1,4,16.1c.11-.24-.44-1.43,0-1.11-.56-.55-.6-2.09-1-1.4,1,3.2,2,7.81,3.8,11.31l-.47-.5c1.21,1.73.24,2.87,1.92,4H7.56c.14.94,1.45,1.36,1.15,2.51l.22-.18c.09.24,0,.37.09.62l.08-.14a2.55,2.55,0,0,1,.67,1.64c-.18.11-.2-.27-.32-.44-.09.36.51.7.69,1.18,0,.45-.28.11-.38.09.83,1.35.42,2.28,1.76,2.93.2,0,.16-.49.45,0a4.83,4.83,0,0,0-1.34-2.48l.09.24c-1.15-.35,0-.6-.81-1.57.47.15.65.64.92.76C11,32,9.6,31.93,10.14,30.75l.06.08c0-.22-.28-.5-.46-.77a2.05,2.05,0,0,0,0,.68c-.19-.27-.62-.28-.82-.32.26-.47-.35-.37-.35-1,.28-.32.48.32.75.45l-.48-.55c-.23-.57.17-.71.26-1.07-.45-.4-.09.36-.61.09.2-.77-.86-3.41-1.62-4.58.2.43.4,0,.53.59,0-.22-.4-.85-.65-.77a6.65,6.65,0,0,1-.78-2.9L5.77,21c-.62-.57-.28-1.86-.88-3v0c-.17-.39-.8-.56-.9-1.34C4.3,16.82,4.4,17.22,4.64,17.1Z"/><path class="cls-3" d="M2.93,12.84l.37.34c-.08-.47-.54-.94-.68-.79.13.29.12.72.28.73S3,13,2.93,12.84Z"/><path class="cls-3" d="M.91,4.37C.84,4.21.8,4.27.75,4.21,1.1,6,1.68,8.22,1.68,9s.41.65.68,1.39l-.14.4c.25.37.3,1.7.59,1.14,0-.06-.28-.3-.3-.67l.15,0-.25-.8.22.21c-.07-1.16-.67-.63-.84-2l.29-.07a10.86,10.86,0,0,1-.45-2.18s-.13,0,0,.17,0,.37-.13.29C1,5.53,1.65,7,1.53,6a17.69,17.69,0,0,1-1-4c0,.57-.21-.23-.3-.9,0-.31.09.2.15.3C.32,1.11.29.85.22.55.25,1,.12.72,0,0A17.08,17.08,0,0,0,.37,2.2C.54,2.9.75,3.58.91,4.37Z"/><path class="cls-3" d="M.66,4a.54.54,0,0,0,.09.26L.63,3.58Z"/></g></g></svg>