<svg xmlns="http://www.w3.org/2000/svg" viewBox="0 0 197.99 237.89"><defs><style>.cls-1,.cls-2{fill:none;stroke:#000;stroke-miterlimit:10;stroke-width:0.99px;}.cls-2{stroke-linecap:round;}</style></defs><g id="Calque_2" data-name="Calque 2"><g id="Tapis_course" data-name="Tapis course"><path class="cls-1" d="M101.5,92.63a91.09,91.09,0,0,0,3-13,91.33,91.33,0,0,0,1-11"/><path class="cls-1" d="M97.79,101.55c6.83,2.63,15.5,5.59,25.38,8.63,2.11,2.25,5.41,4,8.31,2.21.28-.2,2.8-2,2.7-4.77a4.39,4.39,0,0,0-.76-2.37,4.6,4.6,0,0,0-2.22-1.59,6.25,6.25,0,0,0-4.44.19c-6.41-2.66-11.38-4.67-14.54-5.95C107.44,96,104.8,95,101.64,92.62A32.09,32.09,0,0,1,95,86,46.42,46.42,0,0,1,103,71.46c4.92-6,9.53-8.36,11.24-14.54a18.39,18.39,0,0,0,0-9.26,6.15,6.15,0,0,0-1.32-2,6.34,6.34,0,0,0-2-1.32,7.28,7.28,0,0,0-2.65-.66A7.59,7.59,0,0,0,103.62,45"/><path class="cls-1" d="M97.76,101.64c0,.06-3.37,8.11-3.39,8.16l27.1,6.61c.12-.81.22-1.64.31-2.49.07-.59.36-2.23.68-4"/><path class="cls-1" d="M106.5,20.85a18.18,18.18,0,0,1,3.73,5.66c1.3,2.67-.19,5.73-2.64,11.24A42.2,42.2,0,0,1,103,45.68a96.82,96.82,0,0,0-5.6,9c-1.56,2.82-2.37,5-3,6.24-2.65,5.43-6.69,13.47-12.56,24.46a11.45,11.45,0,0,0-.66,5.29,12.08,12.08,0,0,0,.66,2.65c.63,1.64,6.53,4.63,16,8.27"/><path class="cls-1" d="M123.46,102.53a78.66,78.66,0,0,1,1.32-7.93c2.63-12,6.41-15.81,7.93-26.44.65-4.53,1-7.48,0-11.24-1.78-6.48-7.15-11.79-7.93-12.56-6.2-6.14-6.6-7.54-6.61-8.6a9.66,9.66,0,0,1,.33-2.13c.61-2.93.82-2.82,1-3a4.68,4.68,0,0,1,3-1c.72,0,.63.09,1,0,.55-.12,1.1-.49,3-3,.43-.57.61-.82,1-1,.88-.39,1.45.25,2,0,1.13-.52-.4-3.74,1-7,.62-1.47,1-1,2-3a16.56,16.56,0,0,0,1.07-2.88l.1-.21"/><path class="cls-1" d="M94.37,109.8a25.73,25.73,0,0,0-.87,12.83,28,28,0,0,0,5,11c1.68,2.43,2.64,3,7,8,2.55,3,4.62,5.38,6,7a205.47,205.47,0,0,1,18.4,36.45,204.77,204.77,0,0,1,8.71,28.64l9.33-1.54c-4-16.84-6.75-31.33-8.64-42.79-1.09-6.53-1.37-8.9-2.23-13a131,131,0,0,0-15.6-40"/><path class="cls-1" d="M113.54,152.11C97.15,170,90,172.31,87.1,172.61l-3,.28c-7.06.62-12.18.81-13.19.88Q48.52,175.44,27.42,178c-.19-3.14-.39-6.29-.58-9.43q14.42-2.66,29.38-5.75,13.11-2.73,25.71-5.64l15.43-24.35.14-.21h0c0-.09,0-.19.08-.29"/><path class="cls-1" d="M132.71,68.16q6-1.36,12.1-2.69l9.36-2c1.89-2.15,4.72-3.77,7.51-2.4,2.32,1.58,4.11,3.93,2.66,6.9a4.78,4.78,0,0,1-2.05,1.81c-1.34.58-2.34.2-4.46.37a14.43,14.43,0,0,0-3.3.66l-4.63,2c-3.68,1.59-6.08,2.65-6.74,2.94a79.28,79.28,0,0,1-13.75,4.33"/><path class="cls-2" d="M154.73,218.25a15.27,15.27,0,0,1-1.59-.32c-2-.49-3.67-.92-4.76-2.23a5.18,5.18,0,0,1-1.13-3.43"/><path class="cls-2" d="M139.32,213.59a4,4,0,0,1,.66,1.29,4.06,4.06,0,0,1,.1,1.85c0,.26,0,.17,0,1.26,0,2.2-.3,3.67.59,4.43.18.14.34.19.43.26.61.18,1.33,0,3.51-.27a22.94,22.94,0,0,1,3.81-.33c.7,0,1.35.09,2.79.11h2.53"/><path class="cls-2" d="M26.86,169.32a12.83,12.83,0,0,1-1.66.23,15.65,15.65,0,0,1-1.85,0c-.54,0-.91,0-1.26-.05-3.18-.15-4-.15-4.45.41-.15.17-.21.33-.28.41-.29.87.2,2,.29,7.35.14,3.26-1,6-.07,10,.26,1.23.57,2.23,1.07,2.23.76.05,1.38-2,1.87-3.25a27.15,27.15,0,0,0,1.09-4.1c.28-1.05.7-3.49,2.42-4.67a4.73,4.73,0,0,1,3.31-.72"/><line class="cls-2" x1="147.92" y1="101.21" x2="177" y2="84.02"/><line class="cls-2" x1="177" y1="50.97" x2="177" y2="84.02"/><line class="cls-2" x1="177" y1="50.97" x2="173.04" y2="54.93"/><line class="cls-2" x1="173.04" y1="54.93" x2="173.04" y2="81.38"/><line class="cls-2" x1="147.92" y1="101.21" x2="147.92" y2="96.58"/><line class="cls-2" x1="173.04" y1="81.38" x2="147.92" y2="96.58"/><line class="cls-2" x1="178.32" y1="208.96" x2="151.22" y2="99.23"/><line class="cls-2" x1="189.56" y1="208.96" x2="161.8" y2="93.28"/><path class="cls-2" d="M149.9,237.39q1.93-7.54,3.86-15.1,1.71-6.66,3.41-13.33"/><line class="cls-2" x1="157.17" y1="208.96" x2="197.5" y2="208.96"/><line class="cls-2" x1="197.5" y1="208.96" x2="197.5" y2="237.39"/><line class="cls-2" x1="197.5" y1="237.39" x2="149.9" y2="237.39"/><line class="cls-2" x1="153.2" y1="224.17" x2="6.45" y2="223.51"/><line class="cls-2" x1="6.45" y1="223.51" x2="0.5" y2="230.12"/><path class="cls-2" d="M150.55,237.39H63.3v-7.27h88.42"/><rect class="cls-2" x="6.45" y="230.12" width="21.15" height="7.27"/><line class="cls-2" x1="0.5" y1="230.12" x2="6.45" y2="230.12"/><line class="cls-2" x1="27.6" y1="230.12" x2="63.3" y2="230.12"/><path class="cls-1" d="M130.5,11.63a15.43,15.43,0,0,0-2-2c-.67-.55-5.59-4.59-10-3a10.43,10.43,0,0,0-3,2c-2.09,1.68-2.06,2.36-4,4-2.24,1.9-3,1.66-4,3a7.07,7.07,0,0,0-1,5,10,10,0,0,1,0-12,16.34,16.34,0,0,1,8-7,16.54,16.54,0,0,1,12,0c1.33.67,2.66,1.34,4,2a8,8,0,0,1,4,5,7.11,7.11,0,0,1,0,3,2.16,2.16,0,0,1-1,1A2.64,2.64,0,0,1,130.5,11.63Z"/><path class="cls-1" d="M70.19,74.79A18.64,18.64,0,0,0,64,89.13a18.42,18.42,0,0,0,6.19,12.74"/><path class="cls-1" d="M108.42,183.81A23,23,0,0,1,83,189.94"/></g></g></svg>