<svg xmlns="http://www.w3.org/2000/svg" viewBox="0 0 185.03 243.85"><defs><style>.cls-1,.cls-2{fill:none;stroke:#000;stroke-miterlimit:10;stroke-width:0.99px;}.cls-2{stroke-linecap:round;}</style></defs><g id="Calque_2" data-name="Calque 2"><g id="Squat"><path class="cls-1" d="M66.3,69a18.39,18.39,0,0,1-.84-9.16,11.73,11.73,0,0,1,1.67-5C70.44,50,77.18,51.29,78,48.15c.41-1.67-1.4-2.44-1.66-6.66a4.11,4.11,0,0,1,.83-3.33,3.08,3.08,0,0,1,1.66-.83,1.46,1.46,0,0,0,.84-.83c.21-.84-.91-1.71-1.67-2.5-1.46-1.54-1.55-2.81-2.5-5a27.66,27.66,0,0,0-5-7.49,11.89,11.89,0,0,0-1.28-.38A12.53,12.53,0,0,0,58,24a10.59,10.59,0,0,0-3.33,5.83c-.29,1.89.18,3.22-.83,4.16s-2.22.42-3.33,1.66a3.73,3.73,0,0,0-.83,1.67,5.1,5.1,0,0,0,.67,3.46,58.94,58.94,0,0,1,3.49,9,21.35,21.35,0,0,1,.83,6.66A26.18,26.18,0,0,1,51.31,69"/><path class="cls-1" d="M70.46,21.51A3.78,3.78,0,0,0,71.29,19c-.31-3.72-8-6.66-14.15-6.66a21.05,21.05,0,0,0-16.65,8.32,22.64,22.64,0,0,0-4.16,12.49c0,.22,0,.48,0,.83a16.92,16.92,0,0,0,4.54,10.5,17.38,17.38,0,0,0,12.67,5.07"/><path class="cls-1" d="M66.3,69a15.85,15.85,0,0,0-5-1.66,16.71,16.71,0,0,0-10,1.66,17.49,17.49,0,0,0-5,9.16c-1.13,6.57,3.2,9.21,5.83,19.14,1.25,4.76,3.86,14.62-.84,22.48-2.14,3.59-5.92,6.93-7.49,8.32-2.87,2.55-3.66,2.64-7.49,5.83-4.44,3.7-6.69,5.54-8.32,8.33-1.22,2.06-4.12,7-2.5,12.48a14.49,14.49,0,0,0,5.82,7.49c4.3,3.18,8.8,3.68,12.49,4.17,9,1.19,14,1.6,22.48,2.49a164.36,164.36,0,0,1,17.48,2.5c4.19.88,7.62,1.81,10,2.5a50.66,50.66,0,0,0-14.15,10,61.93,61.93,0,0,0-8.33,10.82c-3.38,5.15-6.33,9.49-8.32,15.81A54.7,54.7,0,0,0,60.47,228H71.29A87.59,87.59,0,0,1,78,215.47a63.35,63.35,0,0,1,12.49-15c3.16-2.7,4.71-3.38,8.32-5.83,10.91-7.41,21.1-14.33,20.81-21.64-.24-6.35-8.28-11.09-19.14-17.49a91,91,0,0,0-14.15-6.66,106.51,106.51,0,0,0-17.49-5,46.4,46.4,0,0,0,7.5-13.32,46.74,46.74,0,0,0,2.49-10.82V108.92a11.21,11.21,0,0,0,.39-1.53h0a10,10,0,0,1,1-2.51l.92-1.72c1.62-3,2.76-3.88,2.7-5.9-.09-2.83-2.5-5.82-2.5-5.82L78,87.28"/><path class="cls-1" d="M66.3,69c3,.61,7.29,1.48,12.48,2.5,9.08,1.78,13.62,2.67,17.48,3.33a281.29,281.29,0,0,0,30,3.33c5.51.38,12.57.73,20.81.83l17.48.83,5.83-.83c.88-.26,8.62-2.42,12.49,1.67l.07.07a5.32,5.32,0,0,1,1.59,4.09A4.12,4.12,0,0,1,182,88.11a4.81,4.81,0,0,1-2.47,0,14.8,14.8,0,0,1-2.53-.82l-2.5-.84c-1.25-.41-4-.68-10.82,0-16.59,1.74-29.49,2.31-38.29,2.5-7.72.17-12.23,0-13.32,0L88.77,87.28c-9.76-.12-10.09-.11-10.82,0-7.51,1-10,4.52-13.39,4.16-3.25-.35-5.74-4-6.59-6.66C56.26,79.43,59.46,72.55,66.3,69Z"/><path class="cls-1" d="M41.78,19.12a16.68,16.68,0,0,1-5.45-.1c-2.88-.88-5.22-4.9-5-8.33.4-5.89,8.34-9.27,13.32-10,1.15-.16,7-1,10.83,2.5.52.48,3,2.73,2.49,5a5.51,5.51,0,0,1-1.66,2.5,8.2,8.2,0,0,1-2.5,1.67L53,12.8"/><path class="cls-2" d="M71.29,228c-.26.58-1.86,4.29,0,7.49a7.51,7.51,0,0,0,2.5,2.5c2.23,1.45,4.21,1.32,7,1.72A31,31,0,0,1,88,241.61c0,.39-.53.9-1.18,1.14-3.48.19-6.45.39-8.51.48-8.25.36-2.57-.18-13.91,0-3.22.07-4.63,0-5.26-.88-1-1.43.7-3.44,1.44-7.69a21.39,21.39,0,0,0,.12-6.44"/><path class="cls-1" d="M3.63,172.59a22.5,22.5,0,0,0,8.42,14.73,22.52,22.52,0,0,0,22.61,2.19"/><path class="cls-1" d="M1.07,142.25a18.06,18.06,0,0,0,1.81,13.49A18,18,0,0,0,19,164.19"/></g></g></svg>