<svg xmlns="http://www.w3.org/2000/svg" viewBox="0 0 160.55 198.74"><defs><style>.cls-1{fill:#1b1464;}.cls-2{fill:#2e3192;}</style></defs><g id="Calque_2" data-name="Calque 2"><g id="Fente"><g id="Fente-2" data-name="Fente"><path class="cls-1" d="M21.38,149.35a30,30,0,0,0-.1-4.24,29.84,29.84,0,0,0-.68-4.18c-.3-1.38-.61-2.77-.88-4.17l-.77-4.2-.07-.42.4.09c4,.85,8,1.74,12.07,2.43l12.14,2.06c4,.73,8,1.67,12.07,2.3a32.56,32.56,0,0,0,12.17-.15.05.05,0,0,1,0,0s0,0,0,0a28.71,28.71,0,0,1-12.27.75c-4.09-.56-8.09-1.48-12.11-2.31l-12-2.47c-4-.84-8.08-1.46-12.13-2.12l.34-.33c.58,2.78,1.05,5.58,1.61,8.37a25,25,0,0,1,.32,8.53s0,0,0,0S21.38,149.37,21.38,149.35Z"/><path class="cls-1" d="M39.41,113.39a124.51,124.51,0,0,0-12.7-2.1,93.09,93.09,0,0,0-12.81-.64,15.34,15.34,0,0,0-6.16,1.28,8.48,8.48,0,0,0-2.49,1.88,8.84,8.84,0,0,0-1.62,2.71,29.92,29.92,0,0,0-1.93,6.11A31.12,31.12,0,0,0,1.15,129a57.25,57.25,0,0,0,.49,6.4c.29,2.13.56,4.26,1,6.34.91,4.17,2.29,8.25,3.6,12.34l3.95,12.27,3.91,12.28-.17-.12c2.36-.08,4.73-.1,7.1-.16a0,0,0,0,1,0,0s0,0,0,0c-2.36.15-4.72.32-7.09.45h-.13l0-.12-4.2-12.2c-1.4-4.06-2.71-8.15-4.05-12.24a123.28,123.28,0,0,1-3.46-12.45c-.41-2.13-.63-4.27-.87-6.41A55.64,55.64,0,0,1,.84,129a32.86,32.86,0,0,1,2.53-12.61A9.87,9.87,0,0,1,5,113.57a9.08,9.08,0,0,1,2.56-2A15.07,15.07,0,0,1,13.87,110a89.49,89.49,0,0,1,25.55,3.28.05.05,0,0,1,0,.05S39.43,113.4,39.41,113.39Z"/><path class="cls-2" d="M51.23,86.93a19.69,19.69,0,0,1,3.9,9.23c.29,1.66.42,3.34.62,5s.4,3.33.63,5c.11.83.25,1.66.33,2.5a8.46,8.46,0,0,1,0,2.61A3.52,3.52,0,0,1,55,113.32a7.74,7.74,0,0,1-2.49.81,19.66,19.66,0,0,1-5.08.12,32.08,32.08,0,0,1-5-.86s0,0,0,0a.05.05,0,0,1,0,0,36.58,36.58,0,0,0,9.91.09,8.17,8.17,0,0,0,2.27-.74,2.88,2.88,0,0,0,1.47-1.59,8.59,8.59,0,0,0,.08-2.39l-.16-2.5a54.81,54.81,0,0,0-1.43-9.91A29.1,29.1,0,0,0,51.17,87a0,0,0,0,1,0,0A0,0,0,0,1,51.23,86.93Z"/><path class="cls-1" d="M62.37,39.71A23.29,23.29,0,0,1,60.2,52.26a31.41,31.41,0,0,1-8.1,9.86,50.81,50.81,0,0,1-5,4c-.88.62-1.81,1.17-2.58,1.82a5.35,5.35,0,0,0-.55.51l-.45.61a6.87,6.87,0,0,0-.8,1.3,9.63,9.63,0,0,0-.77,6,8,8,0,0,0,3.51,5s0,0,0,0,0,0,0,0a8.57,8.57,0,0,1-2.52-2,7.72,7.72,0,0,1-1.5-2.9A9.67,9.67,0,0,1,42,70a7.41,7.41,0,0,1,.87-1.42l.49-.68a5.51,5.51,0,0,1,.62-.57c.88-.7,1.81-1.21,2.69-1.8,1.77-1.16,3.47-2.43,5.15-3.73a24.45,24.45,0,0,0,4.61-4.36A24.55,24.55,0,0,0,59.67,52a30.29,30.29,0,0,0,2.63-12.3,0,0,0,0,1,0,0S62.37,39.69,62.37,39.71Z"/><path class="cls-1" d="M82,95.61a27.5,27.5,0,0,0,2.88,9.31c.35.73.76,1.45,1.16,2.18s.77,1.46,1.17,2.18a36.22,36.22,0,0,1,2.16,4.48,11.35,11.35,0,0,1,.74,5,14.36,14.36,0,0,1-1.3,4.87,17.45,17.45,0,0,1-2.64,4.26,27.89,27.89,0,0,1-3.48,3.56l0,0a31.15,31.15,0,0,0,5.5-8.06,16.23,16.23,0,0,0,1.3-4.64,12.17,12.17,0,0,0-.44-4.79c-.9-3.17-2.89-5.87-4.64-8.68a18.81,18.81,0,0,1-2.43-9.59Z"/><path class="cls-1" d="M71.77,34.81a52.06,52.06,0,0,0,2.06,11.6A28.35,28.35,0,0,0,76,51.87c.92,1.76,2,3.45,2.78,5.27a29.28,29.28,0,0,1,2,5.65,46.19,46.19,0,0,1,.84,5.91,84.46,84.46,0,0,1,.2,11.9h-.07c-.26-3.95-.46-7.91-.86-11.82-.22-2-.38-3.93-.77-5.85a37.52,37.52,0,0,0-1.66-5.64c-1.39-3.69-3.9-6.88-5.17-10.7A31.89,31.89,0,0,1,71.7,34.81Z"/><path class="cls-2" d="M141.42,172.39a122.44,122.44,0,0,0-25.92,4A107.37,107.37,0,0,1,89.61,181a19.42,19.42,0,0,1-6.59-.76,13.25,13.25,0,0,1-5.5-3.77,27.08,27.08,0,0,1-3.59-5.6c-1-2-1.86-4-2.71-6-1.71-4.05-3.18-8.2-4.48-12.4S64.3,144,63.39,139.69l.07,0c1.14,4.24,2.37,8.45,3.77,12.6s3,8.24,4.67,12.28c.84,2,1.73,4,2.69,6A26.62,26.62,0,0,0,78,176a12.89,12.89,0,0,0,5.18,3.68,18.78,18.78,0,0,0,6.4.89,70.76,70.76,0,0,0,13-1.37,114.73,114.73,0,0,0,12.68-3.43,93.53,93.53,0,0,1,26.08-3.47Z"/><path class="cls-1" d="M93.9,161.36c.5,1.43,1,2.85,1.52,4.29l-.23-.13a95.64,95.64,0,0,1,13.23-2.22c4.46-.38,8.92-.65,13.38-.9a126.92,126.92,0,0,1,26.77,1.35l.18,0,0,.17a15.21,15.21,0,0,1,.05,5.43,8.78,8.78,0,0,1-.47,1.74l-.07,0a8.6,8.6,0,0,0,.34-1.75c.05-.59.07-1.19.07-1.78a14.86,14.86,0,0,0-.43-3.51l.22.21c-4.43-.54-8.87-.92-13.32-1.17s-8.91-.41-13.37-.36a99.12,99.12,0,0,0-13.33,1.07c-4.42.61-8.82,1.28-13.21,2.09l-.17,0,0-.16c-.44-1.46-.81-2.93-1.22-4.39Z"/><path class="cls-2" d="M89.47,120.31c0,2.53-.09,5-.18,7.55-.08,1.26-.17,2.52-.17,3.78a33.91,33.91,0,0,0,.25,3.76c.58,5,1.35,9.95,2.08,14.95h-.07A50.46,50.46,0,0,1,89,135.43c0-1.27,0-2.53-.09-3.79s-.17-2.52-.19-3.79a38.13,38.13,0,0,1,.7-7.54Z"/><path class="cls-2" d="M71.13,149.56a5.1,5.1,0,0,1-2.45-.15,3.62,3.62,0,0,1-1.91-1.6,8.14,8.14,0,0,1-.83-4.87,8.68,8.68,0,0,1,.21-1.24,7.64,7.64,0,0,1,.47-1.18,16.33,16.33,0,0,0,1-2.18,13.31,13.31,0,0,0,.75-4.68c-.08-3.25,0-6.51-.1-9.76s-.22-6.5-.46-9.75-.56-6.47-1-9.68S65.56,98.11,65,94.91c-.31-1.6-.68-3.18-1-4.79l-.76-4.82c-.5-3.22-1-6.44-1.34-9.68H62c.55,3.21,1.21,6.4,1.81,9.59L64.67,90l1,4.78c.66,3.19,1.39,6.36,1.79,9.61s.63,6.5.76,9.75c.2,6.51.39,13,.76,19.51a13.25,13.25,0,0,1-.76,4.91,15.82,15.82,0,0,1-1.07,2.23,6.83,6.83,0,0,0-.45,1.08,8.36,8.36,0,0,0-.21,1.15,7.93,7.93,0,0,0,.61,4.62,3.49,3.49,0,0,0,1.68,1.56,4.81,4.81,0,0,0,2.36.3Z"/><path class="cls-2" d="M67.73,48.44A10.66,10.66,0,0,1,73.22,50h0A19,19,0,0,1,80,60.44a20.38,20.38,0,0,1,.57,6.32A24.43,24.43,0,0,1,79.47,73v0c-.71,6.44-1.35,12.88-1.87,19.33s-.68,12.94-1.09,19.4l-.29,4.85c-.12,1.61-.33,3.23-.47,4.83q-.47,4.83-.7,9.67c-.07,1.61-.12,3.22,0,4.83a17.12,17.12,0,0,0,.22,2.38,5.36,5.36,0,0,0,.29,1.13l.42,1.14c.45,1.57,1.13,3.1.93,4.81a3.2,3.2,0,0,1-1.21,2.13,4.92,4.92,0,0,1-2.24,1v-.07a5,5,0,0,0,2.14-1,3,3,0,0,0,1-2c.13-1.57-.56-3.12-1-4.62l-.45-1.12a6.85,6.85,0,0,1-.34-1.21,20.45,20.45,0,0,1-.29-2.45c-.1-1.62-.1-3.25-.06-4.87,0-3.25.34-6.49.62-9.72l.46-4.82.34-4.85.71-9.68c.27-3.23.46-6.46.78-9.68C78,85.8,78.52,79.35,79,72.88h0v0a27,27,0,0,0,1-6.11,22.28,22.28,0,0,0-.54-6.15,19.5,19.5,0,0,0-2.37-5.68,17.64,17.64,0,0,0-4-4.66h0a10.41,10.41,0,0,0-5.31-1.74Z"/><path class="cls-2" d="M49.06,14.63A4.79,4.79,0,0,0,48.42,18,34.13,34.13,0,0,0,49,21.41l.72,3.45a15.72,15.72,0,0,1,.3,1.78,4.41,4.41,0,0,1-.23,1.84h0A6,6,0,0,1,49,30.1a1.48,1.48,0,0,0,0,1.52,15,15,0,0,0,1.16,1.29,8.64,8.64,0,0,1,1,1.44l1.84,3,.91,1.51.47.74c.15.22.34.53.45.56h0a2.76,2.76,0,0,0,1.91.24c.7-.08,1.41-.21,2.11-.36,1.41-.28,2.81-.65,4.21-1a32.26,32.26,0,0,0,4.08-1.28,11.21,11.21,0,0,0,3.54-2.23h0a9.63,9.63,0,0,0,.74-1,7.1,7.1,0,0,0,.58-1.09,6,6,0,0,0,.53-2.41s0,0,0,0a0,0,0,0,1,0,0,6.26,6.26,0,0,1-.31,2.53,7.34,7.34,0,0,1-.53,1.18,11.46,11.46,0,0,1-.68,1.07h0a6.42,6.42,0,0,1-1.71,1.46,18.27,18.27,0,0,1-1.93,1.08,26.61,26.61,0,0,1-4.18,1.39c-1.4.37-2.83.68-4.26,1-.72.13-1.44.25-2.18.31a6.19,6.19,0,0,1-1.14,0,2.25,2.25,0,0,1-1.15-.43l0,0a2,2,0,0,1-.64-.8l-.42-.78-.83-1.55c-.55-1-1.12-2.06-1.72-3.07a6.19,6.19,0,0,0-1-1.39,15.29,15.29,0,0,1-1.22-1.3,1.86,1.86,0,0,1-.09-1.84,6,6,0,0,0,.63-1.58h0a6.52,6.52,0,0,0-.2-3.35c-.24-1.15-.46-2.32-.66-3.48A23.11,23.11,0,0,1,48,18a4.59,4.59,0,0,1,1-3.38s0,0,.05,0A0,0,0,0,1,49.06,14.63Z"/><path class="cls-1" d="M56.9,8.82A9.55,9.55,0,0,1,62,7.6,15.89,15.89,0,0,1,67,9a24.71,24.71,0,0,1,4.56,2.52,36.41,36.41,0,0,1,4,3.39,14.48,14.48,0,0,1,3.08,4.25,9.92,9.92,0,0,1,.94,5.21,10.85,10.85,0,0,1-1.79,5,15.74,15.74,0,0,1-3.58,3.79l0-.05c2.42-2.42,4.42-5.42,4.68-8.77A10.48,10.48,0,0,0,78,19.4a16.76,16.76,0,0,0-2.76-4.25,20.44,20.44,0,0,0-3.81-3.45,20.31,20.31,0,0,0-4.64-2.19,20.44,20.44,0,0,0-4.88-1.37,11.35,11.35,0,0,0-5,.75Z"/><path class="cls-1" d="M75.83,198.74a18,18,0,0,1-7.58-1.56,23.5,23.5,0,0,1-3.33-2,20.82,20.82,0,0,1-3-2.49,14.61,14.61,0,0,1-3.78-6.8,16.42,16.42,0,0,1,0-7.76s0,0,0,0a0,0,0,0,1,0,0,23.11,23.11,0,0,0,.62,7.57,16.41,16.41,0,0,0,1.29,3.53,20.6,20.6,0,0,0,2,3.19A11.86,11.86,0,0,0,65.05,195a18.47,18.47,0,0,0,3.43,1.68,36.59,36.59,0,0,0,7.36,2,.05.05,0,0,1,0,.05Z"/><path class="cls-2" d="M102.15,196.34a12.79,12.79,0,0,1-5.93,1.82,18,18,0,0,1-3.12-.24,22.55,22.55,0,0,1-3-.61,13.79,13.79,0,0,1-9.15-8s0,0,0,0a0,0,0,0,1,0,0A22.47,22.47,0,0,0,85,193.8a20.19,20.19,0,0,0,2.43,1.78,19,19,0,0,0,2.7,1.36,10.07,10.07,0,0,0,3,.75,13.42,13.42,0,0,0,3-.12,30.27,30.27,0,0,0,6-1.29s0,0,0,0S102.16,196.33,102.15,196.34Z"/><path class="cls-1" d="M77.14,17.18a3,3,0,0,1,2,.66,1.76,1.76,0,0,0,.78.52,1.53,1.53,0,0,0,.94-.12,2.68,2.68,0,0,0,1.29-1.1,3.16,3.16,0,0,0,.28-1.77l.07,0a2,2,0,0,1,.33,2.14,2.21,2.21,0,0,1-1.89,1.14,9.32,9.32,0,0,1-1.06,0,3,3,0,0,1-1.06-.25,11.83,11.83,0,0,1-1.65-1.1Z"/><path class="cls-1" d="M64.73,8.34a4.19,4.19,0,0,1-2.55-.71,3.28,3.28,0,0,1-1.52-2.29,3.73,3.73,0,0,1,.7-2.66,5.57,5.57,0,0,1,2-1.78A10.67,10.67,0,0,1,68.54,0,12.48,12.48,0,0,1,73.7,1.19l-.06,0a9.92,9.92,0,0,1,2.35,1,11.56,11.56,0,0,1,2,1.52,12.47,12.47,0,0,1,1.67,1.88,6.11,6.11,0,0,1,1.09,2.25h-.07a7.49,7.49,0,0,0-1.35-2,16.23,16.23,0,0,0-1.75-1.67,15.4,15.4,0,0,0-2-1.34,11.84,11.84,0,0,0-2.16-1l0,0h0A14.84,14.84,0,0,0,68.52.42a7.46,7.46,0,0,0-5,.75A5.23,5.23,0,0,0,61.85,3a3.85,3.85,0,0,0-.59,2.28,3,3,0,0,0,1.18,2,4.78,4.78,0,0,0,2.3,1Z"/><path class="cls-1" d="M13,184.53a5.43,5.43,0,0,1-.63.88,3.92,3.92,0,0,1-.83.73h0a7.31,7.31,0,0,1-2.71,1.37c-1,.29-2,.47-2.93.68l-2.9.65c-.48.12-1,.25-1.42.39a6.42,6.42,0,0,0-.66.24c-.21.09-.41.21-.45.32v-.07a.86.86,0,0,0,.26.38,3,3,0,0,0,.5.35l-.08,0c2.74.13,5.48.22,8.22.1.68,0,1.36-.05,2-.12s1.35-.18,2-.24c1.37-.13,2.74-.2,4.11-.27l2.05-.1a10.08,10.08,0,0,0,2-.2.93.93,0,0,0,.62-.4,1.23,1.23,0,0,0,.18-.76,9.35,9.35,0,0,0-.56-1.87,17.79,17.79,0,0,1-1.07-4,14.64,14.64,0,0,1,.07-4.13s0,0,0,0a0,0,0,0,1,0,0,17.17,17.17,0,0,0,.29,4.06,21.17,21.17,0,0,0,1.24,3.86,7.76,7.76,0,0,1,.67,2,1.92,1.92,0,0,1-.27,1.21,1.68,1.68,0,0,1-1,.72,24.14,24.14,0,0,1-4.18.3c-1.37,0-2.74.08-4.1.15-.68,0-1.35.12-2.05.14s-1.38,0-2.07,0c-2.75-.07-5.49-.16-8.23-.08h0l0,0a2.9,2.9,0,0,1-.6-.38,2.17,2.17,0,0,1-.27-.26.78.78,0,0,1-.18-.43v-.07A1.23,1.23,0,0,1,.67,189a5.46,5.46,0,0,1,.71-.31c.48-.19,1-.31,1.45-.45,1-.26,2-.46,2.94-.64s2-.36,2.91-.58a7.56,7.56,0,0,0,2.66-1.13h0a3.82,3.82,0,0,0,.82-.6,5.82,5.82,0,0,0,.71-.78s0,0,0,0S13,184.51,13,184.53Z"/><path class="cls-1" d="M148.43,171.17a8.13,8.13,0,0,1,4.15.17,5.94,5.94,0,0,1,1.88,1,7,7,0,0,1,1.43,1.62v0a7.8,7.8,0,0,1,1.12,2.85c.18,1,.29,2,.4,3s.23,2,.37,2.94c.08.49.16,1,.26,1.46a6.2,6.2,0,0,0,.21.7c.08.21.18.46.33.51h0a.74.74,0,0,0,.47-.28,2,2,0,0,0,.33-.53v0c.2-2.73.37-5.48.44-8.21,0-.69.05-1.37,0-2s-.08-1.36-.09-2.05c0-1.38,0-2.76,0-4.13a25.64,25.64,0,0,0,0-4,1,1,0,0,0-1.06-.93,9.17,9.17,0,0,0-1.9.46,17.15,17.15,0,0,1-8.23.47,0,0,0,0,1,0,0,0,0,0,0,1,0,0,25.22,25.22,0,0,0,4.08-.06,18.3,18.3,0,0,0,3.95-.92,9,9,0,0,1,2.07-.56,1.65,1.65,0,0,1,1.2.37,1.85,1.85,0,0,1,.59,1.09,25.63,25.63,0,0,1,0,4.19c-.06,1.37-.11,2.74-.11,4.1,0,.68,0,1.35,0,2.06s-.06,1.39-.11,2.07c-.23,2.74-.55,5.47-.75,8.21h0v0a2.28,2.28,0,0,1-.36.6,1,1,0,0,1-.65.38h0c-.33-.14-.4-.43-.51-.66s-.16-.48-.23-.72c-.14-.48-.25-1-.36-1.46-.2-1-.38-1.95-.55-2.94-.33-1.95-.41-4-1.45-5.59v0a6.75,6.75,0,0,0-1.27-1.48,5.65,5.65,0,0,0-1.67-1,9.13,9.13,0,0,0-4-.48s0,0,0,0S148.41,171.18,148.43,171.17Z"/><path class="cls-2" d="M21.45,155.35a21.75,21.75,0,0,1,.43,5c-.05.84-.16,1.67-.21,2.51s0,1.67,0,2.51a31.68,31.68,0,0,1-1.21,10s0,0,0,0,0,0,0,0c.1-3.37.48-6.65.9-10a20.83,20.83,0,0,0,.17-2.49c0-.84-.11-1.68-.16-2.51a39.93,39.93,0,0,1,.09-5s0,0,0,0S21.45,155.34,21.45,155.35Z"/></g></g></g></svg>