<?xml version="1.0" encoding="utf-8"?>
<!-- Generator: Adobe Illustrator 25.4.1, SVG Export Plug-In . SVG Version: 6.00 Build 0)  -->
<svg version="1.1" id="Calque_1" xmlns="http://www.w3.org/2000/svg" xmlns:xlink="http://www.w3.org/1999/xlink" x="0px" y="0px"
	 viewBox="0 0 129.09 189.05" style="enable-background:new 0 0 129.09 189.05;" xml:space="preserve">
<style type="text/css">
	.st0{fill:none;stroke:#000000;stroke-width:0.2835;stroke-miterlimit:10;}
	.st1{fill:none;stroke:#000000;stroke-width:0.2835;stroke-linecap:round;stroke-linejoin:round;stroke-miterlimit:10;}
	.st2{fill:none;stroke:#000000;stroke-width:0.2835;stroke-linecap:round;stroke-miterlimit:10;}
	.st3{fill:none;stroke:#000000;stroke-width:0.2433;stroke-linecap:round;stroke-miterlimit:10;}
	.st4{fill:none;stroke:#000000;stroke-width:0.306;stroke-linecap:round;stroke-miterlimit:10;}
</style>
<path class="st0" d="M41.33,34.42c0.93-1.3,2.45-2.92,4.75-3.77c3.45-1.28,6.81-0.16,8.09,0.27c1.53,0.51,1.92,0.94,4.58,1.89
	c1.6,0.57,2.94,0.95,3.82,1.17c0.24-0.13,0.61-0.33,1.04-0.6c0.82-0.52,1.05-0.8,1.61-1.1c0.62-0.34,1.09-0.42,1.62-0.55
	c1.64-0.39,2.54-0.93,3.42-1.26c2.74-1.02,6.22-0.37,7.86-0.05c2.7,0.51,4.9,1.48,6.52,2.39c-0.16,3.58-0.92,6.26-1.62,8.09
	c-0.82,2.16-1.72,3.55-2.27,6.41c-0.28,1.47-0.34,2.55-0.4,4.35c-0.13,3.71,0.41,5.97-0.05,12.96c-0.71,10.66-3,21.06-3,21.06
	c-10.12,0-20.24,0-30.37,0c-2.31-9.54-2.49-16.86-2.2-21.86c0.25-4.42,0.89-7.24-0.2-11.76c-0.92-3.82-2.39-6.04-3.04-10.89
	C41.12,38.32,41.2,35.95,41.33,34.42z"/>
<path class="st1" d="M63.16,108.85c-0.57,0.33-1.41,0.86-2.34,1.62c-3.97,3.26-4.66,6.77-7.19,12.49c-3.24,7.34-4.66,7.37-7.64,15.1
	c-1.23,3.19-1.85,4.83-2.04,6.69c-0.48,4.74,1.33,6.46,1.77,13.18c0.11,1.63,0.03,3.51-0.13,7.26c-0.42,9.73-1.3,7.91-1.01,11.62
	c0.1,1.32,0.28,2.7-0.56,3.58c-0.54,0.57-1.01,0.4-4.31,0.81c-2.28,0.28-2.97,0.48-3.42,0c-0.4-0.42-0.2-0.94-0.27-2.43
	c-0.02-0.48-0.17-1.31-0.45-2.97c-1.03-6-1.98-10.07-1.98-10.07c-3.45-14.9-5.17-22.35-5.27-23.39c-0.62-6.6,1.1-9.29,9.49-31.62
	c2.16-5.75,5.35-14.37,9.12-25.07c10.12,0,20.24,0,30.37,0c4.61,10.73,8.4,18.95,10.94,24.35c0,0,7.76,16.5,10.14,30.32
	c0.15,0.85,0.17,1.7,0.17,1.7s0.03,1.14-0.16,2.3c-0.95,5.76-6.2,22.21-6.2,22.21c-1.09,3.42-2.38,8.42-2.97,14.83
	c-0.79,0.49-2.36,1.3-4.45,1.35c-1.13,0.03-2.85,0.07-3.71-0.98c-0.86-1.06-0.24-2.5,0.06-4.82c0.31-2.41-0.07-3.14-0.4-7.28
	c-0.4-4.92-0.69-8.49-0.13-12.36c1.01-7.03,3.77-7.83,3.1-12.58c-0.16-1.11-1.31-3.36-3.55-7.91c-1.66-3.36-2.29-4.29-5.21-9.89
	c-2-3.83-2.99-5.74-3.33-6.47c-2.9-6.23-3.27-8.86-6.11-10.61C64.56,109.26,63.69,108.99,63.16,108.85z"/>
<path class="st0" d="M80.5,49.37c5.3,4.1,10.14,5.57,13.04,6.17c5.1,1.06,6.98,0.01,7.73-0.54c1.71-1.24,2.12-3.1,2.7-5.03
	c2.14-7.16,3.73-5.83,6.65-14.02c2.42-6.8,1.09-7.07,3.62-13c0.75-1.75,1.38-3.59,2.49-7.32c1.16-3.88,1.34-5.3,0.54-6.29
	c-0.6-0.75-1.73-1.2-2.7-1.08c-1.22,0.15-1.39,1.12-2.88,1.62c-1.6,0.54-2.32-0.27-3.06,0.18c-1.52,0.93,0.6,4.93,0.18,9.17
	c-0.4,4.01-2.67,4.15-6.47,10.79c-4.05,7.09-4.39,12.06-6.47,12.04c-1.25-0.01-1.61-1.79-3.96-4.31c-2.51-2.7-5.32-4.15-7.28-4.94"
	/>
<path class="st0" d="M41.33,34.42c-4.37,3.85-6.18,7.48-7.02,10.17c-0.67,2.15-1.19,5.22-2.29,5.27c-0.18,0.01-0.56-0.06-1.76-1.85
	c-1.31-1.96-2.03-3.62-2.17-3.94c-1.49-3.48-2.27-5.53-2.27-5.53c-1.63-4.26-1.46-3.91-2.22-5.85c-2.05-5.25-2.42-5.51-2.69-7.33
	c-0.07-0.45-0.05-2.23,0-5.75c0.06-4.62,0.11-6.52-0.9-7.01c-0.58-0.29-0.82,0.24-2.16,0.18c-1.93-0.08-2.52-1.22-3.78-1.08
	c-1.51,0.17-2.45,2.01-2.52,2.16c-1.19,2.43,0.66,4.79,2.03,9.51c0.44,1.5,0.71,3.5,1.27,7.49c1.39,9.94,0.31,11.7,2.38,15.85
	c0.58,1.17,1.5,2.64,3.35,5.59c1.4,2.24,2.23,3.57,3.3,5.06c3.5,4.86,5.52,7.65,7.98,7.55c0.84-0.03,2.35-1.23,5.39-3.6
	c1.83-1.42,2.74-2.13,3.6-3.06c1.07-1.15,2.58-3.13,3.67-6.19"/>
<path class="st0" d="M66.85,31.73c-1.03-0.95-2.12-2.29-1.94-3.73c0.24-1.93,2.67-3.26,2.62-3.33c-0.06-0.08-2.6,2.75-6.02,3.06
	c-0.44,0.04-1.62,0.13-2.97-0.36c-2.32-0.84-3.51-2.82-3.73-2.65c-0.34,0.25,2.72,4.44,1.6,5.82c-0.23,0.28-0.66,0.48-0.62,0.8
	c0.04,0.34,0.57,0.52,1.24,0.77c2.64,0.96,1.68,0.7,2.94,1.11c1.55,0.5,2.33,0.75,2.84,0.61c0.8-0.22,0.9-0.72,2.04-1.36
	C65.62,32.03,66.35,31.83,66.85,31.73z"/>
<path class="st1" d="M79.26,62"/>
<path class="st0" d="M83.12,12.94"/>
<path class="st0" d="M64.97,32.57"/>
<path class="st0" d="M20.63,22.07"/>
<path class="st2" d="M54.8,24.72c-0.76-1.66-1.55-2.9-2.16-3.73c-0.94-1.29-1.73-2.08-2.38-3.69c-0.35-0.87-0.49-1.57-0.58-2.02
	c-0.25-1.25-0.93-4.69,0.65-7.75c0.92-1.77,2.17-2.63,2.34-4.3c0.04-0.41,0.52-1.1,0.22-1.7c-0.3-0.59-1.04-0.65-1.01-0.9
	c0.03-0.3,1.17-0.5,2.29-0.45c1.22,0.06,1.59,0.38,2.56,0.49c1.37,0.17,1.67-0.34,3.15-0.49c1.97-0.2,3.57,0.49,6.38,1.71
	c1.17,0.51,1.75,0.76,2.2,1.12c0.62,0.5,1.27,1.24,2.85,4.73c0.6,1.33,0.9,1.99,0.99,2.29c0.89,2.87-0.15,5.58-1.24,8.45
	c-0.59,1.56-1.69,3.79-3.55,6.2"/>
<path class="st1" d="M44.01,180.4c0.41,0.87,0.91,2.12,1.26,3.69c0.27,1.21,0.41,1.82,0.27,2.16c-0.97,2.33-9.13,0.7-13.39-0.63
	c-1.92-0.6-3.8-1.38-4.17-2.86c-0.12-0.47-0.13-1.24,0.3-1.63c0.42-0.38,0.99-0.18,3.15,0.27c2.35,0.49,3.46,0.62,4.47,0.07
	c0.17-0.09,0.3-0.19,0.38-0.25"/>
<path class="st1" d="M81.07,181.76c-0.31,0.94-0.69,2.23-1.01,3.82c-0.26,1.25-0.38,1.89-0.27,2.16c0.97,2.33,9.13,0.7,13.39-0.63
	c1.92-0.6,3.8-1.38,4.17-2.86c0.12-0.47,0.13-1.24-0.3-1.63c-0.42-0.38-0.99-0.18-3.15,0.27c-2.27,0.47-3.85,0.78-4.47,0.07
	c-0.19-0.21-0.39-0.64-0.2-1.56"/>
<path class="st2" d="M20.86,14.51c1.95-0.01,3.89-0.03,5.84-0.04"/>
<path class="st2" d="M21.05,16c1.88-0.01,3.76-0.02,5.63-0.03"/>
<path class="st2" d="M31.27,14.48c0.4,0.01,0.72,0.3,0.76,0.66c0.05,0.41-0.29,0.77-0.58,0.81c-0.04,0.01-0.08,0-0.11,0"/>
<path class="st2" d="M26.8,8.01c0.01-0.29,0.22-0.53,0.48-0.56c0.29-0.03,0.55,0.21,0.58,0.43c0,0.03,0,0.06,0,0.08"/>
<path class="st2" d="M4.52,7.94C4.53,7.65,4.74,7.41,5,7.38C5.3,7.35,5.55,7.59,5.58,7.81c0,0.03,0,0.06,0,0.08"/>
<path class="st2" d="M27.86,22.57c-0.01,0.29-0.22,0.53-0.48,0.56c-0.29,0.03-0.55-0.21-0.58-0.43c0-0.03,0-0.06,0-0.08"/>
<path class="st2" d="M29.9,19.68c-0.01,0.29-0.22,0.53-0.48,0.56c-0.29,0.03-0.55-0.21-0.58-0.43c0-0.03,0-0.06,0-0.08"/>
<path class="st2" d="M3.69,19.89c-0.01,0.29-0.22,0.53-0.48,0.56c-0.29,0.03-0.55-0.21-0.58-0.43c0-0.03,0-0.06,0-0.08"/>
<path class="st2" d="M11.32,14.51c-1.87,0-3.74,0-5.61,0"/>
<path class="st2" d="M11.13,16c-1.82,0-3.65,0-5.47,0"/>
<path class="st2" d="M0.91,14.48c-0.4,0.01-0.72,0.3-0.76,0.66c-0.05,0.41,0.29,0.77,0.58,0.81c0.04,0.01,0.08,0,0.11,0"/>
<line class="st2" x1="27.86" y1="8.01" x2="27.86" y2="22.57"/>
<line class="st2" x1="26.8" y1="8.01" x2="26.8" y2="22.57"/>
<path class="st2" d="M28.84,10.9c0.01-0.29,0.22-0.53,0.48-0.56c0.29-0.03,0.55,0.21,0.58,0.43c0,0.03,0,0.06,0,0.08"/>
<line class="st2" x1="29.9" y1="10.9" x2="29.9" y2="19.68"/>
<line class="st2" x1="28.84" y1="10.9" x2="28.84" y2="19.68"/>
<path class="st2" d="M2.62,11.1c0.01-0.29,0.22-0.53,0.48-0.56c0.29-0.03,0.55,0.21,0.58,0.43c0,0.03,0,0.06,0,0.08"/>
<line class="st2" x1="3.69" y1="11.1" x2="3.69" y2="19.89"/>
<line class="st2" x1="2.62" y1="11.1" x2="2.62" y2="19.89"/>
<path class="st2" d="M5.58,22.5c-0.01,0.29-0.22,0.53-0.48,0.56c-0.29,0.03-0.55-0.21-0.58-0.43c0-0.03,0-0.06,0-0.08"/>
<line class="st2" x1="5.59" y1="7.94" x2="5.59" y2="22.5"/>
<line class="st2" x1="4.52" y1="7.94" x2="4.52" y2="22.5"/>
<line class="st2" x1="28.03" y1="14.47" x2="28.71" y2="14.47"/>
<line class="st2" x1="30.02" y1="14.49" x2="31.27" y2="14.48"/>
<line class="st2" x1="31.34" y1="15.95" x2="29.9" y2="15.96"/>
<line class="st2" x1="28.84" y1="15.97" x2="27.86" y2="15.98"/>
<path class="st2" d="M117.76,12.16c1.95-0.01,3.89-0.03,5.84-0.04"/>
<path class="st3" d="M117.28,13.64c2.1-0.01,4.21-0.01,6.31-0.02"/>
<path class="st2" d="M128.18,12.13c0.4,0.01,0.72,0.3,0.76,0.66c0.05,0.41-0.29,0.77-0.58,0.81c-0.04,0.01-0.08,0-0.11,0"/>
<path class="st2" d="M123.7,5.66c0.01-0.29,0.22-0.53,0.48-0.56c0.29-0.03,0.55,0.21,0.58,0.43c0,0.03,0,0.06,0,0.08"/>
<path class="st2" d="M124.76,20.22c-0.01,0.29-0.22,0.53-0.48,0.56c-0.29,0.03-0.55-0.21-0.58-0.43c0-0.03,0-0.06,0-0.08"/>
<path class="st2" d="M126.8,17.33c-0.01,0.29-0.22,0.53-0.48,0.56c-0.29,0.03-0.55-0.21-0.58-0.43c0-0.03,0-0.06,0-0.08"/>
<line class="st2" x1="124.76" y1="5.66" x2="124.76" y2="20.22"/>
<line class="st2" x1="123.7" y1="5.66" x2="123.7" y2="20.22"/>
<path class="st2" d="M125.74,8.55c0.01-0.29,0.22-0.53,0.48-0.56c0.29-0.03,0.55,0.21,0.58,0.43c0,0.03,0,0.06,0,0.08"/>
<line class="st2" x1="126.8" y1="8.55" x2="126.8" y2="17.33"/>
<line class="st2" x1="125.74" y1="8.55" x2="125.74" y2="17.33"/>
<line class="st2" x1="124.93" y1="12.12" x2="125.61" y2="12.12"/>
<line class="st2" x1="126.92" y1="12.14" x2="128.18" y2="12.13"/>
<line class="st2" x1="128.24" y1="13.6" x2="126.8" y2="13.61"/>
<line class="st2" x1="125.74" y1="13.62" x2="124.76" y2="13.63"/>
<line class="st2" x1="4.52" y1="14.51" x2="3.69" y2="14.51"/>
<line class="st2" x1="0.91" y1="14.48" x2="2.62" y2="14.47"/>
<line class="st2" x1="0.73" y1="15.95" x2="2.62" y2="15.95"/>
<line class="st2" x1="3.69" y1="16" x2="4.52" y2="16"/>
<path class="st2" d="M101.08,5.66c0.01-0.29,0.22-0.53,0.48-0.56c0.29-0.03,0.55,0.21,0.58,0.43c0,0.03,0,0.06,0,0.08"/>
<path class="st2" d="M100.24,17.61c-0.01,0.29-0.22,0.53-0.48,0.56c-0.29,0.03-0.55-0.21-0.58-0.43c0-0.03,0-0.06,0-0.08"/>
<path class="st2" d="M107.87,12.23c-1.87,0-3.74,0-5.61,0"/>
<path class="st4" d="M108.14,13.72c-1.97,0-3.95,0-5.92,0"/>
<path class="st2" d="M97.46,12.2c-0.4,0.01-0.72,0.3-0.76,0.66c-0.05,0.41,0.29,0.77,0.58,0.81c0.04,0.01,0.08,0,0.11,0"/>
<path class="st2" d="M99.18,8.83c0.01-0.29,0.22-0.53,0.48-0.56c0.29-0.03,0.55,0.21,0.58,0.43c0,0.03,0,0.06,0,0.08"/>
<line class="st2" x1="100.24" y1="8.83" x2="100.24" y2="17.61"/>
<line class="st2" x1="99.18" y1="8.83" x2="99.18" y2="17.61"/>
<path class="st2" d="M102.14,20.22c-0.01,0.29-0.22,0.53-0.48,0.56c-0.29,0.03-0.55-0.21-0.58-0.43c0-0.03,0-0.06,0-0.08"/>
<line class="st2" x1="102.14" y1="5.66" x2="102.14" y2="20.22"/>
<line class="st2" x1="101.08" y1="5.66" x2="101.08" y2="20.22"/>
<line class="st2" x1="101.08" y1="12.23" x2="100.24" y2="12.23"/>
<line class="st2" x1="97.46" y1="12.2" x2="99.18" y2="12.19"/>
<line class="st2" x1="97.28" y1="13.67" x2="99.18" y2="13.68"/>
<line class="st2" x1="100.24" y1="13.72" x2="101.08" y2="13.72"/>
</svg>
