<svg xmlns="http://www.w3.org/2000/svg" viewBox="0 0 169.32 241.64"><defs><style>.cls-1,.cls-2,.cls-3{fill:none;stroke:#000;stroke-width:0.28px;}.cls-1,.cls-3{stroke-miterlimit:10;}.cls-2,.cls-3{stroke-linecap:round;}.cls-2{stroke-linejoin:round;}</style></defs><g id="Calque_2" data-name="Calque 2"><g id="Haltères"><path class="cls-1" d="M54.19,43.39a16.73,16.73,0,0,1,6.42-3.88c3.91-1.25,7.57-.7,12.15,0,3.67.54,3.61.93,6.28,1.09a33.21,33.21,0,0,0,8.65-.73c4-.82,4.12-1.47,7.35-1.88a25.17,25.17,0,0,1,16,3.3,33.65,33.65,0,0,1-2.12,10.62c-1.08,2.83-2.26,4.66-3,8.42a33.28,33.28,0,0,0-.52,5.7c-.17,4.87.54,7.84-.07,17a213.06,213.06,0,0,1-3.93,27.64H61.57A97.39,97.39,0,0,1,58.68,82c.33-5.8,1.16-9.51-.26-15.44-1.2-5-3.13-7.93-4-14.29A41.32,41.32,0,0,1,54.19,43.39Z"/><path class="cls-2" d="M145.93,71.71a18,18,0,0,1-3.81,12.34A17.51,17.51,0,0,1,132,89.92a18.87,18.87,0,0,1-4.31.41"/><path class="cls-2" d="M136.8,97.35a18.06,18.06,0,0,1-12.89.9,17.56,17.56,0,0,1-9.15-7.36A18.6,18.6,0,0,1,112.83,87"/><path class="cls-2" d="M44.06,103.38a18.06,18.06,0,0,1-12.89.9A17.56,17.56,0,0,1,22,96.92a18.6,18.6,0,0,1-1.93-3.87"/><path class="cls-2" d="M82.27,130.77c-.79.51-2.14,1.41-3.72,2.65-11.66,9.16-16.38,21.87-19.18,29.68-1.86,5.21-2.83,7.92-3.43,12.1-1.33,9.23.91,13.53,3.1,31.14,0,0,2.34,18.82-1.18,19.67-.68.16-2.17-.38-4.54-.36-.85,0-1.71.07-1.71.07-.93.08-1.44.2-1.79.18-2.67-.17-5.47-9.28-6.93-21.56-3.64-16.85-6.15-29.23-6.22-30.61,0-.74,0-1.45,0-1.45a21.65,21.65,0,0,1,.19-2.23,27.74,27.74,0,0,1,.66-3.17c.56-2,10.36-24.94,24.07-56.21h39.85c14.69,31.82,25.36,55.11,26.16,57a18.91,18.91,0,0,1,1,3.24,18.6,18.6,0,0,1,.27,2.06c-1.56,8.66-3.58,18-6.21,27.78-2.52,9.43-5.3,18.17-8.15,26.18a10,10,0,0,1-3.86.78,8.78,8.78,0,0,1-4.86-1.28c-3.11-2.52-1.57-10.7-.45-15.89,5.59-25.84,6.77-30.69,5.19-37.12-.71-2.86-2.58-6.05-6.29-12.31a298.76,298.76,0,0,0-18.88-28Z"/><path class="cls-1" d="M105.61,63a41.72,41.72,0,0,0,17.11,8.1c6.7,1.39,9.16,0,10.15-.71,2.24-1.62,2.78-4.07,3.54-6.61,2.81-9.39,4.9-7.66,8.73-18.4,3.18-8.93,1.44-9.28,4.75-17.06a87.54,87.54,0,0,0,3.27-9.6c1.53-5.1,1.76-7,.71-8.26a4.18,4.18,0,0,0-3.54-1.42c-1.6.2-1.83,1.46-3.78,2.12-2.1.71-3-.36-4,.24-2,1.23.79,6.48.24,12-.52,5.27-3.51,5.45-8.49,14.16-5.32,9.3-5.76,15.82-8.49,15.81-1.64,0-2.12-2.35-5.19-5.66a26.75,26.75,0,0,0-9.56-6.49"/><path class="cls-1" d="M54.19,43.39c-5.73,5-8.12,9.82-9.22,13.34-.88,2.82-1.56,6.84-3,6.92-.24,0-.73-.07-2.31-2.43a32.83,32.83,0,0,1-2.84-5.17c-2-4.57-3-7.25-3-7.25-2.14-5.59-1.92-5.14-2.91-7.68-2.69-6.89-3.18-7.23-3.53-9.62-.09-.59-.06-2.92,0-7.55.08-6.06.14-8.55-1.18-9.2-.76-.37-1.08.31-2.83.24-2.53-.11-3.3-1.6-4.95-1.42-2,.22-3.21,2.64-3.3,2.83-1.57,3.19.86,6.29,2.67,12.48a79.52,79.52,0,0,1,1.67,9.84c1.83,13.05.41,15.36,3.12,20.81.76,1.53,2,3.47,4.39,7.34,1.84,2.94,2.93,4.69,4.34,6.64,4.6,6.38,7.24,10,10.47,9.91,1.1,0,3.08-1.61,7.08-4.72a38.18,38.18,0,0,0,4.72-4,23.17,23.17,0,0,0,4.81-8.12"/><path class="cls-2" d="M105.13,225.77a13.9,13.9,0,0,1-2.32,5.56c-.48.67-2,2.67-1.55,4.06l0,.05c.44,1.06,2.65,1.07,4.18,1a64.6,64.6,0,0,0,8.89-1.21c3.57-.56,4.4-.47,6.18-1.27a9.29,9.29,0,0,0,3.8-3.12c.46-.67,1-1.39.7-1.86s-1.41-.45-5.23.07-5.33.82-5.87.09c-.24-.31-.37-.89.09-2"/><path class="cls-3" d="M27.33,17.26,35,17.21"/><path class="cls-3" d="M27.58,19.22l7.4,0"/><path class="cls-3" d="M41,17.23a1,1,0,0,1,1,.87,1,1,0,0,1-.77,1.06.38.38,0,0,1-.15,0"/><path class="cls-3" d="M35.12,8.73A.74.74,0,0,1,35.75,8a.72.72,0,0,1,.76.56.4.4,0,0,1,0,.11"/><path class="cls-3" d="M5.89,8.64a.74.74,0,0,1,.63-.73.72.72,0,0,1,.76.56.4.4,0,0,1,0,.11"/><path class="cls-3" d="M36.51,27.84a.74.74,0,0,1-.63.73.72.72,0,0,1-.76-.56.4.4,0,0,1,0-.11"/><path class="cls-3" d="M39.2,24.05a.74.74,0,0,1-.63.73.72.72,0,0,1-.76-.56.4.4,0,0,1,0-.11"/><path class="cls-3" d="M4.79,24.33a.74.74,0,0,1-.63.73.72.72,0,0,1-.76-.56.4.4,0,0,1,0-.11"/><path class="cls-3" d="M14.81,17.26H7.45"/><path class="cls-3" d="M14.57,19.22H7.39"/><path class="cls-3" d="M1.15,17.23a1,1,0,0,0-1,.87,1,1,0,0,0,.77,1.06.38.38,0,0,0,.15,0"/><line class="cls-3" x1="36.51" y1="8.73" x2="36.51" y2="27.84"/><line class="cls-3" x1="35.12" y1="8.73" x2="35.12" y2="27.84"/><path class="cls-3" d="M37.8,12.52a.74.74,0,0,1,.63-.73.72.72,0,0,1,.76.56.4.4,0,0,1,0,.11"/><line class="cls-3" x1="39.2" y1="12.52" x2="39.2" y2="24.05"/><line class="cls-3" x1="37.8" y1="12.52" x2="37.8" y2="24.05"/><path class="cls-3" d="M3.4,12.79A.74.74,0,0,1,4,12.06a.72.72,0,0,1,.76.56.4.4,0,0,1,0,.11"/><line class="cls-3" x1="4.79" y1="12.79" x2="4.79" y2="24.33"/><line class="cls-3" x1="3.4" y1="12.79" x2="3.4" y2="24.33"/><path class="cls-3" d="M7.28,27.75a.74.74,0,0,1-.63.73.72.72,0,0,1-.76-.56.4.4,0,0,1,0-.11"/><line class="cls-3" x1="7.28" y1="8.64" x2="7.28" y2="27.75"/><line class="cls-3" x1="5.89" y1="8.64" x2="5.89" y2="27.75"/><line class="cls-3" x1="36.74" y1="17.21" x2="37.63" y2="17.21"/><line class="cls-3" x1="39.35" y1="17.24" x2="41" y2="17.23"/><line class="cls-3" x1="41.08" y1="19.16" x2="39.2" y2="19.16"/><line class="cls-3" x1="37.8" y1="19.18" x2="36.51" y2="19.2"/><path class="cls-3" d="M154.51,14.18l7.66,0"/><path class="cls-3" d="M153.87,16.12l8.28,0"/><path class="cls-3" d="M168.18,14.14a1,1,0,0,1,1,.87,1,1,0,0,1-.77,1.06h-.15"/><path class="cls-3" d="M162.3,5.65a.74.74,0,0,1,.63-.73.72.72,0,0,1,.76.56.4.4,0,0,1,0,.11"/><path class="cls-3" d="M163.69,24.76a.74.74,0,0,1-.63.73.72.72,0,0,1-.76-.56.4.4,0,0,1,0-.11"/><path class="cls-3" d="M166.38,21a.74.74,0,0,1-.63.73.72.72,0,0,1-.76-.56.4.4,0,0,1,0-.11"/><line class="cls-3" x1="163.7" y1="5.65" x2="163.7" y2="24.76"/><line class="cls-3" x1="162.3" y1="5.65" x2="162.3" y2="24.76"/><path class="cls-3" d="M165,9.44a.74.74,0,0,1,.63-.73.72.72,0,0,1,.76.56.4.4,0,0,1,0,.11"/><line class="cls-3" x1="166.38" y1="9.44" x2="166.38" y2="20.97"/><line class="cls-3" x1="164.98" y1="9.44" x2="164.98" y2="20.97"/><line class="cls-3" x1="163.92" y1="14.13" x2="164.81" y2="14.13"/><line class="cls-3" x1="166.53" y1="14.15" x2="168.18" y2="14.14"/><line class="cls-3" x1="168.27" y1="16.07" x2="166.38" y2="16.08"/><line class="cls-3" x1="164.98" y1="16.1" x2="163.7" y2="16.12"/><line class="cls-3" x1="5.89" y1="17.26" x2="4.79" y2="17.26"/><line class="cls-3" x1="1.15" y1="17.23" x2="3.4" y2="17.21"/><line class="cls-3" x1="0.91" y1="19.16" x2="3.4" y2="19.16"/><line class="cls-3" x1="4.79" y1="19.22" x2="5.89" y2="19.22"/><path class="cls-3" d="M132.61,5.65a.74.74,0,0,1,.63-.73.72.72,0,0,1,.76.56.4.4,0,0,1,0,.11"/><path class="cls-3" d="M131.51,21.34a.74.74,0,0,1-.63.73.72.72,0,0,1-.76-.56.4.4,0,0,1,0-.11"/><path class="cls-3" d="M141.53,14.27h-7.36"/><path class="cls-3" d="M141.88,16.23h-7.77"/><path class="cls-3" d="M127.87,14.24a1,1,0,0,0-1,.87,1,1,0,0,0,.77,1.06h.15"/><path class="cls-3" d="M130.12,9.81a.74.74,0,0,1,.63-.73.72.72,0,0,1,.76.56.4.4,0,0,1,0,.11"/><line class="cls-3" x1="131.51" y1="9.81" x2="131.51" y2="21.34"/><line class="cls-3" x1="130.12" y1="9.81" x2="130.12" y2="21.34"/><path class="cls-3" d="M134,24.76a.74.74,0,0,1-.63.73.72.72,0,0,1-.76-.56.4.4,0,0,1,0-.11"/><line class="cls-3" x1="134" y1="5.65" x2="134" y2="24.76"/><line class="cls-3" x1="132.61" y1="5.65" x2="132.61" y2="24.76"/><line class="cls-3" x1="132.61" y1="14.27" x2="131.51" y2="14.27"/><line class="cls-3" x1="127.87" y1="14.24" x2="130.12" y2="14.22"/><line class="cls-3" x1="127.63" y1="16.17" x2="130.12" y2="16.17"/><line class="cls-3" x1="131.51" y1="16.23" x2="132.61" y2="16.23"/><path class="cls-1" d="M75.37,33.63a8,8,0,0,1-2.61,5.87"/><path class="cls-1" d="M84.83,32.86a13.88,13.88,0,0,0,2.86,7"/><path class="cls-3" d="M49.26,225.73c.09,1.26.23,5.51-2.55,8-1.64,1.49-4.32,2.23-5.77,2.63-1.95.55-2.71.46-5.07,1.23-1.58.51-4.09,1.33-4,2.12,0,.54,1.27.92,2.89,1.23,5.07,1,8.42-.1,12.55,0,6.74.19,8.16.76,9.2.41a1.72,1.72,0,0,0,.56-.3c.85-.7.79-2.14.33-5-.49-3-.71-3.14-.8-4.27A10.73,10.73,0,0,1,57.86,226"/><path class="cls-2" d="M81.71.4a11.11,11.11,0,0,0-6,.35,12.22,12.22,0,0,0-4.83,3.33,12.44,12.44,0,0,0-3.93,6.8,8.42,8.42,0,0,0-.14,1.6c.07,1.82.94,3.3,1.92,8.16,1.19,5.85.5,7.61,2.31,9.93a10.11,10.11,0,0,0,4.72,3.2A10.92,10.92,0,0,0,87.57,30.6a15.23,15.23,0,0,0,1.21-2.37c1-2.62.61-3.92,1.08-7.15.51-3.51,1.22-3.43,1.56-6.84a13,13,0,0,0-.07-5,12.15,12.15,0,0,0-4.79-6.52A14.39,14.39,0,0,0,81.71.4Z"/></g></g></svg>