<svg xmlns="http://www.w3.org/2000/svg" viewBox="0 0 178.57 287.1"><defs><style>.cls-1,.cls-2,.cls-3{fill:none;}.cls-1,.cls-2,.cls-3,.cls-4{stroke:#000;stroke-width:0.28px;}.cls-1,.cls-2{stroke-linecap:round;}.cls-1,.cls-3,.cls-4{stroke-miterlimit:10;}.cls-2{stroke-linejoin:round;}.cls-4{fill:#231f20;}</style></defs><g id="Calque_2" data-name="Calque 2"><g id="Traction"><path class="cls-1" d="M89.53,266.6c.9,1.25,2.87,4.38,2,7.58-.54,1.93-2,3.39-3.71,5.14-1.43,1.44-2.13,1.74-3.8,3.58-1.12,1.22-2.9,3.18-2.46,3.83.31.46,1.57.18,3.13-.35,4.89-1.67,7.26-4.27,10.91-6.21,6-3.16,7.47-3.37,8.2-4.2a1.66,1.66,0,0,0,.34-.53c.44-1.17-.76-2.48-2.16-4.47a28,28,0,0,1-2.37-3.84,13.51,13.51,0,0,1-1.25-5.33c-1.72.91-3.47,1.84-5.22,2.81C91.9,265.27,90.71,265.93,89.53,266.6Z"/><path class="cls-1" d="M91.69,273.22a5.52,5.52,0,0,1-1.41-5.47"/><path class="cls-1" d="M93.55,281.38a25.58,25.58,0,0,0,2.31,1.16c.53.24,1.08.45,1.77.69,1.56.53,2.82.8,3.12.35.43-.64-1.52-2.8-2.46-3.84l-.48-.52"/><path class="cls-1" d="M83.93,258.67A13.43,13.43,0,0,1,82.69,264a28.63,28.63,0,0,1-2.36,3.85c-1.41,2-2.61,3.3-2.16,4.47a1.87,1.87,0,0,0,.34.54c.52.58,1.44.86,4.11,2.12,1.27.6,2.24,1,4.09,2.07.91.51,1.64.95,2.1,1.24"/><path class="cls-2" d="M66,143.09C65.19,147.23,60.7,171,56.89,195A41.58,41.58,0,0,0,57,210.7a40,40,0,0,0,5.55,13.42q13.26,21.36,26.54,42.72l9.84-5.45-.51-1.3c-.75-1.89-1.3-3.28-1.38-3.5-3.31-8.29-6.08-19.89-12.49-30-3.83-6-6.53-7.72-7.47-13.25a21.26,21.26,0,0,1,.17-7.81c2.68-14.22,8.75-38.88,9.2-40.7.63-1.16,1.17-1.41,1.54-1.43,3.79-.14,7.89,22.78,11.27,41.65.51,2.88.92,5.26,1.18,6.86a12.14,12.14,0,0,1,.24,2.6c-.1,6.5-5.4,9.39-8.27,16.57A24.54,24.54,0,0,0,90.72,239q3.15,8.78,6.32,17.55l18.73-33.49a26.36,26.36,0,0,0,2-3.73c3.09-7.22,1.51-12.33-.84-29.58-1.52-11.12-1.48-13.39-3-21.88-.6-3.28-1.32-6.75-2.2-10.53s-2.14-8.76-3.81-14.32"/><path class="cls-2" d="M115.11,91.46a69.23,69.23,0,0,1-2.42,14.33c-1.4,5-2,5.25-2.84,9.11-1.29,6.2-.27,8.69-.7,16.92a89.11,89.11,0,0,1-1.31,11.24l-41.87,0c-.18-1.45-.45-3.87-.59-6.87-.6-12.77,2.06-16.36,1.16-27.68A113.36,113.36,0,0,0,65,97.3c-.69-2.84-1.34-5.88-1.9-9.11-.59-3.45-1-6.29-1.15-8.14"/><path class="cls-2" d="M53.69,76.3c1.22,1.83,1.38,4.24-1.47,14-3.82,13.1-1.58,9.93-4.28,18.46a9.66,9.66,0,0,0-.6,4.86c.69,4.16,4.54,6.83,6.43,8.16,2.29,1.59,3.43,2.38,4.5,2.12,3.57-.87,4.1-10.62,4.49-17.75a138.25,138.25,0,0,0-.13-14.55c-.18-3.92-.4-6-.72-12.31-.18-3.63-.29-6.63-.36-8.64a4,4,0,0,0,.71-2.24,4.62,4.62,0,0,0-2.13-3.61,6.51,6.51,0,0,0-4.5-.65A10.3,10.3,0,0,0,50.87,67,2.76,2.76,0,0,0,50,68.38a3.59,3.59,0,0,0,.83,2.69C51.87,72.75,52.58,74.64,53.69,76.3Z"/><path class="cls-2" d="M124,77.25c-1.22,1.83-1.38,4.24,1.49,14,3.83,13.09,1.58,9.92,4.3,18.45a9.76,9.76,0,0,1,.61,4.86c-.69,4.16-4.54,6.84-6.43,8.16-2.29,1.6-3.43,2.39-4.5,2.14-3.57-.87-4.11-10.62-4.5-17.75a133.36,133.36,0,0,1,.11-14.55c.18-3.92.39-6,.7-12.31.18-3.64.29-6.63.35-8.64a4,4,0,0,1-.71-2.24,4.6,4.6,0,0,1,2.13-3.61,6.94,6.94,0,0,1,4.49-.66,8.62,8.62,0,0,1,3.71,2.08c.37.32.66.61.86.82a2.39,2.39,0,0,1,1.11,1.3c.31,1-.41,2.05-.82,2.69C125.8,73.69,125.09,75.59,124,77.25Z"/><path class="cls-3" d="M81.09,66.64a12.87,12.87,0,0,0,2.33-10"/><path class="cls-3" d="M94.79,56.81a9.27,9.27,0,0,0-.28,6,9.1,9.1,0,0,0,2.31,3.83"/><path class="cls-2" d="M92.32,24.79a11.14,11.14,0,0,0-6,.35,12.22,12.22,0,0,0-4.83,3.33,12.44,12.44,0,0,0-3.93,6.8,8.42,8.42,0,0,0-.14,1.6c.07,1.82.94,3.3,1.92,8.16,1.19,5.85.5,7.61,2.31,9.93a10,10,0,0,0,4.72,3.2,9.25,9.25,0,0,0,7.89-.9,8.78,8.78,0,0,0,3.41-4.73A43.65,43.65,0,0,0,100.08,47a34.43,34.43,0,0,0,2-8.35,12.91,12.91,0,0,0-.08-4.95,12.15,12.15,0,0,0-4.79-6.52A14.44,14.44,0,0,0,92.32,24.79Z"/><line class="cls-4" x1="173.88" x2="173.92" y2="84.46"/><line class="cls-4" x1="178.38" x2="178.43" y2="84.45"/><line class="cls-3" x1="127.67" y1="70.5" x2="173.92" y2="70.34"/><line class="cls-3" x1="61.55" y1="70.67" x2="115.58" y2="70.53"/><line class="cls-3" x1="4.84" y1="70.82" x2="50.56" y2="70.7"/><line class="cls-3" x1="123.53" y1="78.08" x2="173.92" y2="77.8"/><line class="cls-3" x1="61.85" y1="78.12" x2="115.87" y2="77.98"/><line class="cls-3" x1="4.86" y1="78.26" x2="54.43" y2="78.14"/><path class="cls-1" d="M173.92,84.46a2.27,2.27,0,0,0,4.51,0"/><line class="cls-4" x1="0.14" y1="0.1" x2="0.19" y2="84.55"/><line class="cls-4" x1="4.65" y1="0.1" x2="4.7" y2="84.55"/><path class="cls-1" d="M.19,84.55a2.29,2.29,0,0,0,2.31,2,2.31,2.31,0,0,0,2.2-2"/><path class="cls-2" d="M96.82,66.6A24.8,24.8,0,0,0,104.75,68a43.36,43.36,0,0,1,5.08,0,21.37,21.37,0,0,1,5.57,1.34"/><path class="cls-2" d="M81.09,66.64A19.64,19.64,0,0,1,73,68c-2.38-.12-4.4-.71-7.39,0a14.57,14.57,0,0,0-3.28,1.19"/><path class="cls-2" d="M38.68,58.32a10.54,10.54,0,0,1,2.93-6.82,10,10,0,0,1,6.09-2.79,9.82,9.82,0,0,1,2.45,0"/><path class="cls-2" d="M47.32,195.37a44,44,0,0,1-13.89-10.88c-4.81-5.81-5.74-10.63-6-12.25a13.57,13.57,0,0,1-.16-3.9"/><path class="cls-2" d="M37.06,168.49a29.37,29.37,0,0,1-7.21-7.81A16.34,16.34,0,0,1,27.17,153a7.61,7.61,0,0,1,.14-2.22"/><path class="cls-2" d="M147.79,215.78a13.14,13.14,0,0,1-.15,3.9c-.27,1.62-1.2,6.44-6,12.26a43.82,43.82,0,0,1-13.87,10.89"/><path class="cls-2" d="M147.71,198.26a7.54,7.54,0,0,1,.15,2.22,16.34,16.34,0,0,1-2.68,7.64A29.27,29.27,0,0,1,138,216"/><path class="cls-2" d="M48.9,57.94a5.53,5.53,0,0,1,2.18-3.74,6,6,0,0,1,4-1,7,7,0,0,1,1.54.28"/><path class="cls-2" d="M134.2,53.51a10.6,10.6,0,0,1,8.54,2.77,10.54,10.54,0,0,1,2.93,6.82"/><path class="cls-2" d="M127.75,58.3A6.56,6.56,0,0,1,129.3,58a6,6,0,0,1,4,1,5.55,5.55,0,0,1,2.19,3.74"/></g></g></svg>